<svg id="图层_1" data-name="图层 1" xmlns="http://www.w3.org/2000/svg" viewBox="0 0 125.19 207.96"><defs><style>.cls-1{fill:#d6e9e7;stroke:#000;}.cls-1,.cls-4,.cls-6{stroke-miterlimit:10;}.cls-2{fill:#f2f1f0;}.cls-3,.cls-4{fill:#efd1b5;}.cls-4,.cls-6{stroke:#fff;}.cls-5{fill:#e3b582;}.cls-6{fill:none;}</style></defs><title>almond milk</title><polygon class="cls-1" points="84.89 206.53 0.89 195.2 0.89 41.86 84.89 49.2 84.89 206.53"/><polygon class="cls-1" points="124.22 189.86 84.89 207.2 84.89 49.86 124.22 32.53 124.22 189.86"/><polygon class="cls-1" points="21.89 10.86 0.89 41.86 84.89 49.2 104.56 16.86 21.89 10.86"/><polygon class="cls-1" points="124.22 32.53 104.56 16.86 84.89 49.2 124.22 32.53"/><polygon class="cls-1" points="21.39 10.53 21.39 0.53 104.39 5.53 104.39 16.53 21.39 10.53"/><circle class="cls-2" cx="42.89" cy="142.63" r="34.4"/><path class="cls-3" d="M78,158a0.65,0.65,0,0,1,.6-1c7.43,0.68,42.33,4.77,32.39,21.26C102.47,192.34,82.18,164.12,78,158Z" transform="translate(-56.11 -14.47)"/><path class="cls-4" d="M109.5,180.16S93,178.25,78,158" transform="translate(-56.11 -14.47)"/><path class="cls-4" d="M111,178.25s-22.39-8-32.39-21.26" transform="translate(-56.11 -14.47)"/><path class="cls-4" d="M78.22,157.25s25.13,10.67,34,18.37" transform="translate(-56.11 -14.47)"/><path class="cls-4" d="M78.59,157s25,3.89,34.14,16" transform="translate(-56.11 -14.47)"/><path class="cls-5" d="M89.85,132.75s10.25,2.75,16.37,8,18,20,11.13,31.13-20.12-7.26-20.12-7.26S88.72,154,89.85,132.75Z" transform="translate(-56.11 -14.47)"/><path class="cls-6" d="M106.6,145s4.87,4,5.62,7" transform="translate(-56.11 -14.47)"/><path class="cls-6" d="M91.6,144.25s-0.12,7.63,5.25,17.38" transform="translate(-56.11 -14.47)"/></svg>