<?xml version="1.0" encoding="utf-8"?>
<!-- Generator: Adobe Illustrator 19.2.1, SVG Export Plug-In . SVG Version: 6.00 Build 0)  -->
<svg version="1.1" id="图层_1" xmlns="http://www.w3.org/2000/svg" xmlns:xlink="http://www.w3.org/1999/xlink" x="0px" y="0px"
	 viewBox="0 0 146 152.9" style="enable-background:new 0 0 146 152.9;" xml:space="preserve">
<style type="text/css">
	.st0{fill:#8ACC33;stroke:#020202;stroke-width:2;stroke-miterlimit:10;}
	.st1{fill:none;stroke:#020202;stroke-width:2;stroke-miterlimit:10;}
	.st2{fill:#EF3A3A;stroke:#020202;stroke-width:2;stroke-miterlimit:10;}
</style>
<title>apple</title>
<path class="st0" d="M26.8,35c0,0-10.7-18.7,0-29.8S76,4.5,71.2,42.6C68.1,64.4,35.9,55.7,26.8,35z"/>
<line class="st1" x1="26.9" y1="5.2" x2="70.1" y2="45.3"/>
<polyline class="st1" points="23,29.2 52,29.2 52,5.2 "/>
<polyline class="st1" points="42,40.2 66,40.2 66,16.2 "/>
<path class="st2" d="M1.2,81c0,0,1-42.9,29.4-45c17.3,0,23.2,5.9,33.9,8.7s28.2-3.4,32.9-6.6c10.5-7.2,28.4-10.4,39.1,7.3
	c10.7,17.7,15.2,68.9-11.8,93.1c-30.5,26-45.8,6.2-50.4,6.6s-16.1,10.7-39.6,2.8S-0.9,116,1.2,81z"/>
<path class="st1" d="M92.3,51.9c0,0,23.2-11.1,34.3,3.1s6.9,37.1,6.9,37.1"/>
<path class="st1" d="M70.5,42.6c0,0,4.5-29.8,27-41.6"/>
</svg>
