<svg id="图层_1" data-name="图层 1" xmlns="http://www.w3.org/2000/svg" viewBox="0 0 192 195.41"><defs><style>.cls-1{fill:#a7d674;stroke:#000;stroke-miterlimit:10;stroke-width:2px;}.cls-2{fill:#e1ffc1;}.cls-3{fill:#c7897e;}</style></defs><title>asparagus</title><path class="cls-1" d="M209.23,51.14s-25,5.6-16.5,19.74S212.47,59.09,209.23,51.14Z" transform="translate(-22.33 -22.58)"/><path class="cls-1" d="M180.94,83s-25,5.6-16.5,19.74S184.19,90.91,180.94,83Z" transform="translate(-22.33 -22.58)"/><path class="cls-1" d="M192.43,87.37s-25,5.6-16.5,19.74S195.68,95.33,192.43,87.37Z" transform="translate(-22.33 -22.58)"/><path class="cls-1" d="M74.78,211.28S180.94,113.59,183.6,99.75l-9.13-10.61S155,113.59,142.94,121.55,88.15,166.62,84,171.63s-24.16,19.76-27.69,26.53S74.78,211.28,74.78,211.28Z" transform="translate(-22.33 -22.58)"/><path class="cls-1" d="M54.27,206.1s0.29-10.9,8-13,20.92,5.3,16.5,13-12.08,12.08-18,10.61S54.27,206.1,54.27,206.1Z" transform="translate(-22.33 -22.58)"/><path class="cls-2" d="M59.9,205.56s0.16-6.06,4.42-7.2,11.62,2.95,9.17,7.2-6.71,6.71-10,5.89S59.9,205.56,59.9,205.56Z" transform="translate(-22.33 -22.58)"/><path class="cls-1" d="M114.66,174s-6.78-11.49,7.37-15.32l5.89-.88S125.27,180.47,114.66,174Z" transform="translate(-22.33 -22.58)"/><path class="cls-1" d="M153.55,134.22s-6.78-11.49,7.37-15.32l5.89-.88S164.15,140.7,153.55,134.22Z" transform="translate(-22.33 -22.58)"/><path class="cls-1" d="M129.68,137.75s-6.78-11.49,7.37-15.32l5.89-.88S140.29,144.23,129.68,137.75Z" transform="translate(-22.33 -22.58)"/><path class="cls-3" d="M156.64,122.73a27.17,27.17,0,0,1,8.1-2.21,37.59,37.59,0,0,1-4.05,8.84s0.88-2.28-.66-1.91-1.4-.44-0.74-1.69-1.25.15-1.91-.29,0.81-2.36.81-2.36Z" transform="translate(-22.33 -22.58)"/><path class="cls-3" d="M132.78,126.26a27.17,27.17,0,0,1,8.1-2.21,37.59,37.59,0,0,1-4.05,8.84s0.88-2.28-.66-1.91-1.4-.44-0.74-1.69-1.25.15-1.91-.29,0.81-2.36.81-2.36Z" transform="translate(-22.33 -22.58)"/><path class="cls-3" d="M117.75,162.5a27.17,27.17,0,0,1,8.1-2.21,37.59,37.59,0,0,1-4.05,8.84s0.88-2.28-.66-1.91-1.4-.44-0.74-1.69-1.25.15-1.91-.29,0.81-2.36.81-2.36Z" transform="translate(-22.33 -22.58)"/><path class="cls-1" d="M182.71,71.47s-25,5.6-16.5,19.74S186,79.42,182.71,71.47Z" transform="translate(-22.33 -22.58)"/><path class="cls-1" d="M203,83.84s-25,5.6-16.5,19.74S206.28,91.79,203,83.84Z" transform="translate(-22.33 -22.58)"/><path class="cls-3" d="M193.56,89.56a27.17,27.17,0,0,1,7.84-3,37.59,37.59,0,0,1-3.14,9.2s0.65-2.36-.85-1.84-1.44-.3-0.9-1.61-1.23.27-1.93-.1,0.57-2.43.57-2.43Z" transform="translate(-22.33 -22.58)"/><path class="cls-1" d="M204.81,70.58s-25,5.6-16.5,19.74S208,78.54,204.81,70.58Z" transform="translate(-22.33 -22.58)"/><path class="cls-3" d="M173.23,78.07a27.17,27.17,0,0,1,7.84-3,37.59,37.59,0,0,1-3.14,9.2s0.65-2.36-.85-1.84-1.44-.3-0.9-1.61-1.23.27-1.93-.1,0.57-2.43.57-2.43Z" transform="translate(-22.33 -22.58)"/><path class="cls-1" d="M193.32,62.63s-25,5.6-16.5,19.74S196.56,70.58,193.32,62.63Z" transform="translate(-22.33 -22.58)"/><path class="cls-1" d="M193.32,75s-25,5.6-16.5,19.74S196.56,83,193.32,75Z" transform="translate(-22.33 -22.58)"/><path class="cls-3" d="M183.84,80.72a27.17,27.17,0,0,1,7.84-3,37.59,37.59,0,0,1-3.14,9.2s0.65-2.36-.85-1.84-1.44-.3-0.9-1.61-1.23.27-1.93-.1,0.57-2.43.57-2.43Z" transform="translate(-22.33 -22.58)"/><path class="cls-3" d="M183.84,68.35a27.17,27.17,0,0,1,7.84-3,37.59,37.59,0,0,1-3.14,9.2s0.65-2.36-.85-1.84-1.44-.3-0.9-1.61-1.23.27-1.93-.1,0.57-2.43.57-2.43Z" transform="translate(-22.33 -22.58)"/><path class="cls-3" d="M199.75,56.86a27.17,27.17,0,0,1,7.84-3,37.59,37.59,0,0,1-3.14,9.2s0.65-2.36-.85-1.84-1.44-.3-0.9-1.61-1.23.27-1.93-.1,0.57-2.43.57-2.43Z" transform="translate(-22.33 -22.58)"/><path class="cls-3" d="M196.21,76.3a27.17,27.17,0,0,1,7.84-3,37.59,37.59,0,0,1-3.14,9.2s0.65-2.36-.85-1.84-1.44-.3-0.9-1.61-1.23.27-1.93-.1,0.57-2.43.57-2.43Z" transform="translate(-22.33 -22.58)"/><path class="cls-1" d="M178.29,39.65s-25,5.6-16.5,19.74S181.53,47.6,178.29,39.65Z" transform="translate(-22.33 -22.58)"/><path class="cls-1" d="M150,71.47s-25,5.6-16.5,19.74S153.25,79.42,150,71.47Z" transform="translate(-22.33 -22.58)"/><path class="cls-1" d="M161.5,75.88s-25,5.6-16.5,19.74S164.74,83.84,161.5,75.88Z" transform="translate(-22.33 -22.58)"/><path class="cls-1" d="M43.85,199.79S150,102.1,152.66,88.26l-9.13-10.61S124.09,102.1,112,110.06s-54.8,45.07-58.92,50.08S28.93,179.9,25.4,186.67,43.85,199.79,43.85,199.79Z" transform="translate(-22.33 -22.58)"/><path class="cls-1" d="M23.33,194.61s0.29-10.9,8-13,20.92,5.3,16.5,13-12.08,12.08-18,10.61S23.33,194.61,23.33,194.61Z" transform="translate(-22.33 -22.58)"/><path class="cls-2" d="M29,194.07s0.16-6.06,4.42-7.2,11.62,2.95,9.17,7.2-6.71,6.71-10,5.89S29,194.07,29,194.07Z" transform="translate(-22.33 -22.58)"/><path class="cls-1" d="M83.73,162.5S77,151,91.09,147.18l5.89-.88S94.33,169,83.73,162.5Z" transform="translate(-22.33 -22.58)"/><path class="cls-1" d="M122.61,122.73s-6.78-11.49,7.37-15.32l5.89-.88S133.22,129.21,122.61,122.73Z" transform="translate(-22.33 -22.58)"/><path class="cls-1" d="M98.75,126.26s-6.78-11.49,7.37-15.32l5.89-.88S109.36,132.74,98.75,126.26Z" transform="translate(-22.33 -22.58)"/><path class="cls-3" d="M125.71,111.24a27.17,27.17,0,0,1,8.1-2.21,37.59,37.59,0,0,1-4.05,8.84s0.88-2.28-.66-1.91-1.4-.44-0.74-1.69-1.25.15-1.91-.29,0.81-2.36.81-2.36Z" transform="translate(-22.33 -22.58)"/><path class="cls-3" d="M101.84,114.77a27.17,27.17,0,0,1,8.1-2.21,37.59,37.59,0,0,1-4.05,8.84s0.88-2.28-.66-1.91-1.4-.44-0.74-1.69-1.25.15-1.91-.29,0.81-2.36.81-2.36Z" transform="translate(-22.33 -22.58)"/><path class="cls-3" d="M86.82,151a27.17,27.17,0,0,1,8.1-2.21,37.59,37.59,0,0,1-4.05,8.84s0.88-2.28-.66-1.91-1.4-.44-0.74-1.69-1.25.15-1.91-.29,0.81-2.36.81-2.36Z" transform="translate(-22.33 -22.58)"/><path class="cls-1" d="M151.78,60s-25,5.6-16.5,19.74S155,67.93,151.78,60Z" transform="translate(-22.33 -22.58)"/><path class="cls-1" d="M172.11,72.35s-25,5.6-16.5,19.74S175.35,80.3,172.11,72.35Z" transform="translate(-22.33 -22.58)"/><path class="cls-3" d="M162.63,78.07a27.17,27.17,0,0,1,7.84-3,37.59,37.59,0,0,1-3.14,9.2s0.65-2.36-.85-1.84-1.44-.3-0.9-1.61-1.23.27-1.93-.1,0.57-2.43.57-2.43Z" transform="translate(-22.33 -22.58)"/><path class="cls-1" d="M173.87,59.09s-25,5.6-16.5,19.74S177.12,67,173.87,59.09Z" transform="translate(-22.33 -22.58)"/><path class="cls-3" d="M142.3,66.58a27.17,27.17,0,0,1,7.84-3,37.59,37.59,0,0,1-3.14,9.2s0.65-2.36-.85-1.84-1.44-.3-0.9-1.61-1.23.27-1.93-.1,0.57-2.43.57-2.43Z" transform="translate(-22.33 -22.58)"/><path class="cls-1" d="M162.39,51.14s-25,5.6-16.5,19.74S165.63,59.09,162.39,51.14Z" transform="translate(-22.33 -22.58)"/><path class="cls-1" d="M162.39,63.51s-25,5.6-16.5,19.74S165.63,71.47,162.39,63.51Z" transform="translate(-22.33 -22.58)"/><path class="cls-3" d="M152.9,69.23a27.17,27.17,0,0,1,7.84-3,37.59,37.59,0,0,1-3.14,9.2s0.65-2.36-.85-1.84-1.44-.3-0.9-1.61-1.23.27-1.93-.1,0.57-2.43.57-2.43Z" transform="translate(-22.33 -22.58)"/><path class="cls-3" d="M152.9,56.86a27.17,27.17,0,0,1,7.84-3A37.59,37.59,0,0,1,157.6,63s0.65-2.36-.85-1.84-1.44-.3-0.9-1.61-1.23.27-1.93-.1,0.57-2.43.57-2.43Z" transform="translate(-22.33 -22.58)"/><path class="cls-3" d="M168.81,45.37a27.17,27.17,0,0,1,7.84-3,37.59,37.59,0,0,1-3.14,9.2s0.65-2.36-.85-1.84-1.44-.3-0.9-1.61-1.23.27-1.93-.1,0.57-2.43.57-2.43Z" transform="translate(-22.33 -22.58)"/><path class="cls-3" d="M165.28,64.81a27.17,27.17,0,0,1,7.84-3A37.59,37.59,0,0,1,170,71s0.65-2.36-.85-1.84-1.44-.3-0.9-1.61-1.23.27-1.93-.1,0.57-2.43.57-2.43Z" transform="translate(-22.33 -22.58)"/><path class="cls-1" d="M212.76,23.74s-25,5.6-16.5,19.74S216,31.69,212.76,23.74Z" transform="translate(-22.33 -22.58)"/><path class="cls-1" d="M184.48,55.56s-25,5.6-16.5,19.74S187.72,63.51,184.48,55.56Z" transform="translate(-22.33 -22.58)"/><path class="cls-1" d="M196,60s-25,5.6-16.5,19.74S199.21,67.93,196,60Z" transform="translate(-22.33 -22.58)"/><path class="cls-1" d="M78.32,183.89S184.48,86.2,187.13,72.35L178,61.74S158.56,86.2,146.48,94.15s-54.8,45.07-58.92,50.08S63.4,164,59.86,170.76,78.32,183.89,78.32,183.89Z" transform="translate(-22.33 -22.58)"/><path class="cls-1" d="M57.8,178.7s0.29-10.9,8-13,20.92,5.3,16.5,13-12.08,12.08-18,10.61S57.8,178.7,57.8,178.7Z" transform="translate(-22.33 -22.58)"/><path class="cls-2" d="M63.43,178.16s0.16-6.06,4.42-7.2,11.62,2.95,9.17,7.2-6.71,6.71-10,5.89S63.43,178.16,63.43,178.16Z" transform="translate(-22.33 -22.58)"/><path class="cls-1" d="M118.19,146.59s-6.78-11.49,7.37-15.32l5.89-.88S128.8,153.07,118.19,146.59Z" transform="translate(-22.33 -22.58)"/><path class="cls-1" d="M157.08,106.82s-6.78-11.49,7.37-15.32l5.89-.88S167.69,113.3,157.08,106.82Z" transform="translate(-22.33 -22.58)"/><path class="cls-1" d="M133.22,110.35S126.44,98.86,140.58,95l5.89-.88S143.83,116.83,133.22,110.35Z" transform="translate(-22.33 -22.58)"/><path class="cls-3" d="M160.18,95.33a27.17,27.17,0,0,1,8.1-2.21,37.59,37.59,0,0,1-4.05,8.84s0.88-2.28-.66-1.91-1.4-.44-0.74-1.69-1.25.15-1.91-.29,0.81-2.36.81-2.36Z" transform="translate(-22.33 -22.58)"/><path class="cls-3" d="M136.31,98.86a27.17,27.17,0,0,1,8.1-2.21,37.59,37.59,0,0,1-4.05,8.84s0.88-2.28-.66-1.91-1.4-.44-0.74-1.69-1.25.15-1.91-.29,0.81-2.36.81-2.36Z" transform="translate(-22.33 -22.58)"/><path class="cls-3" d="M121.29,135.1a27.17,27.17,0,0,1,8.1-2.21,37.59,37.59,0,0,1-4.05,8.84s0.88-2.28-.66-1.91-1.4-.44-0.74-1.69-1.25.15-1.91-.29,0.81-2.36.81-2.36Z" transform="translate(-22.33 -22.58)"/><path class="cls-1" d="M186.25,44.07s-25,5.6-16.5,19.74S189.49,52,186.25,44.07Z" transform="translate(-22.33 -22.58)"/><path class="cls-1" d="M206.58,56.44s-25,5.6-16.5,19.74S209.82,64.39,206.58,56.44Z" transform="translate(-22.33 -22.58)"/><path class="cls-3" d="M197.09,62.16a27.17,27.17,0,0,1,7.84-3,37.59,37.59,0,0,1-3.14,9.2s0.65-2.36-.85-1.84-1.44-.3-0.9-1.61-1.23.27-1.93-.1,0.57-2.43.57-2.43Z" transform="translate(-22.33 -22.58)"/><path class="cls-1" d="M208.34,43.18s-25,5.6-16.5,19.74S211.58,51.14,208.34,43.18Z" transform="translate(-22.33 -22.58)"/><path class="cls-3" d="M176.77,50.67a27.17,27.17,0,0,1,7.84-3,37.59,37.59,0,0,1-3.14,9.2s0.65-2.36-.85-1.84-1.44-.3-0.9-1.61-1.23.27-1.93-.1,0.57-2.43.57-2.43Z" transform="translate(-22.33 -22.58)"/><path class="cls-1" d="M196.85,35.23s-25,5.6-16.5,19.74S200.09,43.18,196.85,35.23Z" transform="translate(-22.33 -22.58)"/><path class="cls-1" d="M196.85,47.6s-25,5.6-16.5,19.74S200.09,55.56,196.85,47.6Z" transform="translate(-22.33 -22.58)"/><path class="cls-3" d="M187.37,53.32a27.17,27.17,0,0,1,7.84-3,37.59,37.59,0,0,1-3.14,9.2s0.65-2.36-.85-1.84-1.44-.3-0.9-1.61-1.23.27-1.93-.1,0.57-2.43.57-2.43Z" transform="translate(-22.33 -22.58)"/><path class="cls-3" d="M187.37,40.95a27.17,27.17,0,0,1,7.84-3,37.59,37.59,0,0,1-3.14,9.2s0.65-2.36-.85-1.84-1.44-.3-0.9-1.61-1.23.27-1.93-.1,0.57-2.43.57-2.43Z" transform="translate(-22.33 -22.58)"/><path class="cls-3" d="M203.28,29.46a27.17,27.17,0,0,1,7.84-3,37.59,37.59,0,0,1-3.14,9.2s0.65-2.36-.85-1.84-1.44-.3-0.9-1.61-1.23.27-1.93-.1,0.57-2.43.57-2.43Z" transform="translate(-22.33 -22.58)"/><path class="cls-3" d="M199.75,48.9a27.17,27.17,0,0,1,7.84-3,37.59,37.59,0,0,1-3.14,9.2s0.65-2.36-.85-1.84-1.44-.3-0.9-1.61-1.23.27-1.93-.1,0.57-2.43.57-2.43Z" transform="translate(-22.33 -22.58)"/></svg>