<svg id="图层_1" data-name="图层 1" xmlns="http://www.w3.org/2000/svg" viewBox="0 0 145.32 111.06"><defs><style>.cls-1{fill:#a06835;stroke:#000;stroke-miterlimit:10;stroke-width:2px;}.cls-2{fill:#513312;}</style></defs><title>baked potatoes</title><path class="cls-1" d="M91,125.9s-4.41-16.38,17-27.69,41-20.82,51.2-28.49c14.68-11,39.31-.74,31.56,24.12s-41.24,48.93-51.62,52.68C121.58,152.86,98.19,153.31,91,125.9Z" transform="translate(-47.92 -64.33)"/><path class="cls-2" d="M131.52,135.91a19.07,19.07,0,0,0,6.45,1.55C142.33,137.89,134.45,141.51,131.52,135.91Z" transform="translate(-47.92 -64.33)"/><path class="cls-2" d="M112.19,133.54a13.72,13.72,0,0,0,4.35,1.62C119.42,135.8,114.52,137.93,112.19,133.54Z" transform="translate(-47.92 -64.33)"/><path class="cls-2" d="M126.73,145.77a15.36,15.36,0,0,0,5.12.49C135.35,146.17,128.6,149.43,126.73,145.77Z" transform="translate(-47.92 -64.33)"/><path class="cls-2" d="M146.7,139.3a15.18,15.18,0,0,0,3.49-3.81C152.21,132.64,151,139.89,146.7,139.3Z" transform="translate(-47.92 -64.33)"/><path class="cls-2" d="M163.55,126.76a17.69,17.69,0,0,0,4.64-3.85C171,119.94,168.42,128.12,163.55,126.76Z" transform="translate(-47.92 -64.33)"/><path class="cls-2" d="M149.26,127.93a17.69,17.69,0,0,0,5.87-1.36C158.95,125.15,153,131.32,149.26,127.93Z" transform="translate(-47.92 -64.33)"/><path class="cls-2" d="M111.59,111.5a17.69,17.69,0,0,0,5.87-1.36C121.28,108.72,115.34,114.9,111.59,111.5Z" transform="translate(-47.92 -64.33)"/><path class="cls-2" d="M151.92,132.72a9.43,9.43,0,0,0,2.82-1C156.61,130.84,153.49,134.17,151.92,132.72Z" transform="translate(-47.92 -64.33)"/><path class="cls-2" d="M183.58,104.57a17.69,17.69,0,0,0,.19-6C183.38,94.5,187.83,101.82,183.58,104.57Z" transform="translate(-47.92 -64.33)"/><path class="cls-2" d="M189.26,83.82a10,10,0,0,0-.11-3.3C188.81,78.28,191.39,82.45,189.26,83.82Z" transform="translate(-47.92 -64.33)"/><path class="cls-2" d="M191.79,88.13a10,10,0,0,0-3.25.56C186.37,89.33,190.14,86.21,191.79,88.13Z" transform="translate(-47.92 -64.33)"/><path class="cls-2" d="M181.52,70.7a10,10,0,0,0-3.18-.88C176.11,69.47,180.85,68.26,181.52,70.7Z" transform="translate(-47.92 -64.33)"/><path class="cls-2" d="M167.07,118.12a16.08,16.08,0,0,0-.17-5.28C166.35,109.26,170.48,115.93,167.07,118.12Z" transform="translate(-47.92 -64.33)"/><path class="cls-2" d="M168.08,69.53A16.08,16.08,0,0,0,163.42,72C160.44,74.08,164.62,67.43,168.08,69.53Z" transform="translate(-47.92 -64.33)"/><path class="cls-2" d="M126.53,92.05a11.31,11.31,0,0,0-3.76.79C120.47,93.68,123,90,126.53,92.05Z" transform="translate(-47.92 -64.33)"/><path class="cls-2" d="M105.67,101.23A11.31,11.31,0,0,0,104,104.7C103.31,107,101.91,102.79,105.67,101.23Z" transform="translate(-47.92 -64.33)"/><path class="cls-2" d="M136.86,87.18A11.31,11.31,0,0,0,138,83.51C138.36,81.08,140.36,85.08,136.86,87.18Z" transform="translate(-47.92 -64.33)"/><path class="cls-2" d="M114.35,146.46a19.07,19.07,0,0,0,6.06-2.71C124.12,141.44,120.08,149.11,114.35,146.46Z" transform="translate(-47.92 -64.33)"/><path class="cls-2" d="M101,134.4a19.07,19.07,0,0,0,3.33,5.74C107,143.59,99,140.39,101,134.4Z" transform="translate(-47.92 -64.33)"/><circle class="cls-2" cx="143.64" cy="138.9" r="0.83" transform="translate(-97.32 23) rotate(-29.08)"/><circle class="cls-2" cx="175.51" cy="116.49" r="1.33" transform="translate(-82.41 35.66) rotate(-29.08)"/><circle class="cls-2" cx="177.83" cy="105.36" r="1.62" transform="translate(-76.71 35.39) rotate(-29.08)"/><circle class="cls-2" cx="158.29" cy="122.7" r="1.46" transform="translate(-87.6 28.08) rotate(-29.08)"/><circle class="cls-2" cx="127.95" cy="139.66" r="1.54" transform="translate(-99.67 15.47) rotate(-29.08)"/><circle class="cls-2" cx="113.88" cy="142.88" r="1.33" transform="translate(-103 9.03) rotate(-29.08)"/><circle class="cls-2" cx="122.71" cy="146.99" r="0.88" transform="translate(-103.89 13.85) rotate(-29.08)"/><circle class="cls-2" cx="136.15" cy="144.23" r="1.33" transform="translate(-100.85 20.03) rotate(-29.08)"/><circle class="cls-2" cx="142.97" cy="142.35" r="1.11" transform="translate(-99.08 23.11) rotate(-29.08)"/><circle class="cls-2" cx="170.68" cy="107.8" r="1.34" transform="translate(-78.79 32.22) rotate(-29.08)"/><circle class="cls-2" cx="188.84" cy="93.71" r="1.61" transform="translate(-69.66 39.27) rotate(-29.08)"/><circle class="cls-2" cx="184.17" cy="79.67" r="0.7" transform="translate(-63.42 35.23) rotate(-29.08)"/><circle class="cls-2" cx="145.02" cy="132.06" r="1.13" transform="translate(-93.82 22.81) rotate(-29.08)"/><circle class="cls-2" cx="106.37" cy="137.54" r="0.66" transform="translate(-101.36 4.71) rotate(-29.08)"/><circle class="cls-2" cx="97.21" cy="132.61" r="0.55" transform="translate(-100.11 -0.36) rotate(-29.08)"/><path class="cls-1" d="M50.58,125.55s4.8-19.25,33.09-18.67,53.73,2,68.54,0c21.27-2.9,40.61,21.6,18.56,42.6S100.78,176.05,88,174C66.48,170.48,42.3,157.64,50.58,125.55Z" transform="translate(-47.92 -64.33)"/><path class="cls-2" d="M86.28,158.81A22.31,22.31,0,0,0,92,164.06C96.2,167,86.09,166.2,86.28,158.81Z" transform="translate(-47.92 -64.33)"/><path class="cls-2" d="M67.87,145.39a16.05,16.05,0,0,0,3.52,4.13C74,151.81,67.75,151.2,67.87,145.39Z" transform="translate(-47.92 -64.33)"/><path class="cls-2" d="M75.78,166.16a18,18,0,0,0,5,3.41C84.36,171.47,75.61,171,75.78,166.16Z" transform="translate(-47.92 -64.33)"/><path class="cls-2" d="M99.87,170.91a17.75,17.75,0,0,0,5.74-1.91C109.29,167.22,103.94,173.95,99.87,170.91Z" transform="translate(-47.92 -64.33)"/><path class="cls-2" d="M124.23,167.66a20.7,20.7,0,0,0,6.93-1.3C135.69,164.9,128.44,171.82,124.23,167.66Z" transform="translate(-47.92 -64.33)"/><path class="cls-2" d="M109,160.73a20.7,20.7,0,0,0,6.77,1.94C120.44,163.4,110.86,166.33,109,160.73Z" transform="translate(-47.92 -64.33)"/><path class="cls-2" d="M79.78,122.51a20.7,20.7,0,0,0,6.77,1.94C91.27,125.18,81.68,128.12,79.78,122.51Z" transform="translate(-47.92 -64.33)"/><path class="cls-2" d="M109,167.15a11,11,0,0,0,3.44.6C114.82,167.88,109.73,169.51,109,167.15Z" transform="translate(-47.92 -64.33)"/><path class="cls-2" d="M157.33,156.37a20.7,20.7,0,0,0,3.62-6.05C162.85,146,163.23,156,157.33,156.37Z" transform="translate(-47.92 -64.33)"/><path class="cls-2" d="M174.93,138.38a11.75,11.75,0,0,0,1.77-3.43C177.62,132.46,177.89,138.19,174.93,138.38Z" transform="translate(-47.92 -64.33)"/><path class="cls-2" d="M175.07,144.23a11.75,11.75,0,0,0-3.64-1.28C168.84,142.37,174.48,141.32,175.07,144.23Z" transform="translate(-47.92 -64.33)"/><path class="cls-2" d="M174.48,120.57a11.75,11.75,0,0,0-2.75-2.71C169.64,116.23,175.19,117.69,174.48,120.57Z" transform="translate(-47.92 -64.33)"/><path class="cls-2" d="M132.74,160.83a18.81,18.81,0,0,0,2.83-5.5C137,151.36,137.47,160.53,132.74,160.83Z" transform="translate(-47.92 -64.33)"/><path class="cls-2" d="M161.41,111.73a18.81,18.81,0,0,0-6.18-.12C151,112,159.06,107.61,161.41,111.73Z" transform="translate(-47.92 -64.33)"/><path class="cls-2" d="M106.11,111.13a13.23,13.23,0,0,0-4.29-1.33C99,109.34,103.67,107,106.11,111.13Z" transform="translate(-47.92 -64.33)"/><path class="cls-2" d="M79.58,108.65a13.23,13.23,0,0,0-3.65,2.62C73.85,113.24,74.83,108.11,79.58,108.65Z" transform="translate(-47.92 -64.33)"/><path class="cls-2" d="M119.45,112a13.23,13.23,0,0,0,3.23-3.12C124.45,106.64,124.23,111.86,119.45,112Z" transform="translate(-47.92 -64.33)"/><path class="cls-2" d="M62.73,159.82a22.31,22.31,0,0,0,7.74.67C75.57,160.24,67.08,165.8,62.73,159.82Z" transform="translate(-47.92 -64.33)"/><path class="cls-2" d="M56,139.93a22.31,22.31,0,0,0,.14,7.76C56.89,152.74,50.47,144.88,56,139.93Z" transform="translate(-47.92 -64.33)"/><circle class="cls-2" cx="49.05" cy="104.42" r="0.97"/><circle class="cls-2" cx="94.38" cy="99.64" r="1.56"/><circle class="cls-2" cx="103.08" cy="89.57" r="1.9"/><circle class="cls-2" cx="73.24" cy="96.19" r="1.71"/><circle class="cls-2" cx="32.58" cy="96.28" r="1.8"/><circle class="cls-2" cx="16.36" cy="91.57" r="1.55"/><circle class="cls-2" cx="23.06" cy="100.8" r="1.04"/><circle class="cls-2" cx="38.37" cy="105.61" r="1.56"/><circle class="cls-2" cx="46.41" cy="107.57" r="1.3"/><circle class="cls-2" cx="94.39" cy="88" r="1.57"/><circle class="cls-2" cx="120.96" cy="83.92" r="1.89"/><circle class="cls-2" cx="124.17" cy="66.91" r="0.82"/><circle class="cls-2" cx="54.35" cy="98.21" r="1.33"/><circle class="cls-2" cx="11.72" cy="81.84" r="0.78"/><circle class="cls-2" cx="5.16" cy="71.59" r="0.64"/></svg>