<svg id="图层_1" data-name="图层 1" xmlns="http://www.w3.org/2000/svg" viewBox="0 0 156.21 165.22"><defs><style>.cls-1{fill:#fff200;}.cls-1,.cls-2{stroke:#020202;stroke-linejoin:round;stroke-width:2px;}.cls-2{fill:#bf8a04;}</style></defs><title>banana</title><path class="cls-1" d="M33.84,170.68l11.24-13.29s31.18,23,73.59,0S159,89.93,153.94,62.33l3.58-7.67s37.31,24,14.82,82.79S100.27,214.63,33.84,170.68Z" transform="translate(-32.84 -35.78)"/><path class="cls-1" d="M52.75,164.55s40.37,30.66,84.84,2.56,44-89.44,19.93-112.44l4.6-3.07s49.57,51.11,11.64,113.46c-49.46,71-131.23,11.75-131.23,11.75Z" transform="translate(-32.84 -35.78)"/><polygon class="cls-2" points="114.46 5.6 123.15 1 129.28 15.82 124.68 18.89 114.46 5.6"/><polygon class="cls-2" points="12.24 121.61 18.34 125.12 7.42 138.99 1 134.9 12.24 121.61"/></svg>