<svg id="图层_1" data-name="图层 1" xmlns="http://www.w3.org/2000/svg" viewBox="0 0 109.52 152.42"><defs><style>.cls-1{fill:#8ebe00;}.cls-1,.cls-2,.cls-3,.cls-4{stroke:#000;stroke-miterlimit:10;stroke-width:2px;}.cls-2{fill:#6ba80b;}.cls-3{fill:#fa5341;}.cls-4{fill:#e12d2e;}</style></defs><title>bell peppers</title><path class="cls-1" d="M98.85,68.85S99.27,61,111,60.79s22.53,0,22.53,0,8.48,0.62,10.34,8.06S98.85,80.22,98.85,68.85Z" transform="translate(-63.84 -37.58)"/><path class="cls-2" d="M118.18,57.1s7.91-18.51,15.14-18.51,2.61,7,2.61,7-7.93,5.37-8.33,11.78c0,0,6,.23,6,7.23H111.67A7.51,7.51,0,0,1,118.18,57.1Z" transform="translate(-63.84 -37.58)"/><path class="cls-3" d="M105,70.84S73,64.08,66.61,86.49,72.78,164.72,77.47,174,88.25,189.24,101,186.7c5.54-1.69,4-5.5,4-5.5V70.84Z" transform="translate(-63.84 -37.58)"/><path class="cls-3" d="M128,70.84s36-6.77,42.36,15.65-4.18,78.23-8.87,87.53-13.76,15.22-26.55,12.69c-5.54-1.69-6.94-5.5-6.94-5.5V70.84Z" transform="translate(-63.84 -37.58)"/><rect class="cls-4" x="27.95" y="32.3" width="54.51" height="119.12" rx="14" ry="14"/></svg>