<svg id="图层_1" data-name="图层 1" xmlns="http://www.w3.org/2000/svg" viewBox="0 0 228.08 129.37"><defs><style>.cls-1{fill:#feb859;}.cls-1,.cls-2{stroke:#000;stroke-miterlimit:10;stroke-width:2px;}.cls-2{fill:#f7a543;}</style></defs><title>brioche bun</title><path class="cls-1" d="M7.5,134.08S-9.24,93.82,48.67,68s92.38,8.7,97.71,19c6.79,13.12,12.67,52-46.59,64.23S16.1,155.79,7.5,134.08Z" transform="translate(-4.26 -57.66)"/><path class="cls-2" d="M20.62,131.36S84.08,65.82,130.38,71C130.38,71,43.24,43.15,20.62,131.36Z" transform="translate(-4.26 -57.66)"/><path class="cls-1" d="M67.82,159.74s-19.14-46,47.07-75.51S220.51,94.18,226.6,106c7.76,15,14.48,59.48-53.27,73.44S77.65,184.57,67.82,159.74Z" transform="translate(-4.26 -57.66)"/><path class="cls-2" d="M82.82,156.64s72.55-74.94,125.5-69C208.32,87.62,108.68,55.78,82.82,156.64Z" transform="translate(-4.26 -57.66)"/></svg>