<svg id="图层_1" data-name="图层 1" xmlns="http://www.w3.org/2000/svg" viewBox="0 0 218 218"><defs><style>.cls-1{fill:#fff;stroke-width:2px;}.cls-1,.cls-2{stroke:#000;stroke-miterlimit:10;}.cls-2{fill:none;stroke-width:3px;}.cls-3{fill:#6ead25;}.cls-4{fill:#c1d9a5;}</style></defs><title>brussell sprouts</title><circle class="cls-1" cx="109" cy="109" r="108"/><path class="cls-2" d="M41.13,84.49s21-62.51,91-52.25" transform="translate(-10.27 -9.93)"/><path class="cls-2" d="M37,111.22A43.93,43.93,0,0,1,39,93" transform="translate(-10.27 -9.93)"/><path class="cls-3" d="M158.12,68.34s-4.92-7.94-10.41-8.7-15.31,5-15.31,5-8,2.34-8,10.57c-1.74,5.58-2.16,8.62,3.84,18.32,1.58,2.75,4.7,2.6,5.65,3.61a14.37,14.37,0,0,0,8.71,3.47c4.2,0.15,10.89-4.92,11.83-5.26s6-1.84,6-1.84l2.33-11.14Z" transform="translate(-10.27 -9.93)"/><path class="cls-4" d="M157.35,79.82a7.22,7.22,0,0,1-1-1.86h0c2.2-3.82.4-10,.4-10,0.81,6.39-2.06,8.35-2.06,8.35l0,0.06A16.91,16.91,0,0,0,150.9,73l0.19,0.13c0.91-9.11-2-11.67-2-11.67a19.16,19.16,0,0,1,.65,2.41c0.53,2.41.16,8.56,0.16,8.56l0.15,0.09a19.49,19.49,0,0,0-3.5-1.59,23.39,23.39,0,0,0-5.5-.72h0.24c-2.31-7-4.29-5.83-4.29-5.83a3.1,3.1,0,0,1,1.76,2.51,10.77,10.77,0,0,0,.84,3.35l0.66,0.11c-3.71.12-7.08,0.75-8.51,2.26h0c-1.29-2.53-2.51-1.67-2.51-1.67a2.11,2.11,0,0,1,1.8,1.75,18.2,18.2,0,0,0-2.43,1.53l3.93-1c-1.43,1.14-.74,5.55-0.74,5.55,0.68-.68-0.24-3.95,2.33-5.76a9.32,9.32,0,0,1,6.57-.6c-1,.82-2.77,2.4-2.62,3.81,0.38,3.12-4.15,5.47-4.15,5.47s4.2-.6,4.88-4a6,6,0,0,1,3.66-4.75,12.83,12.83,0,0,1,5.23,3.32c0.5,0.57,1,1.22,1.59,1.9l-1.59-1.9s-5,.95-6.79,4.84c-0.66,2.88-3.86,3.85-3.86,3.85,2.28,0,4.26-1.22,6-3.59a6.43,6.43,0,0,1,6.25-3.18c0.94,1.16,1.91,2.4,2.77,3.51,0,0-1.25.26-3.47,4.2A7.78,7.78,0,0,1,144,87.94s2.2,1,5.45-1.41c2.15-1.8,2.5-3.23,4.11-3l0.9,1.2a4,4,0,0,0,.48.53L156.75,87c0.06-4.24,4.12-5.63,4.12-5.63A4.85,4.85,0,0,1,157.35,79.82Zm-5.23,1.86,1.43,1.88Z" transform="translate(-10.27 -9.93)"/><path class="cls-4" d="M143.12,64.13c2.39,4.67,1.84,6.47,1.84,6.47l1.61,0.35C145.4,65.64,143.12,64.13,143.12,64.13Z" transform="translate(-10.27 -9.93)"/><ellipse class="cls-4" cx="161.66" cy="87.4" rx="5.11" ry="4.15" transform="translate(32.68 217.77) rotate(-78.16)"/><path d="M162.95,81.27c-2.75-.58-5.56,1.7-6.27,5.09s0.94,6.6,3.7,7.18,5.56-1.7,6.27-5.09S165.7,81.84,162.95,81.27Zm2.77,7c-0.58,2.76-2.87,4.62-5.11,4.15s-3.59-3.09-3-5.85,2.87-4.62,5.11-4.15S166.3,85.49,165.72,88.25Z" transform="translate(-10.27 -9.93)"/><path d="M161.77,81.2s-2-8.71-3.46-11S150.88,59,144.47,61.08a81.56,81.56,0,0,0-13.18,5.27c-3.08,1.62-6.33,5.68-5.62,9,0.07,1.49,2.15,3.51,2.81,5s1.55,3.11,2.25,4.48,3.54,2.47,4.68,2.56,3.12,1.9,3.87,3,3.26,2,5.68,1,5.66-3,8.34-2.86A7.06,7.06,0,0,0,156.75,87s-0.91,2.51-7.08,3.15c-2,0-2.37,1.39-6.63,2.44s-5-2.09-5.4-2.66-4.79-2.43-5.65-2.47-2.46-1.35-3.06-3.28-2.34-5.45-3.85-6.39a8.3,8.3,0,0,0-.47,6.53c1.29,3.47,3.54,8.92,6.2,10.34a52.66,52.66,0,0,1,5.84,3.46,9,9,0,0,0,8.76.92c4.56-1.69,6.28-3.13,9.42-4.61a9.08,9.08,0,0,1,5.56-.89s-6.49,2.18-9.46,5.09c-4.95,2.81-8.07,4.16-11.31,2.56s-8.14-4.75-9.82-4.88-3.87-3.54-5.23-7-5.09-8-1.11-15c1.35-4.73,1.95-8.71,7.86-10.41s12.86-5.8,15.92-5a16.91,16.91,0,0,1,11.08,8.23c3.56,5.92,1.74,8.38,4.64,14.1Z" transform="translate(-10.27 -9.93)"/><path class="cls-4" d="M156.59,88.94a10.94,10.94,0,0,0-4.68,2.79c-1.64,1.94-2.24-1.59-2.24-1.59a2.34,2.34,0,0,0-2.13.64s1.72,1.87,3.33,1.94a9.41,9.41,0,0,1-3.37,2.17A3,3,0,0,0,145,93.43a2.64,2.64,0,0,1-1.4-1l-1.06.25s3,2.2,3,3.07a5,5,0,0,1-6.1-1.09c-0.82-1-2-4.39-3.2-4.17a17.37,17.37,0,0,1,2.22,4.36c0.16,1,1.84,1.6,1.84,1.6s-2.64.5-3.41,0.05a10.4,10.4,0,0,0,4.1,1,3.76,3.76,0,0,1-1.45,2s2.26-.54,2.72-2a8.41,8.41,0,0,0,4.15-.66,3.3,3.3,0,0,1-.31,2.22s1.71-.2,1.8-2.66c0,0,9.49-3.77,10.79-3.45C159.44,93.08,157.1,92.21,156.59,88.94Z" transform="translate(-10.27 -9.93)"/><path class="cls-3" d="M182,93.68s0.17-9.34-4-13-15.58-4.09-15.58-4.09-8-2.39-12.49,4.51c-4.49,3.74-6.49,6.07-6.73,17.47-0.17,3.17,2.53,4.73,2.79,6.1a14.37,14.37,0,0,0,5.43,7.64c3.44,2.4,11.81,1.78,12.79,2s6,1.7,6,1.7l8-8.08Z" transform="translate(-10.27 -9.93)"/><path class="cls-4" d="M175,102.9a16.59,16.59,0,0,1,0-2.08h0c4-2,5.95-8.21,5.95-8.21-2.78,5.8-6.19,5.89-6.19,5.89l0,0a16.81,16.81,0,0,0-1.36-4.85l0.1,0.21c5.71-7.15,4.69-10.87,4.69-10.87a18.75,18.75,0,0,1-.76,2.38c-0.86,2.31-4.51,7.28-4.51,7.28L173,92.83a19.48,19.48,0,0,0-2.08-3.23A23.39,23.39,0,0,0,166.66,86l0.21,0.13c1.86-7.14-.44-7.22-0.44-7.22a3.1,3.1,0,0,1,.12,3.06,10.77,10.77,0,0,0-1.11,3.27L166,85.88c-3.18-1.92-6.45-3.77-8.35-2.54h0c0.3-2.77-1.23-2.94-1.23-2.94a2,2,0,0,1,.55,2.36,23.74,23.74,0,0,0-2.88-.08l3.84,1.26c-1.82.18-3.64,4.24-3.64,4.24,0.94-.2,1.94-3.45,5.08-3.58a9.32,9.32,0,0,1,5.84,3.07c-1.32.12-3.63,0.51-4.27,1.78-1.38,2.83-6.45,2.34-6.45,2.34s3.86,1.78,6.28-.73a6,6,0,0,1,5.65-2A12.83,12.83,0,0,1,169,94.68c0.11,0.75.21,1.59,0.3,2.46L169,94.68s-4.69-1.91-8.33.38c-2.12,2.06-5.33,1.14-5.33,1.14,1.91,1.24,4.24,1.29,7,.24a6.43,6.43,0,0,1,7,.72c0.16,1.48.3,3.06,0.42,4.45,0,0-1.19-.46-5.19,1.64a7.78,7.78,0,0,1-5-.79s1.32,2,5.34,1.78c2.78-.34,3.85-1.35,5.06-0.26,0,0.65.08,1.17,0.1,1.49a4,4,0,0,0,.11.71l0.6,2.42a6.16,6.16,0,0,1,6.44-2.49A5.06,5.06,0,0,1,175,102.9Zm-5.24-1.28c0.07,0.88.13,1.69,0.18,2.36Z" transform="translate(-10.27 -9.93)"/><path class="cls-4" d="M171.69,82c-0.53,5.22-2,6.43-2,6.43l1.16,1.17C172.78,84.51,171.69,82,171.69,82Z" transform="translate(-10.27 -9.93)"/><ellipse class="cls-4" cx="174.62" cy="111.61" rx="5.11" ry="4.15" transform="translate(-37.84 147.19) rotate(-45.27)"/><path d="M179,107.16c-2-2-5.59-1.59-8,.87s-2.79,6.06-.8,8,5.59,1.59,8-.87S181,109.14,179,107.16Zm-1.46,7.37c-2,2-4.92,2.32-6.54.71s-1.34-4.55.65-6.55,4.92-2.32,6.54-.71S179.55,112.53,177.57,114.53Z" transform="translate(-10.27 -9.93)"/><path d="M178.08,106.46s3.08-8.38,3.06-11.11S181,81.9,174.48,80.17a81.56,81.56,0,0,0-13.92-2.73c-3.46-.31-8.4,1.33-9.6,4.5-0.75,1.29-.1,4.12-0.35,5.72s-0.39,3.45-.55,5,1.63,4,2.54,4.69,1.59,3.29,1.61,4.62,1.64,3.46,4.22,3.94,6.39,0.54,8.56,2.13a7.06,7.06,0,0,0,3.73.59s-2.13,1.62-7.65-1.2c-1.66-1.08-2.75-.12-6.89-1.55s-3-4.46-3.09-5.17-2.7-4.64-3.4-5.14-1.33-2.47-.79-4.41,1-5.85.24-7.45a8.3,8.3,0,0,0-3.94,5.23c-0.8,3.62-1.87,9.41-.41,12a52.66,52.66,0,0,1,3,6.08,9,9,0,0,0,6.85,5.52c4.75,1.06,7,.78,10.41,1.25a9.08,9.08,0,0,1,5.15,2.27s-6.63-1.69-10.71-.87c-5.68-.33-9-0.89-10.89-4s-4.26-8.41-5.6-9.43-1.33-5.07-.6-8.7,0.09-9.5,7.23-13.22c3.71-3.24,6.37-6.25,12.25-4.47S175.84,77.5,178,79.86a16.91,16.91,0,0,1,4.83,12.93c-0.23,6.91-3.09,8-3.76,14.37Z" transform="translate(-10.27 -9.93)"/><path class="cls-4" d="M169.52,110.15a10.94,10.94,0,0,0-5.45-.2c-2.43.73-1-2.55-1-2.55a2.34,2.34,0,0,0-2.14-.62s0.43,2.51,1.74,3.44a9.41,9.41,0,0,1-4,0,3,3,0,0,0-1.31-2.6,2.64,2.64,0,0,1-.64-1.59l-1-.36s1.32,3.47.89,4.23a5,5,0,0,1-4.54-4.23c-0.17-1.25.75-4.75-.42-5.24a17.37,17.37,0,0,1-.5,4.86c-0.41.92,0.67,2.34,0.67,2.34s-2.49-1-2.89-1.81a10.4,10.4,0,0,0,2.9,3.06,3.76,3.76,0,0,1-2.29.88s2.19,0.77,3.39-.24a8.41,8.41,0,0,0,3.84,1.7,3.3,3.3,0,0,1-1.46,1.69s1.54,0.76,3-1.25c0,0,10,2,10.93,3C169.67,115.18,168.18,113.17,169.52,110.15Z" transform="translate(-10.27 -9.93)"/><path class="cls-3" d="M105.59,88.65S104,77,98.09,73.38s-20.1-2-20.1-2-10.38-1.4-14.59,8c-4.83,5.51-6.86,8.78-4.93,22.94,0.41,4,4.06,5.37,4.64,7a18,18,0,0,0,8.21,8.41c4.73,2.31,15-.1,16.23,0s7.79,0.93,7.79.93l8.34-11.57Z" transform="translate(-10.27 -9.93)"/><path class="cls-4" d="M98.51,101.4A6.23,6.23,0,0,1,98,98.78h0c5-3.26,5.92-11.3,5.92-11.3C101.6,95.22,97.48,96,97.48,96l0,0.05a20.93,20.93,0,0,0-2.61-5.74l0.17,0.24c5.68-10,3.7-14.37,3.7-14.37a23.11,23.11,0,0,1-.48,3.09c-0.62,3-4.17,9.89-4.17,9.89l0.13,0.19A24.42,24.42,0,0,0,91,85.75a29.32,29.32,0,0,0-5.93-3.63l0.28,0.12c0.92-9.21-2-8.86-2-8.86a3.89,3.89,0,0,1,.74,3.77,13.5,13.5,0,0,0-.74,4.27l0.61,0.26a26.12,26.12,0,0,0-11-1.95h0a2.54,2.54,0,0,0-1.93-3,2.83,2.83,0,0,1,1.22,3,18.48,18.48,0,0,0-3.54.57l5,0.87c-2.22.58-3.67,6-3.67,6,1.12-.43,1.74-4.64,5.6-5.41,2.64-.26,5.43.88,7.84,2.66-1.61.4-4.39,1.34-4.94,3-1.16,3.77-7.54,4.15-7.54,4.15s5.12,1.45,7.63-2.13a7.54,7.54,0,0,1,6.61-3.58,16.09,16.09,0,0,1,4.31,6.47c0.28,0.9.57,1.93,0.86,3l-0.86-3S83.5,91,79.44,94.51c-2.22,3-6.38,2.45-6.38,2.45,2.61,1.16,5.51.77,8.7-1.06a8.06,8.06,0,0,1,8.79-.46c0.49,1.8,1,3.73,1.38,5.44,0,0-1.57-.33-6.11,3a9.75,9.75,0,0,1-6.38,0s2,2.22,7,1.16c3.38-1,4.51-2.42,6.22-1.31,0.18,0.8.33,1.44,0.42,1.83a5.06,5.06,0,0,0,.27.85l1.21,2.88a7.66,7.66,0,0,1,7.41-4.35C99.32,103.43,99.09,102.56,98.51,101.4Zm-6.58-.53c0.26,1.08.49,2.07,0.68,2.89Z" transform="translate(-10.27 -9.93)"/><path class="cls-4" d="M90.55,76.18c0.36,6.57-1.18,8.35-1.18,8.35L91,85.75C92.39,79.08,90.55,76.18,90.55,76.18Z" transform="translate(-10.27 -9.93)"/><ellipse class="cls-4" cx="99.94" cy="112.29" rx="6.41" ry="5.2" transform="translate(-59.87 117.76) rotate(-54.21)"/><path d="M104.54,105.91c-2.86-2.06-7.23-.88-9.77,2.64s-2.28,8,.58,10.11,7.23,0.88,9.77-2.64S107.4,108,104.54,105.91Zm-0.38,9.42c-2.07,2.87-5.64,3.83-8,2.15s-2.54-5.37-.47-8.24,5.64-3.83,8-2.15S106.23,112.46,104.16,115.33Z" transform="translate(-10.27 -9.93)"/><path d="M103.22,105.23s2.18-11,1.63-14.36-2.8-16.62-11.21-17.49a102.25,102.25,0,0,0-17.78-.67c-4.35.29-10.14,3.29-11,7.44-0.68,1.74.68,5.12,0.68,7.15s0.19,4.35.29,6.28,2.8,4.64,4.06,5.31,2.61,3.77,2.9,5.41,2.71,4,6,4.06,8-.58,11,1a8.84,8.84,0,0,0,4.73,0s-2.32,2.42-9.71,0c-2.27-1-3.43.39-8.84-.58s-4.64-4.93-4.83-5.8-4.25-5.22-5.22-5.7-2.13-2.8-1.84-5.31,0.1-7.44-1.16-9.28a10.41,10.41,0,0,0-3.86,7.25c-0.29,4.64-.48,12,1.84,15a66,66,0,0,1,4.93,6.94c0.87,1.55,3.48,5.12,9.57,5.51s8.79-.39,13.14-0.48a11.38,11.38,0,0,1,6.82,1.8s-8.54-.81-13.43,1c-7.1.7-11.36,0.66-14.26-2.82s-6.91-9.59-8.77-10.59-2.63-6-2.44-10.66-1.74-11.79,6.38-17.78c4-4.73,6.67-9,14.3-7.92s17.68-.1,20.77,2.42a21.2,21.2,0,0,1,8.5,15.07c1.06,8.6-2.27,10.49-1.86,18.52Z" transform="translate(-10.27 -9.93)"/><path class="cls-4" d="M93.35,111.47s-3.92-.57-6.79.82-1.76-3-1.76-3A2.93,2.93,0,0,0,82,109s1,3,2.82,3.92a11.8,11.8,0,0,1-5,.77s0.06-1.61-2.13-3a3.31,3.31,0,0,1-1.1-1.85l-1.34-.25s2.31,4,1.92,5.07c0,0-5,.45-6.44-4.35-0.45-1.51,0-6-1.55-6.41,0,0,.77,4.25.32,6.12-0.32,1.22,1.29,2.77,1.29,2.77s-3.29-.77-3.93-1.67c0,0,2.25,2.58,4.19,3.22a4.71,4.71,0,0,1-2.67,1.53s2.86,0.53,4.15-1a10.55,10.55,0,0,0,5.09,1.35,4.14,4.14,0,0,1-1.48,2.38s2.06,0.64,3.41-2.13c0,0,12.79.52,14.12,1.55C94.51,117.67,92.27,115.47,93.35,111.47Z" transform="translate(-10.27 -9.93)"/><path class="cls-3" d="M99.82,108.8s9.16,7.29,16,5.88,15.95-12.4,15.95-12.4,8.48-6.15,5-15.87c-0.3-7.32-1.09-11.09-12.26-20-3-2.58-6.64-1.09-8.19-1.87a18,18,0,0,0-11.74-.42c-5,1.6-10.77,10.4-11.75,11.2S86.52,80,86.52,80l1.94,14.13Z" transform="translate(-10.27 -9.93)"/><path class="cls-4" d="M95.89,94.93a9.05,9.05,0,0,1,1.92,1.79h0c-1,5.44,3.76,12,3.76,12C97.92,101.54,100.48,98,100.48,98V97.92a21.2,21.2,0,0,0,5.88,2.33l-0.28-.07c2.77,11.14,7.25,12.95,7.25,12.95a24,24,0,0,1-1.78-2.57c-1.64-2.62-3.8-10-3.8-10l-0.22,0a24.43,24.43,0,0,0,4.81.39,29.33,29.33,0,0,0,6.8-1.47l-0.29.11c5.69,7.3,7.52,5.07,7.52,5.07a3.89,3.89,0,0,1-3.14-2.22,13.5,13.5,0,0,0-2.41-3.6l-0.62.24a26.12,26.12,0,0,0,9.3-6.17h0a2.54,2.54,0,0,0,3.46.83,2.83,2.83,0,0,1-3-1.35,18.48,18.48,0,0,0,2.17-2.85l-4.24,2.84c1.21-2-1.48-6.87-1.48-6.87-0.51,1.09,1.94,4.56-.32,7.78-1.73,2-4.53,3.11-7.51,3.48,0.88-1.4,2.26-4,1.48-5.6-1.76-3.53,2.59-8.21,2.59-8.21s-4.71,2.48-4.06,6.8a7.54,7.54,0,0,1-2.32,7.15,16.09,16.09,0,0,1-7.58-1.72c-0.83-.46-1.74-1-2.68-1.58l2.68,1.58s5.48-3.22,6-8.58c-0.44-3.68,2.93-6.17,2.93-6.17-2.69,1-4.52,3.24-5.56,6.77a8.06,8.06,0,0,1-6,6.4c-1.6-1-3.27-2-4.75-3,0,0,1.37-.84,2.32-6.42a9.75,9.75,0,0,1,4.62-4.4s-3-.21-5.84,4c-1.78,3-1.59,4.87-3.6,5.24l-1.56-1a5.06,5.06,0,0,0-.79-0.43l-2.86-1.25c1.72,5-2.49,8.38-2.49,8.38C94,93.89,94.67,94.49,95.89,94.93Zm5.39-4.4-2.49-1.62Z" transform="translate(-10.27 -9.93)"/><path class="cls-4" d="M119.31,107.44c-4.79-4.51-4.91-6.86-4.91-6.86l-2,.27C116,106.62,119.31,107.44,119.31,107.44Z" transform="translate(-10.27 -9.93)"/><ellipse class="cls-4" cx="87.59" cy="87.79" rx="5.2" ry="6.41" transform="translate(-21.42 2.83) rotate(-7.83)"/><path d="M88.66,95.58c3.49-.48,5.84-4.36,5.25-8.66S90,79.52,86.52,80s-5.84,4.36-5.25,8.66S85.17,96.06,88.66,95.58ZM82.44,88.5C82,85,83.87,81.84,86.72,81.44s5.54,2.13,6,5.64-1.43,6.66-4.28,7.06S82.92,92,82.44,88.5Z" transform="translate(-10.27 -9.93)"/><path d="M90.09,95.16s6,9.45,8.73,11.52,13.5,10.1,20.18,4.93a102.25,102.25,0,0,0,13.33-11.78c2.95-3.21,5.08-9.38,2.84-13-0.71-1.73-4-3.24-5.42-4.71s-3.14-3-4.54-4.35-5.23-1.42-6.6-1-4.49-.93-5.83-1.92-4.69-1-7.14,1.2-5.4,6-8.64,6.9a8.84,8.84,0,0,0-3.43,3.27s0-3.35,7-6.7c2.35-.83,2.21-2.64,6.8-5.68s6.76,0.37,7.5.86,6.68,0.84,7.71.53,3.47,0.56,5,2.58,5.06,5.45,7.24,5.91a10.41,10.41,0,0,0-2.2-7.91c-3-3.56-7.95-9-11.68-9.59a66,66,0,0,1-8.35-1.62c-1.7-.52-6.05-1.31-10.72,2.61s-6.1,6.35-9.18,9.42A11.38,11.38,0,0,1,86.52,80s6.74-5.31,9-10c4.66-5.41,7.77-8.32,12.27-7.8s11.62,2.18,13.66,1.62,6.06,2.55,9.12,6,9.39,7.33,7.65,17.27c0.4,6.16,1.37,11.1-4.88,15.6s-12.73,12.27-16.7,12.58a21.2,21.2,0,0,1-16.55-5c-6.7-5.49-5.59-9.16-11.43-14.69Z" transform="translate(-10.27 -9.93)"/><path class="cls-4" d="M92.93,83.83s3.23-2.3,4.35-5.27,3.32,0.93,3.32.93a2.93,2.93,0,0,0,2.25-1.66s-2.82-1.48-4.75-.89a11.8,11.8,0,0,1,3.06-4s1.06,1.21,3.58.68a3.31,3.31,0,0,1,2.07.58l1.14-.74s-4.46-1.33-4.89-2.34c0,0,3.28-3.75,7.66-1.29,1.37,0.78,4.16,4.36,5.54,3.57,0,0-3.49-2.54-4.46-4.21C111.2,68.1,109,68.09,109,68.09s2.91-1.71,4-1.5c0,0-3.41-.31-5.25.56a4.71,4.71,0,0,1,.87-3s-2.43,1.59-2.34,3.55a10.55,10.55,0,0,0-4.62,2.53,4.14,4.14,0,0,1-.57-2.75s-1.94,1-1,3.89c0,0-9.61,8.45-11.29,8.62C87.82,80.15,90.95,80.19,92.93,83.83Z" transform="translate(-10.27 -9.93)"/><path class="cls-3" d="M165.24,119.36s3-11.32-1.06-17-17.78-9.59-17.78-9.59-9.05-5.28-16.55,1.8c-6.58,3.23-9.71,5.47-13.36,19.29-1.14,3.81,1.69,6.51,1.59,8.25a18,18,0,0,0,4.35,10.92c3.49,3.95,13.86,5.66,15,6.23s6.83,3.85,6.83,3.85l12.15-7.48Z" transform="translate(-10.27 -9.93)"/><path class="cls-4" d="M154.14,128.56a9.05,9.05,0,0,1,.86-2.48h0c5.37-1.3,9.48-8.29,9.48-8.29-5.11,6.25-9.38,5.32-9.38,5.32l-0.08,0a21.2,21.2,0,0,0-.25-6.32l0,0.28c9.07-7,8.92-11.86,8.92-11.86a24,24,0,0,1-1.64,2.67c-1.73,2.56-7.65,7.53-7.65,7.53l0,0.22a24.43,24.43,0,0,0-1.58-4.56,29.33,29.33,0,0,0-4.09-5.63l0.21,0.22c4.38-8.15,1.6-8.93,1.6-8.93a3.89,3.89,0,0,1-.76,3.76,13.5,13.5,0,0,0-2.32,3.65l0.47-.06a29.63,29.63,0,0,0-9.4-6.56h0a2,2,0,0,0-.64-3,3.3,3.3,0,0,1,0,3.53,12.66,12.66,0,0,0-3.48-.7l4.31,2.8c-2.27-.32-5.69,4.15-5.69,4.15,1.2,0,3.39-3.6,7.25-2.83,2.53,0.77,4.67,2.9,6.21,5.48-1.64-.24-4.57-0.45-5.72.91-2.52,3-8.55.94-8.55,0.94s4.17,3.31,7.86,1a7.54,7.54,0,0,1,7.48-.76,16.09,16.09,0,0,1,1.49,7.63c-0.09.94-.22,2-0.36,3.09l0.36-3.09s-5.15-3.71-10.26-2c-3.19,1.88-6.83-.19-6.83-0.19,2,2.07,4.79,2.83,8.44,2.36a8.06,8.06,0,0,1,8.29,2.95c-0.24,1.85-.54,3.81-0.81,5.55,0,0-1.32-.91-6.81.47a9.75,9.75,0,0,1-5.89-2.45s1,2.83,6,3.74c3.49,0.41,5.09-.51,6.24,1.18-0.14.81-.25,1.46-0.32,1.85a5.06,5.06,0,0,0-.08.89v3.12c3.91-3.61,8.67-1.1,8.67-1.1C153.94,130.67,154.23,129.85,154.14,128.56Zm-6.2-3.15c-0.17,1.1-.34,2.1-0.48,2.93Z" transform="translate(-10.27 -9.93)"/><path class="cls-4" d="M156.15,102.08c-2.19,6.2-4.29,7.25-4.29,7.25l1.07,1.77C156.73,105.46,156.15,102.08,156.15,102.08Z" transform="translate(-10.27 -9.93)"/><ellipse class="cls-4" cx="150.96" cy="139.03" rx="6.41" ry="5.2" transform="translate(-60.76 89.87) rotate(-31.62)"/><path d="M157.65,134.91c-1.85-3-6.34-3.59-10-1.31s-5.19,6.55-3.35,9.55,6.34,3.59,10,1.31S159.5,137.91,157.65,134.91Zm-4,8.55c-3,1.86-6.68,1.38-8.18-1.07s-0.28-5.93,2.73-7.79,6.68-1.38,8.18,1.07S156.7,141.6,153.68,143.46Z" transform="translate(-10.27 -9.93)"/><path d="M156.69,133.77s6.23-9.3,7-12.63,3.8-16.42-3.63-20.45a102.25,102.25,0,0,0-16.16-7.45c-4.13-1.4-10.63-.86-13,2.64-1.29,1.35-1.34,5-2.12,6.86s-1.49,4.09-2.14,5.91,0.81,5.36,1.71,6.46,1,4.48.6,6.11,1,4.7,4,6,7.63,2.54,9.8,5.12a8.84,8.84,0,0,0,4.37,1.82s-3.07,1.34-9-3.73c-1.71-1.81-3.31-1-7.94-3.93s-2.39-6.33-2.23-7.21-1.92-6.45-2.63-7.27-0.89-3.4.35-5.61,2.95-6.83,2.49-9a10.41,10.41,0,0,0-6.35,5.21c-2,4.17-5.06,10.92-4.06,14.55a66,66,0,0,1,1.89,8.3c0.21,1.76,1.25,6.06,6.72,8.76s8.27,3,12.32,4.6a11.38,11.38,0,0,1,5.6,4.29s-7.58-4-12.79-4.22c-6.83-2.08-10.74-3.75-12.08-8.08s-2.7-11.51-4-13.15-0.12-6.57,1.84-10.78,2.92-11.55,12.71-14c5.48-2.85,9.61-5.74,16.25-1.82s16.36,6.7,18.25,10.21a21.2,21.2,0,0,1,2.06,17.18c-2.32,8.35-6.12,8.81-8.83,16.39Z" transform="translate(-10.27 -9.93)"/><path class="cls-4" d="M145.18,135.74s-3.4-2-6.58-1.85-0.48-3.41-.48-3.41a2.93,2.93,0,0,0-2.43-1.39s-0.22,3.18,1.1,4.71a11.8,11.8,0,0,1-4.88-1.19s0.68-1.46-.82-3.55a3.31,3.31,0,0,1-.3-2.13l-1.14-.75s0.58,4.62-.17,5.42c0,0-4.75-1.49-4.28-6.49,0.16-1.57,2.31-5.56,1-6.51,0,0-.92,4.22-2.05,5.77-0.77,1,.13,3.05.13,3.05s-2.74-2-3-3.06c0,0,1.09,3.24,2.63,4.58a4.71,4.71,0,0,1-3.05.39s2.44,1.59,4.2.71a10.55,10.55,0,0,0,4.18,3.2,4.14,4.14,0,0,1-2.28,1.63s1.66,1.39,4-.65c0,0,11.61,5.39,12.44,6.85C143.87,141.91,142.65,139,145.18,135.74Z" transform="translate(-10.27 -9.93)"/><path class="cls-3" d="M122.26,155.92s9.58-4.83,11-11-4.2-18-4.2-18-1.87-9.42-11.28-10.27c-6.21-2.56-9.65-3.34-21.36,2.53-3.31,1.53-3.45,5.11-4.7,6.1a16.52,16.52,0,0,0-4.85,9.62c-0.6,4.79,4.53,13,4.82,14.08s1.5,7,1.5,7l12.51,3.8Z" transform="translate(-10.27 -9.93)"/><path class="cls-4" d="M109.21,153.87a8.29,8.29,0,0,1,2.22-.92h0c4.15,2.9,11.45,1.48,11.45,1.48-7.39.28-9.35-3.21-9.35-3.21l-0.06,0a19.43,19.43,0,0,0,4.19-4l-0.17.2c10.33,2,13.56-1.07,13.56-1.07a22,22,0,0,1-2.83.49c-2.81.36-9.81-.68-9.81-0.68l-0.12.16a22.39,22.39,0,0,0,2.17-3.85,26.88,26.88,0,0,0,1.38-6.22l0,0.28c8.26-1.94,7.1-4.32,7.1-4.32a3.57,3.57,0,0,1-3,1.76,12.37,12.37,0,0,0-3.92.62l0,0.61a23.94,23.94,0,0,0-1.57-10.11h0a2.32,2.32,0,0,0,2-2.56,2.6,2.6,0,0,1-2.27,2,16.94,16.94,0,0,0-1.54-2.9l0.74,4.61c-1.16-1.75-6.28-1.41-6.28-1.41,0.71,0.84,4.54.13,6.35,3.25a10.72,10.72,0,0,1,0,7.58c-0.83-1.27-2.46-3.41-4.1-3.38-3.61.11-5.84-5.3-5.84-5.3s0.26,4.87,4.11,6a6.91,6.91,0,0,1,5.06,4.67,14.74,14.74,0,0,1-4.34,5.65c-0.7.51-1.5,1.06-2.34,1.63l2.34-1.63s-0.58-5.79-4.86-8.26c-3.23-1-4-4.8-4-4.8-0.23,2.61,1,5,3.5,7.22a7.39,7.39,0,0,1,3,7.48c-1.42,1-2.94,1.95-4.3,2.81,0,0-.18-1.46-4.46-4.39a8.94,8.94,0,0,1-1.89-5.53s-1.33,2.42,1.06,6.38c1.84,2.65,3.44,3.19,3,5l-1.46.9a4.64,4.64,0,0,0-.66.49l-2.14,1.9c4.85,0.49,6,5.29,6,5.29A5.57,5.57,0,0,1,109.21,153.87Zm-1.6-6.17-2.3,1.45Z" transform="translate(-10.27 -9.93)"/><path class="cls-4" d="M128.61,139.18c-5.59,2.26-7.59,1.45-7.59,1.45l-0.56,1.81C126.64,141.64,128.61,139.18,128.61,139.18Z" transform="translate(-10.27 -9.93)"/><ellipse class="cls-4" cx="100.08" cy="158.04" rx="4.77" ry="5.87" transform="translate(-90.51 197.91) rotate(-73.09)"/><path d="M107,160.13c0.94-3.09-1.38-6.53-5.19-7.69s-7.65.41-8.59,3.5,1.38,6.53,5.19,7.69S106,163.22,107,160.13ZM98.7,162.6c-3.1-.94-5-3.75-4.23-6.27s3.9-3.8,7-2.85,5,3.75,4.23,6.27S101.8,163.54,98.7,162.6Z" transform="translate(-10.27 -9.93)"/><path d="M107.18,158.79s10.17-1.37,12.94-2.85S133.7,148.58,132,141a93.7,93.7,0,0,0-4.69-15.62c-1.54-3.68-5.86-7.82-9.72-7.34-1.71-.07-4.24,2.11-6,2.71s-3.71,1.46-5.36,2.11-3.19,3.81-3.4,5.1-2.49,3.38-3.83,4.12-2.63,3.52-1.74,6.4,2.88,6.78,2.43,9.84a8.11,8.11,0,0,0,1.4,4.11s-2.78-1.3-2.88-8.42c0.21-2.27-1.35-2.86-2.12-7.84s2.9-5.48,3.59-5.91,3.26-5.23,3.4-6.22,1.8-2.67,4.06-3.17,6.48-2.12,7.7-3.76a9.54,9.54,0,0,0-7.43-1.2c-4.11,1.12-10.57,3.15-12.46,6a60.5,60.5,0,0,1-4.55,6.33c-1.08,1.21-3.41,4.54-1.94,9.93s2.94,7.51,4.32,11.25a10.43,10.43,0,0,1,.46,6.45s-1.84-7.65-4.86-11.35c-2.72-5.95-3.94-9.65-1.79-13.2s6.27-8.84,6.58-10.75,4.44-4.07,8.52-5.28,9.71-5,17.31.26c5.28,2,9.77,3.12,11.11,10s5.33,15.3,4.07,18.73a19.43,19.43,0,0,1-10.55,11.84c-7.14,3.47-9.77,1.14-16.61,3.88Z" transform="translate(-10.27 -9.93)"/><path class="cls-4" d="M98.84,152.08a12.56,12.56,0,0,0-2.72-5.64c-2-2.08,2.05-2.4,2.05-2.4a2.69,2.69,0,0,0-.52-2.51s-2.32,1.78-2.56,3.61a10.82,10.82,0,0,1-2.14-4.07s1.42-.42,1.94-2.72a3,3,0,0,1,1.28-1.5L96,135.6s-2.82,3.2-3.82,3.17A5.73,5.73,0,0,1,94,131.9c1.18-.84,5.22-1.79,5.1-3.24,0,0-3.46,1.93-5.21,2.09-1.16.08-2,1.94-2,1.94s-0.3-3.08.29-3.9c0,0-1.57,2.72-1.55,4.59a4.32,4.32,0,0,1-2.12-1.86s0.39,2.64,2.06,3.31a9.66,9.66,0,0,0,.34,4.81,3.79,3.79,0,0,1-2.51-.58s0.05,2,2.86,2.33c0,0,3.35,11.24,2.85,12.7C93.81,154.92,95,152.33,98.84,152.08Z" transform="translate(-10.27 -9.93)"/><path class="cls-3" d="M68.13,101.23S57.43,100.45,53,105s-5.66,17.62-5.66,17.62-3.24,9,4.4,14.61c4,5.38,6.56,7.83,19.62,8.81,3.62,0.39,5.59-2.61,7.17-2.82a16.52,16.52,0,0,0,9.11-5.75c3-3.8,2.78-13.44,3.11-14.55s2.33-6.8,2.33-6.8l-8.78-9.69Z" transform="translate(-10.27 -9.93)"/><path class="cls-4" d="M78.28,109.69a8.29,8.29,0,0,1-2.38-.36h0c-2.07-4.62-9.06-7.15-9.06-7.15,6.48,3.56,6.37,7.56,6.37,7.56l0,0.06a19.43,19.43,0,0,0-5.65,1.28l0.25-.09c-7.85-7-12.18-6.05-12.18-6.05a22,22,0,0,1,2.68,1c2.6,1.13,8.07,5.63,8.07,5.63l0.19-.08a22.39,22.39,0,0,0-3.84,2.19,26.88,26.88,0,0,0-4.39,4.62l0.16-.23c-8.08-2.58-8.31.05-8.31,0.05a3.57,3.57,0,0,1,3.52.06,12.37,12.37,0,0,0,3.68,1.48l0.35-.5a23.94,23.94,0,0,0-3.85,9.48h0a2.32,2.32,0,0,0-3,1.16,2.6,2.6,0,0,1,2.95-.51,16.94,16.94,0,0,0-.17,3.28l1.74-4.34c0.09,2.1,4.67,4.44,4.67,4.44-0.17-1.09-3.82-2.45-3.78-6.06a10.72,10.72,0,0,1,3.89-6.51c0.06,1.52.36,4.19,1.78,5,3.16,1.76,2.28,7.55,2.28,7.55s2.28-4.31-.44-7.25a6.91,6.91,0,0,1-1.94-6.61,14.74,14.74,0,0,1,6.63-2.62c0.86-.08,1.84-0.14,2.85-0.2l-2.85.2s-2.48,5.26-.08,9.58c2.23,2.56,1,6.18,1,6.18,1.54-2.12,1.75-4.79.71-8a7.39,7.39,0,0,1,1.27-8c1.71-.09,3.52-0.16,5.14-0.2,0,0-.6,1.34,1.56,6.06a8.94,8.94,0,0,1-1.22,5.72s2.38-1.39,2.37-6c-0.22-3.22-1.31-4.51,0-5.82l1.72,0a4.64,4.64,0,0,0,.82-0.08l2.81-.53c-3.9-2.92-2.45-7.63-2.45-7.63A5.57,5.57,0,0,1,78.28,109.69Zm-1.8,6.11,2.72-.06Z" transform="translate(-10.27 -9.93)"/><path class="cls-4" d="M54.08,112.32c6,0.93,7.26,2.65,7.26,2.65l1.41-1.26C57,111.23,54.08,112.32,54.08,112.32Z" transform="translate(-10.27 -9.93)"/><ellipse class="cls-4" cx="88.24" cy="110.81" rx="4.77" ry="5.87" transform="translate(-61.82 77.97) rotate(-42.16)"/><path d="M83.41,105.47c-2.39,2.17-2.17,6.32.5,9.26s6.78,3.58,9.17,1.41,2.17-6.32-.5-9.26S85.8,103.3,83.41,105.47Zm8.37,2.14c2.18,2.4,2.36,5.78.41,7.55s-5.3,1.25-7.47-1.15-2.36-5.78-.41-7.55S89.6,105.21,91.78,107.61Z" transform="translate(-10.27 -9.93)"/><path d="M82.54,106.52s-9.42-4.05-12.56-4.21-15.43-.67-17.82,6.7a93.7,93.7,0,0,0-4,15.8c-0.57,4,1,9.72,4.56,11.3,1.43,0.94,4.72.37,6.54,0.76s3.93,0.66,5.68.94,4.69-1.62,5.54-2.62,3.88-1.62,5.4-1.56S80,132,80.67,129s1-7.3,3-9.69a8.11,8.11,0,0,0,.91-4.24s1.72,2.54-1.86,8.7c-1.35,1.84-.31,3.15-2.21,7.81s-5.3,3.21-6.12,3.22-5.49,2.81-6.11,3.59-2.92,1.37-5.11.63-6.65-1.51-8.54-.74a9.54,9.54,0,0,0,5.76,4.85c4.1,1.15,10.68,2.73,13.79,1.22a60.5,60.5,0,0,1,7.16-3.09c1.55-.48,5.26-2.14,6.77-7.52s1.34-8,2.08-11.87a10.43,10.43,0,0,1,2.92-5.77s-2.36,7.5-1.66,12.23c-0.73,6.5-1.58,10.31-5.25,12.24S76.24,145,75,146.46s-5.9,1.21-10,.15-10.9-.7-14.71-9.12c-3.49-4.46-6.78-7.69-4.37-14.33S49.18,107.29,52,105a19.43,19.43,0,0,1,15.14-4.74c7.91,0.69,9,4,16.25,5.21Z" transform="translate(-10.27 -9.93)"/><path class="cls-4" d="M86.25,116.57a12.56,12.56,0,0,0-.57,6.24c0.69,2.83-3,1-3,1a2.69,2.69,0,0,0-.84,2.42s2.9-.34,4.06-1.78a10.82,10.82,0,0,1-.26,4.59s-1.43-.37-3.06,1.34a3,3,0,0,1-1.87.63l-0.48,1.15s4.06-1.3,4.91-.75A5.73,5.73,0,0,1,80,136.35c-1.44.11-5.4-1.15-6,.16,0,0,4,.12,5.55.88,1,0.52,2.73-.62,2.73-0.62s-1.32,2.8-2.25,3.2c0,0,2.74-1.53,3.69-3.14a4.32,4.32,0,0,1,.86,2.68s1-2.46-.06-3.9a9.66,9.66,0,0,0,2.19-4.3,3.79,3.79,0,0,1,1.85,1.78s1-1.72-1.25-3.47c0,0,2.91-11.36,4.09-12.36C92,116.71,89.63,118.29,86.25,116.57Z" transform="translate(-10.27 -9.93)"/><path class="cls-3" d="M150.5,164.48s6.83-9.51,5.09-16.23-13.17-15.32-13.17-15.32-6.56-8.17-16.1-4.24c-7.3.66-11,1.64-19.38,13.23-2.43,3.15-.76,6.69-1.47,8.28a18,18,0,0,0,.16,11.75c1.84,4.93,10.92,10.25,11.76,11.18s5,6,5,6l14-2.64Z" transform="translate(-10.27 -9.93)"/><path class="cls-4" d="M136.84,169.09a9.05,9.05,0,0,1,1.69-2h0c5.48,0.71,11.82-4.35,11.82-4.35-7,4-10.66,1.61-10.66,1.61H139.6a21.2,21.2,0,0,0,2-6l-0.06.28c11-3.32,12.57-7.88,12.57-7.88a24,24,0,0,1-2.48,1.9c-2.53,1.77-9.84,4.29-9.84,4.29l0,0.22a24.43,24.43,0,0,0,.16-4.82,29.33,29.33,0,0,0-1.8-6.72l0.12,0.28c7-6,4.69-7.77,4.69-7.77a3.89,3.89,0,0,1-2.06,3.24,13.5,13.5,0,0,0-3.48,2.58l0.25,0.66a25.14,25.14,0,0,0-6.64-8.94h0c2.07-2.07.67-3.54,0.67-3.54a2.8,2.8,0,0,1-1.2,3,19.26,19.26,0,0,0-2.95-2l3,4.09c-2-1.11-6.79,1.81-6.79,1.81,1.11,0.46,4.46-2.16,7.79-.06,2.09,1.62,3.33,4.37,3.84,7.33-1.44-.81-4.1-2.06-5.67-1.2-3.44,1.93-8.32-2.18-8.32-2.18s2.71,4.58,7,3.72a7.54,7.54,0,0,1,7.26,2,16.09,16.09,0,0,1-1.34,7.66c-0.42.85-.92,1.79-1.44,2.76l1.44-2.76s-3.48-5.31-8.87-5.54c-3.65.62-6.31-2.62-6.31-2.62,1.09,2.64,3.46,4.35,7,5.22a8.06,8.06,0,0,1,6.69,5.72c-0.89,1.64-1.86,3.37-2.74,4.89,0,0-.91-1.32-6.53-2a9.75,9.75,0,0,1-4.62-4.39s-0.06,3,4.24,5.63c3.12,1.63,4.94,1.35,5.41,3.33l-1,1.61a5.06,5.06,0,0,0-.39.81l-1.11,2.92c4.94-2,8.49,2.07,8.49,2.07C135.89,171,136.46,170.33,136.84,169.09Zm-4.66-5.16c-0.56,1-1.07,1.84-1.49,2.56Z" transform="translate(-10.27 -9.93)"/><path class="cls-4" d="M148.18,145.08c-4.27,5-6.61,5.24-6.61,5.24l0.37,2C147.52,148.45,148.18,145.08,148.18,145.08Z" transform="translate(-10.27 -9.93)"/><ellipse class="cls-4" cx="130.12" cy="177.72" rx="6.41" ry="5.2" transform="translate(-40.89 17.2) rotate(-10.66)"/><path d="M137.84,176.27c-0.65-3.46-4.64-5.62-8.9-4.82s-7.2,4.26-6.54,7.72,4.64,5.62,8.9,4.82S138.49,179.73,137.84,176.27Zm-6.76,6.56c-3.48.65-6.73-1.1-7.26-3.93s1.86-5.64,5.33-6.3,6.73,1.1,7.26,3.93S134.56,182.18,131.08,182.83Z" transform="translate(-10.27 -9.93)"/><path d="M137.36,174.87s9.14-6.46,11.08-9.29,9.42-14,3.93-20.4a102.25,102.25,0,0,0-12.42-12.74c-3.35-2.79-9.62-4.61-13.11-2.2-1.69.79-3,4.18-4.44,5.65s-2.86,3.28-4.12,4.75-1.16,5.29-.72,6.65-0.71,4.53-1.63,5.92-0.77,4.74,1.55,7.07,6.21,5.11,7.32,8.29a8.84,8.84,0,0,0,3.43,3.26s-3.35.15-7-6.69c-0.94-2.3-2.75-2.08-6-6.51s0-6.77.49-7.53,0.51-6.71.15-7.73,0.39-3.5,2.33-5.12,5.2-5.33,5.55-7.52a10.41,10.41,0,0,0-7.79,2.59c-3.41,3.16-8.63,8.38-9,12.13a66,66,0,0,1-1.21,8.42c-0.43,1.72-1,6.11,3.14,10.58s6.64,5.78,9.86,8.7a11.38,11.38,0,0,1,3.7,6s-5.64-6.47-10.43-8.52c-5.63-4.38-8.69-7.35-8.39-11.87s1.6-11.71.94-13.72,2.24-6.18,5.58-9.41,6.86-9.74,16.87-8.49c6.13-.7,11-1.92,15.82,4.11s12.88,12.11,13.39,16.06A21.2,21.2,0,0,1,152,164.13c-5.15,7-8.87,6-14.11,12.14Z" transform="translate(-10.27 -9.93)"/><path class="cls-4" d="M125.9,172.59s-2.45-3.11-5.48-4.08,0.77-3.36.77-3.36a2.93,2.93,0,0,0-1.77-2.16s-1.34,2.89-.66,4.79a11.8,11.8,0,0,1-4.13-2.86s1.16-1.12.5-3.61a3.31,3.31,0,0,1,.48-2.1l-0.8-1.11s-1.11,4.52-2.1,5c0,0-3.9-3.09-1.67-7.59,0.72-1.41,4.15-4.36,3.3-5.71,0,0-2.37,3.61-4,4.66-1.08.67-1,2.9-1,2.9s-1.85-2.82-1.69-3.92c0,0-.14,3.42.82,5.22a4.71,4.71,0,0,1-3-.73s1.71,2.35,3.67,2.17a10.55,10.55,0,0,0,2.76,4.49,4.14,4.14,0,0,1-2.72.71s1.05,1.89,3.94.81c0,0,8.91,9.18,9.17,10.85C122.47,177.88,122.36,174.75,125.9,172.59Z" transform="translate(-10.27 -9.93)"/><path class="cls-3" d="M106.91,138.36s-7.72-8.8-14.66-8.62-17.9,9.37-17.9,9.37-9.44,4.55-7.77,14.72c-1,7.26-.89,11.11,8.51,21.87,2.52,3.07,6.34,2.25,7.73,3.3a18,18,0,0,0,11.48,2.5c5.22-.68,12.45-8.32,13.55-8.93s7-3.51,7-3.51l0.6-14.25Z" transform="translate(-10.27 -9.93)"/><path class="cls-4" d="M108.32,152.7a9.05,9.05,0,0,1-1.58-2.1h0c1.93-5.18-1.57-12.5-1.57-12.5,2.32,7.73-.84,10.75-0.84,10.75l0,0.08a21.2,21.2,0,0,0-5.38-3.33l0.26,0.12c-0.75-11.45-4.83-14-4.83-14a24,24,0,0,1,1.29,2.85c1.15,2.87,2,10.55,2,10.55l0.21,0.08a24.43,24.43,0,0,0-4.66-1.24,29.33,29.33,0,0,0-6.95.24l0.3-.06c-4.3-8.19-6.5-6.32-6.5-6.32a3.89,3.89,0,0,1,2.69,2.74,13.5,13.5,0,0,0,1.73,4l0.7-.09a25.14,25.14,0,0,0-10.21,4.45h0c-1.55-2.49-3.29-1.45-3.29-1.45a2.8,2.8,0,0,1,2.67,1.85,19.26,19.26,0,0,0-2.65,2.41l4.67-2c-1.54,1.71.23,7,.23,7,0.7-1-1.1-4.83,1.7-7.6,2.06-1.67,5-2.25,8-2.09-1.12,1.22-2.93,3.53-2.45,5.25,1.11,3.78-4,7.62-4,7.62s5.07-1.61,5.2-6a7.54,7.54,0,0,1,3.55-6.62,16.09,16.09,0,0,1,7.16,3c0.73,0.6,1.54,1.3,2.36,2l-2.36-2s-6,2.19-7.4,7.39c-0.22,3.7-4,5.55-4,5.55,2.82-.47,5-2.39,6.68-5.67a8.06,8.06,0,0,1,7.08-5.22c1.4,1.24,2.86,2.58,4.15,3.78,0,0-1.49.58-3.42,5.91a9.75,9.75,0,0,1-5.32,3.51s2.92,0.74,6.45-2.86c2.29-2.67,2.43-4.51,4.47-4.51l1.36,1.3a5.06,5.06,0,0,0,.7.56l2.59,1.74c-0.8-5.26,3.94-7.8,3.94-7.8C110,154.05,109.44,153.35,108.32,152.7Zm-6.08,3.37,2.16,2Z" transform="translate(-10.27 -9.93)"/><path class="cls-4" d="M87.5,136.23c3.92,5.29,3.61,7.62,3.61,7.62l2.06,0.1C90.63,137.63,87.5,136.23,87.5,136.23Z" transform="translate(-10.27 -9.93)"/><ellipse class="cls-4" cx="115.21" cy="161.2" rx="6.41" ry="5.2" transform="translate(-60.95 259.63) rotate(-87.6)"/><path d="M115.54,153.35c-3.52-.15-6.52,3.25-6.71,7.59s2.52,8,6,8.12,6.52-3.25,6.71-7.59S119.06,153.5,115.54,153.35Zm4.87,8.07c-0.15,3.54-2.6,6.3-5.47,6.18s-5.08-3.08-4.93-6.62,2.6-6.3,5.47-6.18S120.56,157.88,120.41,161.42Z" transform="translate(-10.27 -9.93)"/><path d="M114.07,153.5s-4.22-10.37-6.54-12.89-11.49-12.34-19-8.43a102.25,102.25,0,0,0-15.21,9.22c-3.47,2.63-6.66,8.33-5.1,12.27,0.39,1.82,3.38,3.9,4.5,5.6s2.55,3.52,3.7,5.08,4.89,2.33,6.31,2.2,4.25,1.71,5.4,2.92,4.44,1.82,7.23.09,6.38-4.9,9.73-5.26a8.84,8.84,0,0,0,4-2.61s-0.61,3.3-8.11,5.35c-2.46.4-2.65,2.21-7.7,4.38s-6.58-1.56-7.22-2.18-6.42-2-7.49-1.89-3.32-1.17-4.46-3.43-4-6.26-6.07-7.11a10.41,10.41,0,0,0,.76,8.18c2.31,4,6.21,10.3,9.79,11.51a66,66,0,0,1,7.93,3.08c1.58,0.81,5.72,2.36,11-.67s7.13-5.16,10.71-7.64a11.38,11.38,0,0,1,6.69-2.25s-7.58,4-10.66,8.24c-5.54,4.49-9.12,6.8-13.46,5.49s-11-4.21-13.15-4-5.51-3.58-7.9-7.56-7.94-8.88-4.46-18.35c0.7-6.13.62-11.17,7.58-14.48s14.71-9.81,18.67-9.42a21.2,21.2,0,0,1,15.39,7.91c5.62,6.59,3.87,10,8.64,16.49Z" transform="translate(-10.27 -9.93)"/><path class="cls-4" d="M109.26,164.15s-3.58,1.68-5.22,4.42-3.1-1.51-3.1-1.51a2.93,2.93,0,0,0-2.51,1.24s2.51,2,4.52,1.72a11.8,11.8,0,0,1-3.72,3.37s-0.83-1.38-3.41-1.3a3.31,3.31,0,0,1-1.93-.94l-1.26.53s4.15,2.1,4.39,3.17c0,0-3.89,3.1-7.77-.09-1.21-1-3.31-5-4.82-4.5,0,0,3,3.12,3.64,4.93,0.4,1.2,2.6,1.6,2.6,1.6s-3.17,1.16-4.2.76c0,0,3.3.91,5.27,0.38a4.71,4.71,0,0,1-1.38,2.75s2.68-1.13,2.94-3.08a10.55,10.55,0,0,0,5-1.67,4.14,4.14,0,0,1,.07,2.81s2.08-.6,1.68-3.65c0,0,11-6.61,12.64-6.48C113.64,168.68,110.56,168.08,109.26,164.15Z" transform="translate(-10.27 -9.93)"/><path class="cls-3" d="M156.78,110.85s-8.43,4-9.79,9.39S150.31,136,150.31,136s1.45,8.23,9.62,9.15c5.35,2.34,8.33,3.09,18.63-1.8,2.91-1.27,3.1-4.38,4.21-5.22a14.37,14.37,0,0,0,4.4-8.28c0.61-4.16-3.7-11.36-3.93-12.34s-1.17-6.15-1.17-6.15l-10.81-3.54Z" transform="translate(-10.27 -9.93)"/><path class="cls-4" d="M168.06,112.81c-0.23.22-1.05,0.22-2,.69h0c-3.4-2.29-9.9-1.43-9.9-1.43,6.44-.11,8.09,3,8.09,3l0.06,0a17,17,0,0,0-3.72,3.41l0.15-.17c-9-1.9-11.82.68-11.82,0.68a19.36,19.36,0,0,1,2.47-.38c2.45-.26,8.53.78,8.53,0.78l0.11-.14a19.49,19.49,0,0,0-2,3.31,23.39,23.39,0,0,0-1.32,5.39l0-.24c-7.22,1.53-6.26,3.63-6.26,3.63a3.1,3.1,0,0,1,2.68-1.48,10.77,10.77,0,0,0,3.42-.47l0.33-.75c-0.29,3.7-.48,7.46,1.46,8.6h0c-2.61,1-2.08,2.41-2.08,2.41a2,2,0,0,1,1.87-1.55,23.74,23.74,0,0,0,1.21,2.61l-0.59-4c1,1.55,5.42,1.36,5.42,1.36-0.6-.75-4-0.19-5.48-2.94a9.32,9.32,0,0,1,.13-6.6c0.7,1.12,2.08,3,3.5,3,3.14,0,5,4.72,5,4.72s-0.14-4.24-3.46-5.29a6,6,0,0,1-4.32-4.16,12.83,12.83,0,0,1,3.88-4.84c0.62-.43,1.33-0.9,2.07-1.37L163.49,122s0.39,5.05,4.07,7.28c2.79,1,3.4,4.26,3.4,4.26,0.25-2.26-.74-4.37-2.91-6.35a6.43,6.43,0,0,1-2.48-6.57c1.25-.81,2.6-1.64,3.8-2.37,0,0,.13,1.27,3.79,3.91A7.78,7.78,0,0,1,174.7,127s1.2-2.08-.8-5.57c-1.55-2.34-2.93-2.84-2.5-4.41l1.29-.76a4,4,0,0,0,.58-0.41l1.9-1.61c-4.21-.52-5.16-4.75-5.16-4.75A4.76,4.76,0,0,1,168.06,112.81Zm1.31,5.46,2-1.22Z" transform="translate(-10.27 -9.93)"/><path class="cls-4" d="M150.94,125.3c4.91-1.86,6.63-1.12,6.63-1.12l0.52-1.56C152.7,123.2,150.94,125.3,150.94,125.3Z" transform="translate(-10.27 -9.93)"/><ellipse class="cls-4" cx="176.11" cy="109.42" rx="4.15" ry="5.11" transform="matrix(0.31, -0.95, 0.95, 0.31, 7.02, 232.79)"/><path d="M170.15,107.47c-0.88,2.67,1.08,5.71,4.37,6.79s6.67-.21,7.54-2.89-1.08-5.71-4.37-6.79S171,104.8,170.15,107.47Zm7.25-2c2.68,0.88,4.28,3.36,3.56,5.53s-3.47,3.23-6.15,2.35-4.28-3.36-3.56-5.53S174.72,104.6,177.4,105.48Z" transform="translate(-10.27 -9.93)"/><path d="M170,108.64s-8.87,1-11.31,2.23-12,6.15-10.58,12.75a81.56,81.56,0,0,0,3.79,13.68c1.27,3.23,5,6.92,8.32,6.57,1.49,0.09,3.73-1.75,5.27-2.24s3.26-1.2,4.7-1.74,2.85-3.25,3.06-4.37,2.23-2.89,3.41-3.51,2.36-3,1.64-5.53-2.38-6-1.93-8.61a7.06,7.06,0,0,0-1.15-3.6s2.4,1.18,2.35,7.38c-0.22,2,1.12,2.51,1.7,6.86s-2.62,4.72-3.24,5.07-2.94,4.49-3.07,5.34-1.62,2.29-3.6,2.68-5.68,1.73-6.77,3.13a8.3,8.3,0,0,0,6.44,1.18c3.6-.9,9.26-2.54,11-5a52.66,52.66,0,0,1,4.08-5.42,9,9,0,0,0,1.87-8.6c-1.18-4.72-2.42-6.59-3.55-9.87a9.08,9.08,0,0,1-.28-5.62s1.45,6.69,4,10c2.25,5.23,3.25,8.48,1.31,11.52s-5.62,7.57-5.93,9.23-3.94,3.46-7.51,4.43-8.54,4.17-15.06-.55c-4.56-1.87-8.44-2.89-9.48-9s-4.35-13.42-3.19-16.37a16.91,16.91,0,0,1,9.4-10.11c6.28-2.89,8.52-.81,14.53-3.07Z" transform="translate(-10.27 -9.93)"/><path class="cls-4" d="M177.09,114.64a10.94,10.94,0,0,0,2.26,5c1.74,1.84-1.83,2.05-1.83,2.05a2.34,2.34,0,0,0,.41,2.19s2-1.51,2.3-3.1a9.41,9.41,0,0,1,1.79,3.58,3,3,0,0,0-1.74,2.33,2.64,2.64,0,0,1-1.14,1.28l0.13,1.08s2.51-2.73,3.39-2.69a5,5,0,0,1-1.75,5.95c-1,.71-4.58,1.46-4.5,2.73a17.37,17.37,0,0,1,4.57-1.73c1-.05,1.79-1.65,1.79-1.65s0.21,2.68-.32,3.39a10.4,10.4,0,0,0,1.44-4,3.76,3.76,0,0,1,1.81,1.66s-0.29-2.3-1.73-2.92a8.41,8.41,0,0,0-.2-4.2,3.3,3.3,0,0,1,2.17.55s0-1.72-2.44-2.08c0,0-2.7-9.84-2.24-11.11C181.52,112.25,180.39,114.48,177.09,114.64Z" transform="translate(-10.27 -9.93)"/><path class="cls-3" d="M139.88,152.46s-0.28,9.84,4.1,13.71,16.39,4.47,16.39,4.47,8.42,2.6,13.22-4.63c4.77-3.9,6.91-6.33,7.27-18.35,0.21-3.34-2.62-5-2.87-6.46a15.16,15.16,0,0,0-5.65-8.11c-3.61-2.57-12.44-2-13.47-2.25s-6.33-1.86-6.33-1.86L144,137.42Z" transform="translate(-10.27 -9.93)"/><path class="cls-4" d="M147.23,142.81c0.1,0.32-.23,1.09-0.23,2.2h0c-4,2.09-6.19,8.6-6.19,8.6,3-6.09,6.67-6.15,6.67-6.15l0.06,0a17.83,17.83,0,0,0,1.4,5.13l-0.09-.22c-6.1,7.49-5.05,11.41-5.05,11.41a20.21,20.21,0,0,1,.83-2.5c0.93-2.43,4.83-7.62,4.83-7.62l-0.08-.17a20.55,20.55,0,0,0,2.16,3.43,24.67,24.67,0,0,0,4.42,3.83l-0.22-.14c-2,7.51.39,7.62,0.39,7.62A3.27,3.27,0,0,1,156,165a11.36,11.36,0,0,0,1.21-3.44l-0.55-.68c3.34,2.06,6.76,4,8.78,2.77h0c-0.35,2.92,1.26,3.12,1.26,3.12a2.08,2.08,0,0,1-.55-2.5,25,25,0,0,0,3,.12l-4-1.37c1.92-.17,3.88-4.44,3.88-4.44-1,.2-2.08,3.62-5.4,3.72a9.83,9.83,0,0,1-6.13-3.29c1.39-.11,3.83-0.5,4.52-1.83,1.49-3,6.83-2.4,6.83-2.4s-4-1.91-6.63.7a6.35,6.35,0,0,1-6,2,13.53,13.53,0,0,1-2.67-6c-0.11-.79-0.2-1.68-0.29-2.6l0.29,2.6s4.93,2.06,8.79-.32c2.26-2.15,5.63-1.14,5.63-1.14-2-1.32-4.46-1.41-7.36-.33a6.78,6.78,0,0,1-7.35-.84c-0.15-1.56-.29-3.22-0.39-4.7,0,0,1.26.49,5.49-1.68a8.2,8.2,0,0,1,5.29.89s-1.37-2.13-5.61-1.93c-2.94.33-4.08,1.38-5.34,0.22,0-.69-0.07-1.24-0.09-1.57a4.26,4.26,0,0,0-.11-0.75l-0.6-2.56c-2.51,3.7-6.9,2.55-6.9,2.55A5.12,5.12,0,0,1,147.23,142.81Zm5.68,1.4c-0.07-.93-0.12-1.78-0.17-2.49Z" transform="translate(-10.27 -9.93)"/><path class="cls-4" d="M150.63,164.89c0.61-5.5,2.14-6.76,2.14-6.76l-1.21-1.24C149.5,162.23,150.63,164.89,150.63,164.89Z" transform="translate(-10.27 -9.93)"/><ellipse class="cls-4" cx="147.85" cy="133.63" rx="5.39" ry="4.38" transform="translate(-61.51 132.72) rotate(-44.7)"/><path d="M143.15,138.28c2.09,2.11,5.88,1.73,8.47-.84s3-6.36.92-8.47-5.88-1.73-8.47.84S141.06,136.17,143.15,138.28Zm1.62-7.76c2.12-2.09,5.21-2.4,6.91-.68s1.36,4.81-.75,6.9-5.21,2.4-6.91.68S142.66,132.61,144.77,130.52Z" transform="translate(-10.27 -9.93)"/><path d="M144.15,139s-3.33,8.81-3.35,11.69,0,14.18,6.87,16.07a86,86,0,0,0,14.66,3c3.65,0.36,8.87-1.32,10.17-4.64,0.8-1.35.15-4.34,0.43-6s0.44-3.63.63-5.25-1.68-4.24-2.63-5-1.64-3.49-1.65-4.89-1.69-3.66-4.41-4.2-6.73-.63-9-2.33a7.44,7.44,0,0,0-3.93-.66s2.26-1.68,8.06,1.35c1.74,1.16,2.9.16,7.25,1.71s3.16,4.73,3.2,5.48,2.8,4.92,3.54,5.45,1.37,2.62.78,4.66-1.11,6.16-.33,7.86a8.76,8.76,0,0,0,4.21-5.47c0.88-3.81,2.07-9.91.56-12.7a55.53,55.53,0,0,1-3.12-6.44c-0.51-1.4-2.17-4.73-7.17-5.9s-7.35-.9-11-1.42a9.58,9.58,0,0,1-5.41-2.44s7,1.86,11.28,1c6,0.4,9.52,1,11.44,4.32s4.4,8.92,5.8,10,1.35,5.36.54,9.19-0.19,10-7.76,13.86c-3.94,3.38-6.78,6.53-13,4.59s-14.68-2.38-16.9-4.89a17.84,17.84,0,0,1-5-13.69c0.31-7.28,3.34-8.38,4.12-15.11Z" transform="translate(-10.27 -9.93)"/><path class="cls-4" d="M153.21,135.22a11.53,11.53,0,0,0,5.74.27c2.57-.75,1,2.7,1,2.7a2.47,2.47,0,0,0,2.25.67s-0.43-2.65-1.8-3.65a9.93,9.93,0,0,1,4.22,0S164.4,136.59,166,138a2.78,2.78,0,0,1,.65,1.69l1.08,0.4s-1.35-3.67-.89-4.47a5.26,5.26,0,0,1,4.74,4.5c0.16,1.32-.84,5,0.39,5.53,0,0-.05-3.63.58-5.12,0.44-1-.68-2.48-0.68-2.48s2.62,1.1,3,1.94a11,11,0,0,0-3-3.25,4,4,0,0,1,2.43-.9s-2.3-.83-3.58.22a8.87,8.87,0,0,0-4-1.83,3.48,3.48,0,0,1,1.56-1.77s-1.62-.82-3.13,1.29c0,0-10.54-2.2-11.5-3.24C153.1,129.92,154.65,132.05,153.21,135.22Z" transform="translate(-10.27 -9.93)"/></svg>