<svg id="图层_1" data-name="图层 1" xmlns="http://www.w3.org/2000/svg" viewBox="0 0 218 218"><defs><style>.cls-1{fill:#fff;}.cls-1,.cls-2,.cls-3,.cls-4,.cls-5{stroke:#000;stroke-miterlimit:10;}.cls-1,.cls-3,.cls-5{stroke-width:2px;}.cls-2{fill:none;stroke-width:3px;}.cls-3{fill:#f06f74;}.cls-4{fill:#fabeb4;}.cls-5{fill:#ffbfb6;}</style></defs><title>calamares</title><circle class="cls-1" cx="109" cy="109" r="108"/><path class="cls-2" d="M40.91,84.18s21-62.51,91-52.25" transform="translate(-10.05 -9.62)"/><path class="cls-2" d="M36.75,110.92a43.93,43.93,0,0,1,2.05-18.23" transform="translate(-10.05 -9.62)"/><path class="cls-3" d="M50,130.48s0-17.58.77-18.33,17.95,3,24.6,25.11c-4.14,3-25.37,0-25.37,0v-6.78Z" transform="translate(-10.05 -9.62)"/><path class="cls-4" d="M90.45,90.37s9.3-10.11,11.06-12.62,12.05-18.83,16.57-23.86c2.26-2,2-6.4,2-6.4s2.26,3.77-2.64,10.17S105.53,76,105.53,76l15.69-21.85-4.14,7.53,8.29-8.54-9.79,13.44,9.79-8.29L111.8,74.23S127,61.43,129.38,58.66c0,0-12.31,14.69-16.2,17.2,0,0,15.95-13.31,18.83-17.45,0,0-17.45,20.47-22.73,23.61,0,0,21.09-14.94,24.11-19.84,0,0-14.57,15.44-18.08,18.08,0,0,14.06-8.16,20.34-17.45,0,0-6.53,16.2-26.74,27.56C106.41,91.43,99.47,99,99.47,99S91.45,96.46,90.45,90.37Z" transform="translate(-10.05 -9.62)"/><path d="M92,87.79a6,6,0,0,1,1.88-5.09c2.32-1.95,3.89-1.07,3.89-1.07Z" transform="translate(-10.05 -9.62)"/><path d="M108.29,92.19l-5.8,6.13a6,6,0,0,0,5-2.18" transform="translate(-10.05 -9.62)"/><path class="cls-5" d="M51.53,137.27s5.52-28.38,24.86-41.44c9-5.78,12.05-8.79,12.05-8.79s2.76,6.78,13.06,13.31C92.47,114.41,78.66,135.26,51.53,137.27Z" transform="translate(-10.05 -9.62)"/><path class="cls-3" d="M77,149.23s-0.1-17.58.66-18.33,18,3,24.66,25.11C98.17,159,77,156,77,156v-6.78Z" transform="translate(-10.05 -9.62)"/><path class="cls-4" d="M117.23,109.11s9.3-10.11,11.06-12.62,12.05-18.83,16.57-23.86c2.26-2,2-6.4,2-6.4s2.26,3.77-2.64,10.17-11.92,18.33-11.92,18.33L148,72.89l-4.14,7.53,8.29-8.54-9.79,13.44L152.14,77,138.58,93s15.19-12.81,17.58-15.57c0,0-12.31,14.69-16.2,17.2,0,0,15.95-13.31,18.83-17.45,0,0-17.45,20.47-22.73,23.61,0,0,21.09-14.94,24.11-19.84,0,0-14.57,15.44-18.08,18.08,0,0,14.06-8.16,20.34-17.45,0,0-6.53,16.2-26.74,27.56-2.51,1.07-9.45,8.62-9.45,8.62S118.23,115.2,117.23,109.11Z" transform="translate(-10.05 -9.62)"/><path d="M118.74,106.54a6,6,0,0,1,1.88-5.09c2.32-1.95,3.89-1.07,3.89-1.07Z" transform="translate(-10.05 -9.62)"/><path d="M135.06,110.93l-5.8,6.13a6,6,0,0,0,5-2.18" transform="translate(-10.05 -9.62)"/><path class="cls-5" d="M78.31,156s5.52-28.38,24.86-41.44c9-5.78,12.05-8.79,12.05-8.79s2.76,6.78,13.06,13.31C119.25,133.16,105.43,154,78.31,156Z" transform="translate(-10.05 -9.62)"/><path class="cls-3" d="M104,175.11s-0.21-17.58.54-18.33,18.06,3,24.71,25.11c-4.14,3-25.26,0-25.26,0v-6.78Z" transform="translate(-10.05 -9.62)"/><path class="cls-4" d="M144,135s9.3-10.11,11.06-12.62,12.05-18.83,16.57-23.86c2.26-2,2-6.4,2-6.4s2.26,3.77-2.64,10.17-11.92,18.33-11.92,18.33l15.69-21.85-4.14,7.53,8.29-8.54-9.79,13.44,9.79-8.29-13.56,15.95s15.19-12.81,17.58-15.57c0,0-12.31,14.69-16.2,17.2,0,0,15.95-13.31,18.83-17.45,0,0-17.45,20.47-22.73,23.61,0,0,21.09-14.94,24.11-19.84,0,0-14.57,15.44-18.08,18.08,0,0,14.06-8.16,20.34-17.45,0,0-6.53,16.2-26.74,27.56-2.51,1.07-9.45,8.62-9.45,8.62S145,141.08,144,135Z" transform="translate(-10.05 -9.62)"/><path d="M145.52,132.42a6,6,0,0,1,1.88-5.09c2.32-1.95,3.89-1.07,3.89-1.07Z" transform="translate(-10.05 -9.62)"/><path d="M161.84,136.81l-5.8,6.13a6,6,0,0,0,5-2.18" transform="translate(-10.05 -9.62)"/><path class="cls-5" d="M105.09,181.89s5.52-28.38,24.86-41.44c9-5.78,12.05-8.79,12.05-8.79s2.76,6.78,13.06,13.31C146,159,132.21,179.88,105.09,181.89Z" transform="translate(-10.05 -9.62)"/></svg>