<svg id="图层_1" data-name="图层 1" xmlns="http://www.w3.org/2000/svg" viewBox="0 0 176.42 182.74"><defs><style>.cls-1,.cls-4{fill:#b9d04a;}.cls-1,.cls-4,.cls-5{stroke:#2a5111;}.cls-1,.cls-2,.cls-3,.cls-5{stroke-linejoin:round;}.cls-1,.cls-2,.cls-3,.cls-4,.cls-5{stroke-width:2px;}.cls-2{fill:#f4f4f4;}.cls-2,.cls-3{stroke:#020202;stroke-linecap:round;}.cls-3{fill:#e99c19;}.cls-4{stroke-miterlimit:10;}.cls-5{fill:none;}</style></defs><title>carrots</title><path class="cls-1" d="M154.11,41.57s-0.81-19.52,19-10.16c5.65,3.81-.81,17.43-9.48,16.62S154.11,41.57,154.11,41.57Z" transform="translate(-34.15 -27.18)"/><path class="cls-2" d="M137.17,91.18l12.9-13.71s10.08-1.21,7.26,6.86l-12.5,14.52Z" transform="translate(-34.15 -27.18)"/><path class="cls-2" d="M143.62,97.63l12.9-13.71s10.08-1.21,7.26,6.86l-12.5,14.52Z" transform="translate(-34.15 -27.18)"/><path class="cls-3" d="M35.15,208.92L107.73,99.24S119,83.92,140.8,92c11.79,4.37,15.31,14.65,16.05,23.16A20.69,20.69,0,0,1,147.53,134Z" transform="translate(-34.15 -27.18)"/><line class="cls-3" x1="70.9" y1="79.05" x2="77.88" y2="84.96"/><line class="cls-3" x1="103.15" y1="98.4" x2="110.14" y2="104.32"/><line class="cls-3" x1="70.9" y1="104.86" x2="77.88" y2="110.77"/><line class="cls-3" x1="73.82" y1="123.71" x2="78.19" y2="127.4"/><line class="cls-3" x1="44.79" y1="143.06" x2="49.15" y2="146.76"/><line class="cls-3" x1="48.01" y1="114.03" x2="52.38" y2="117.73"/><line class="cls-3" x1="28.66" y1="139.84" x2="33.02" y2="143.53"/><path class="cls-1" d="M174.27,38.75s-2-11.69,10.89-10.48S194,41.17,194,41.17s13.7-1.58,15.32,6.89a12.77,12.77,0,0,1-3.23,10.85s5.65,6.45-2.82,17.74c0,0,4.79,17.27-15.15,14.69,0,0-13.48,10.25-23.56,0s2.82-19.93,2.82-19.93-3.63-9.44,8.87-14.6C159,59.78,158.21,39.49,174.27,38.75Z" transform="translate(-34.15 -27.18)"/><path class="cls-4" d="M145.64,72.63s-17.34-.81-15.73-10.89,7.81-10.08,7.81-10.08,1.87-13.71,11.95-13.31,15.73,8.46,12.5,17.13c0,0,12.1,3.43,7.26,17.14S146.85,83.11,145.64,72.63Z" transform="translate(-34.15 -27.18)"/><path class="cls-5" d="M180.85,54.08s23.66,0.48,4.3,24.44" transform="translate(-34.15 -27.18)"/></svg>