<svg id="图层_1" data-name="图层 1" xmlns="http://www.w3.org/2000/svg" viewBox="0 0 218 218"><defs><style>.cls-1{fill:#fff;}.cls-1,.cls-2,.cls-3,.cls-4,.cls-5,.cls-6{stroke:#000;stroke-miterlimit:10;}.cls-1,.cls-3,.cls-4,.cls-5,.cls-6{stroke-width:2px;}.cls-2{fill:none;stroke-width:3px;}.cls-3{fill:#8e8f0f;}.cls-4{fill:#763500;}.cls-5{fill:#bf8047;}.cls-6{fill:#f0c581;}.cls-7{fill:#a24e2c;}.cls-8{fill:#b95e10;}.cls-9{fill:#a0551e;}</style></defs><title>duck confit</title><circle class="cls-1" cx="109" cy="109" r="108"/><path class="cls-2" d="M40.91,84.18s21-62.51,91-52.25" transform="translate(-10.05 -9.62)"/><path class="cls-2" d="M36.75,110.92a43.93,43.93,0,0,1,2.05-18.23" transform="translate(-10.05 -9.62)"/><path class="cls-3" d="M61.81,130.72S135.65,74,166.42,84.13s38.68,22,42.63,30.76-27.25,48.8-62.41,49.67S39,159.73,61.81,130.72Z" transform="translate(-10.05 -9.62)"/><path class="cls-4" d="M142.69,79.29s-3.08-4-10.33-5.94-17.14-1.53-40.66,7.92c0,0,31.21,9.67,42.63,7.91s11.43-7.84,11.43-7.84Z" transform="translate(-10.05 -9.62)"/><path class="cls-5" d="M49.65,136.14c0.73,0.49,14.94,2.93,27,0s37.51-4.1,44.83-10.55,2.05-19,12-22a106.44,106.44,0,0,0,20.22-8.5c0.88-.59-7-8.5-1.17-10.55s9.38-3.22,9.38-3.22-2.34-2.34-16.12,0c-7.91.88-7,5.27-17.87,2.93s-34.87-7.06-44.83-4-16.7.16-24.61,11-17.29,15.82-15.82,27.54C40,127.06,44.38,132.63,49.65,136.14Z" transform="translate(-10.05 -9.62)"/><path class="cls-6" d="M155.43,92.92s12.09-4.4,15.6-4,10.11,0.88,12.75,4,7.69,1.29,9.23-2-1.54-8.12-1.54-8.12,3.3-6.37-2.2-8.57-9.08-.07-18.24,3.52-22,8.13-22,8.13-2,8,1.32,8.62Z" transform="translate(-10.05 -9.62)"/><path class="cls-7" d="M124.23,101.71s-23.73-4.4-34.28,0S60.5,116.66,60.5,116.66s-18.35,3.57-8.79-11c13.81-21,38.24-23.6,46.15-21.25s21.94,6.73,31.21,6.3c6.3-.29,17.1-7.91,16.7-4-0.44,4.4,5.07,8.88.88,9.77C139.61,98,130.81,102.7,124.23,101.71Z" transform="translate(-10.05 -9.62)"/><ellipse class="cls-8" cx="125.17" cy="126.87" rx="5.27" ry="3.85"/><ellipse class="cls-8" cx="120.77" cy="118.3" rx="4.4" ry="2.53"/><circle class="cls-8" cx="134.4" cy="124.78" r="3.96"/><circle class="cls-8" cx="134.23" cy="116.48" r="2.69"/><circle class="cls-8" cx="120.33" cy="109.84" r="3.96"/><circle class="cls-8" cx="139.59" cy="101.29" r="2.66"/><circle class="cls-8" cx="135.36" cy="108.87" r="4.92"/><ellipse class="cls-8" cx="152.09" cy="114.07" rx="6.7" ry="4.23"/><circle class="cls-9" cx="165.71" cy="101.59" r="5.38"/><circle class="cls-8" cx="171.04" cy="114.51" r="4.67"/><circle class="cls-8" cx="153.02" cy="98.57" r="4.56"/><ellipse class="cls-9" cx="141.87" cy="91.38" rx="3.52" ry="2.64"/><ellipse class="cls-8" cx="132.36" cy="96.33" rx="4.56" ry="4.96"/><circle class="cls-8" cx="123.52" cy="103.35" r="3.63"/><circle class="cls-8" cx="112.94" cy="127.28" r="3.43"/><ellipse class="cls-8" cx="106.86" cy="125.77" rx="6.08" ry="4.94"/><circle class="cls-8" cx="135.36" cy="143.69" r="4.92"/><circle class="cls-9" cx="136.66" cy="133.69" r="4.3"/><ellipse class="cls-8" cx="146.18" cy="143.1" rx="5.91" ry="4.32"/><ellipse class="cls-8" cx="147.17" cy="105.56" rx="4.92" ry="4.27"/><ellipse class="cls-8" cx="144.52" cy="97.65" rx="2.65" ry="3.64"/><circle class="cls-8" cx="113.55" cy="119.81" r="4.04"/><circle class="cls-9" cx="98.41" cy="134.5" r="5.76"/><ellipse class="cls-8" cx="91.68" cy="143.58" rx="6.73" ry="5.59"/><circle class="cls-8" cx="92.66" cy="129.89" r="4.12"/><circle class="cls-8" cx="78.32" cy="132.07" r="4.14"/><circle class="cls-8" cx="125.17" cy="141.48" r="5.27"/><ellipse class="cls-8" cx="148.18" cy="130.17" rx="3.66" ry="4.4"/><ellipse class="cls-8" cx="145.02" cy="121.13" rx="3.15" ry="4.64"/><ellipse class="cls-8" cx="163.64" cy="111.69" rx="2.73" ry="2.82"/><ellipse class="cls-8" cx="161.65" cy="92.47" rx="4.07" ry="3.74"/><ellipse class="cls-8" cx="154.71" cy="86.82" rx="2.88" ry="5.65"/><ellipse class="cls-9" cx="129.26" cy="114.51" rx="4.97" ry="4.67"/><circle class="cls-8" cx="64.45" cy="137.59" r="3.89"/><ellipse class="cls-9" cx="81.63" cy="139.9" rx="3.32" ry="3.69"/><circle class="cls-8" cx="105.62" cy="146.99" r="3.89"/><circle class="cls-8" cx="116.38" cy="142.58" r="4.58"/><circle class="cls-8" cx="123.52" cy="148.61" r="4.58"/><circle class="cls-8" cx="158.55" cy="123.02" r="3.85"/><circle class="cls-8" cx="157.58" cy="134.57" r="3.85"/><circle class="cls-8" cx="160.33" cy="103.35" r="3.85"/><circle class="cls-8" cx="163.64" cy="84.89" r="3.85"/><circle class="cls-8" cx="171.1" cy="91.38" r="3.85"/><circle class="cls-8" cx="174.94" cy="107.8" r="3.85"/><circle class="cls-8" cx="178.79" cy="96.33" r="3.85"/><circle class="cls-8" cx="182.64" cy="113.79" r="3.85"/><circle class="cls-8" cx="163.64" cy="118.96" r="3.85"/><circle class="cls-8" cx="161.65" cy="128.74" r="3.85"/><circle class="cls-8" cx="169.34" cy="125.77" r="3.85"/><circle class="cls-8" cx="175.71" cy="125.77" r="3.85"/><circle class="cls-8" cx="183.4" cy="121.92" r="3.85"/><circle class="cls-8" cx="169.34" cy="134.01" r="3.85"/><circle class="cls-8" cx="153.74" cy="141.48" r="3.85"/><circle class="cls-8" cx="189.56" cy="109.95" r="3.85"/><circle class="cls-8" cx="183.4" cy="103.96" r="3.85"/><circle class="cls-9" cx="112.91" cy="132.91" r="4.02"/><circle class="cls-8" cx="108.18" cy="138.78" r="4.77"/><ellipse class="cls-8" cx="119.89" cy="133.91" rx="5.27" ry="4.51"/></svg>