<svg id="图层_1" data-name="图层 1" xmlns="http://www.w3.org/2000/svg" viewBox="0 0 219.71 220"><defs><style>.cls-1{fill:#72dbdb;}.cls-1,.cls-2,.cls-3{stroke:#000;stroke-miterlimit:10;}.cls-2{fill:none;stroke-width:3px;}.cls-3{fill:#f9ef95;stroke-width:2px;}</style></defs><title>egg noodle</title><path class="cls-1" d="M227.14,140.07H10.33c2.63,34,30.23,61.48,68.46,72.86a17.32,17.32,0,0,0-.41,3.55c0,5.31,4.35,10.59,9.66,10.59h61.39c5.31,0,9.66-5.47,9.66-10.78a10.75,10.75,0,0,0-.41-2.79C196.92,202.11,224.52,174.07,227.14,140.07Z" transform="translate(-8.5 -7.57)"/><line class="cls-1" x1="69.5" y1="205.5" x2="118.5" y2="205.5"/><path class="cls-1" d="M154.82,200s44.14-16.55,55.87-46.21" transform="translate(-8.5 -7.57)"/><line class="cls-2" x1="167.5" y1="16.5" x2="182.5" y2="16.5"/><line class="cls-2" x1="167.5" y1="29.5" x2="182.5" y2="29.5"/><path class="cls-3" d="M227.14,140.57a52.08,52.08,0,0,0-104,0h104Z" transform="translate(-8.5 -7.57)"/><path class="cls-3" d="M216.16,140.57c-1.71-24-19.39-37.81-41-37.81s-39.29,13.81-41,37.81h82Z" transform="translate(-8.5 -7.57)"/><path class="cls-3" d="M204.06,140.57c-1.67-16-14-25.76-28.9-25.76s-27.24,9.76-28.9,25.76h57.81Z" transform="translate(-8.5 -7.57)"/><path class="cls-3" d="M150.21,140.57a70.42,70.42,0,0,0-140.66,0H150.21Z" transform="translate(-8.5 -7.57)"/><path class="cls-3" d="M136.84,140.57a57.08,57.08,0,0,0-113.93,0H136.84Z" transform="translate(-8.5 -7.57)"/><path class="cls-3" d="M124.81,140.57c-1.87-25-21.25-41.44-44.93-41.44S36.83,115.57,35,140.57h89.86Z" transform="translate(-8.5 -7.57)"/><path class="cls-3" d="M111.56,140.57c-1.83-17-15.3-28.23-31.68-28.23S50,123.57,48.21,140.57h63.35Z" transform="translate(-8.5 -7.57)"/><path class="cls-3" d="M192.53,140.57a17.68,17.68,0,0,0-34.74,0h34.74Z" transform="translate(-8.5 -7.57)"/><path class="cls-3" d="M98.91,140.57c-1.72-10-9.58-15.73-19-15.73s-17.31,5.73-19,15.73H98.91Z" transform="translate(-8.5 -7.57)"/><rect class="cls-3" x="151.59" y="10.55" width="9.02" height="122.58"/><rect class="cls-3" x="160.62" y="10.55" width="9.02" height="122.58"/><path class="cls-2" d="M191,9.07H147.06s-6,0-11,11H34.76s-11.53,8,0,17H136a29.61,29.61,0,0,0,11,12H191" transform="translate(-8.5 -7.57)"/></svg>