<svg id="图层_1" data-name="图层 1" xmlns="http://www.w3.org/2000/svg" viewBox="0 0 138.02 88.49"><defs><style>.cls-1,.cls-4{fill:#fca13d;}.cls-1,.cls-2,.cls-3,.cls-4{stroke:#000;}.cls-1,.cls-3{stroke-miterlimit:10;}.cls-2,.cls-3{fill:none;}.cls-2,.cls-4{stroke-linejoin:round;}</style></defs><title>fried chicken</title><path class="cls-1" d="M83.65,67.11s4.17-3,6.58-2.49,10.95,2.22,15.29,9.45,3.24,12.28,4.23,15.24-4.5,14.25-9.32,17.38-8.33,4.41-12.94,3.93-7.63-8.23-9.9-9.51S64,88.94,64.64,84.93,71,73.31,83.65,67.11Z" transform="translate(-3.81 -36.1)"/><path class="cls-2" d="M91.87,86.1a3.57,3.57,0,0,1,3.4-.63" transform="translate(-3.81 -36.1)"/><path class="cls-2" d="M92.31,87s2,2,3.51,2" transform="translate(-3.81 -36.1)"/><path class="cls-2" d="M96.81,101.13s4.93-6,0-10.53" transform="translate(-3.81 -36.1)"/><path class="cls-2" d="M91.87,99.52s1,2,2.19,2.3l1.21,0.33" transform="translate(-3.81 -36.1)"/><path class="cls-2" d="M88.25,100.83s-6,.26-6.25-0.8,1.54-.84.55-3.14l-1.1-1" transform="translate(-3.81 -36.1)"/><line class="cls-2" x1="76" y1="63.93" x2="76" y2="62.54"/><path class="cls-2" d="M80.25,95.89a2.75,2.75,0,0,0-1.83-2.4" transform="translate(-3.81 -36.1)"/><path class="cls-2" d="M76.08,91.51s-0.16-3.79-2.67-2.19" transform="translate(-3.81 -36.1)"/><path class="cls-2" d="M85.95,83.29a4.56,4.56,0,0,1-3.4.55c-1.64-.55-1.32,3-3.84,1.45" transform="translate(-3.81 -36.1)"/><path class="cls-2" d="M100.75,71s0.11-1.18-1.75-.48" transform="translate(-3.81 -36.1)"/><path class="cls-1" d="M7.54,74.41s0.77-2.67,0-4.19-4.72-4.48-2.63-8.86,3.62-7.68,5.48-7c0,0,3.18-1.21,4.39-3s4.06-1.81,4.5-2.82,1.06-2.34,7.35-1a6.54,6.54,0,0,0,3.05-2.09s9.59,5.38,11.71,5.82,10.16,8.44,10.09,12.94,0.91,15.84-3.36,19.6-19.74,2.78-27.2-2C13.57,78.57,6.56,76.6,7.54,74.41Z" transform="translate(-3.81 -36.1)"/><path class="cls-3" d="M7.76,59.3A3.12,3.12,0,0,1,9.25,58" transform="translate(-3.81 -36.1)"/><path class="cls-3" d="M16.54,52a2.38,2.38,0,0,0,1.21,1.24" transform="translate(-3.81 -36.1)"/><line class="cls-3" x1="21.5" y1="29.65" x2="22.33" y2="29.65"/><path class="cls-2" d="M24.07,70.26S22.4,71,21.37,69c0,0,0,.58-1.18.29,0,0-.37,1.82-1.75,1.27,0,0,.15,2.22-2.78,1.75" transform="translate(-3.81 -36.1)"/><path class="cls-2" d="M21.07,72.34s0.58,1.19,1.83,0a5.75,5.75,0,0,1,2.83-.9" transform="translate(-3.81 -36.1)"/><path class="cls-2" d="M33.17,80.16a2,2,0,0,1,.62,1.73,16.07,16.07,0,0,1,2.74.44,0.92,0.92,0,0,0,1.1-.44" transform="translate(-3.81 -36.1)"/><path class="cls-2" d="M17.14,77.17s1.88-.62,1.66,1.29" transform="translate(-3.81 -36.1)"/><path class="cls-2" d="M18,79a1.45,1.45,0,0,0,1.8,0" transform="translate(-3.81 -36.1)"/><path class="cls-2" d="M18,75.9a1.71,1.71,0,0,0-1.44-.54" transform="translate(-3.81 -36.1)"/><path class="cls-2" d="M13.32,74.08s-0.22-2.34-1.75-2.34" transform="translate(-3.81 -36.1)"/><path class="cls-2" d="M11.92,68.78a2.14,2.14,0,0,1,.52,1.48c1.1,0.75,1.32.05,1.75,0" transform="translate(-3.81 -36.1)"/><path class="cls-2" d="M12.21,74.74a3.15,3.15,0,0,0,1.11,1.69" transform="translate(-3.81 -36.1)"/><path class="cls-1" d="M28.6,69.63s1.1-4.35-.88-7.51c-1.32-2.73,2-6.3,2.19-9.34S35,48,37.3,45.45s4.76-6.9,7.79-6.68c3.47-.88,6.1-4.4,10,0,1.75,5.05,4,7.23,6.29,6.69s4.9-.32,4.24,1.87c-0.22,2.85,4.09,3.06,4.68,3s5.69-2,8.07,3.44c3,4.13,7.65,8.25,5.89,15.07,0,0-4.77,1.69-5.89,3.49s-6.46,3.09-6.46,3.09-1.43,4.74-5.39,5.45S36.71,79.43,28.6,69.63Z" transform="translate(-3.81 -36.1)"/><path class="cls-1" d="M37.3,62.56s0.44,1.21,1.9,0a20.85,20.85,0,0,1,4.2.27" transform="translate(-3.81 -36.1)"/><path class="cls-1" d="M34.23,61.8s0.07,1.65,1,1.7" transform="translate(-3.81 -36.1)"/><path class="cls-1" d="M29.69,58.77a1.58,1.58,0,0,0,1.75,1.91c2.08-.1,1.61,0,1.61,0" transform="translate(-3.81 -36.1)"/><line class="cls-1" x1="62.29" y1="40.33" x2="61.3" y2="42.36"/><path class="cls-1" d="M83.65,64.62s-0.11,2.12-2.19,1.12" transform="translate(-3.81 -36.1)"/><path class="cls-1" d="M79.81,62.54a3.65,3.65,0,0,1,2.74,1" transform="translate(-3.81 -36.1)"/><line class="cls-1" x1="63.82" y1="37.5" x2="65.15" y2="37.5"/><path class="cls-1" d="M30.72,87.67S25.6,81,26.19,76.43s6.87-6,9.36-6.21S42,65.75,42,65.75s5-2.15,5.41-3.64,5.26,0.05,6.29-1.59c1.32-2.65,6.14,1,5.41,5.23,0,0,4.39,5.06,3.51,9.62,1.9,1.34.12,4.16,0.12,4.16s7,0.43,5.73,6.63c-0.15.79,1.9,1,.88,3.62,2.34,2.14,5.85,2.43,6,5.21,3.07,0.15,2.49,4.5,2,4.66-0.29,2.06,3.36,5.57-1.46,9.08-2.49,4.39-10.38,8.48-13.89,8.92-2,1.61-4.24,2-8.92,0s-8.92-4.24-9.8-8C41.39,106.1,32.47,94.38,30.72,87.67Z" transform="translate(-3.81 -36.1)"/><path class="cls-3" d="M39.78,83.05s-0.15,3.89.58,5.06" transform="translate(-3.81 -36.1)"/><path class="cls-3" d="M35.4,72.42s0.58,2.74,3.8-.14" transform="translate(-3.81 -36.1)"/><path class="cls-3" d="M55.14,78.46a1.86,1.86,0,0,0,1.17,1.17" transform="translate(-3.81 -36.1)"/><path class="cls-3" d="M60.4,107.71s1.9-2,2-3.39" transform="translate(-3.81 -36.1)"/><path class="cls-3" d="M69.61,111.65s1.9,1,3.07-2.19" transform="translate(-3.81 -36.1)"/><path class="cls-3" d="M55.72,109.46s1.17,2.21,2.63,2.35" transform="translate(-3.81 -36.1)"/><path class="cls-3" d="M33.06,90.6s0.73-2.2,2.34-2.78" transform="translate(-3.81 -36.1)"/><path class="cls-3" d="M37.3,94.69a37.41,37.41,0,0,0-4.24-2.19" transform="translate(-3.81 -36.1)"/><path class="cls-3" d="M38.32,99.65a30.89,30.89,0,0,1,3.22,4.67c0.73,1.64,3.22,1.93,3.51,3.39s-1.17,2.2,0,2.93" transform="translate(-3.81 -36.1)"/><path class="cls-3" d="M48.7,107.71s0.73,2.78,5.56,5.12" transform="translate(-3.81 -36.1)"/><path class="cls-3" d="M40.07,93.6s2.64-1.24,2.64-3" transform="translate(-3.81 -36.1)"/><path class="cls-3" d="M34.23,79s-2.34-1-1.75,1.78" transform="translate(-3.81 -36.1)"/><line class="cls-3" x1="58.63" y1="49.38" x2="60.83" y2="50.89"/><path class="cls-3" d="M71.95,97.91a5.24,5.24,0,0,1,1.46,3.22" transform="translate(-3.81 -36.1)"/><path class="cls-3" d="M68.29,110.26a2.73,2.73,0,0,0,2-2.56" transform="translate(-3.81 -36.1)"/><path class="cls-3" d="M57,87s0.29,1.77,1.32,2" transform="translate(-3.81 -36.1)"/><path class="cls-2" d="M57,72.94s0.73-.54-1.32-2.48c2-.33,1.32-2.35,1.32-2.35" transform="translate(-3.81 -36.1)"/><path class="cls-3" d="M55.14,63.5s3.22,0.06,3.95,2.25" transform="translate(-3.81 -36.1)"/><path class="cls-1" d="M117.42,120.9s3.51,3.4,7.68,3.18a13.15,13.15,0,0,0,10-5.06c2.19-2.95,3.95-3,4.93-7.22,2.74-1.43.44-7.64,0-7.5a3.74,3.74,0,0,0-1-3.19s0.88-4.35-1.1-7.53-5-7-7.24-8.12c-1.31-1-1.64-4-2.41-5.26S126.52,75,125,74.63c-1.43-1.86-4.93-8.87-8.22-8.88s-7.79-.64-10.86,2.36-5.92,4-5.81,9.33S97.46,84.6,98.23,93.6s1.86,7.72,4.28,10.72,3.51,4.54,3.29,7.5S117.42,120.9,117.42,120.9Z" transform="translate(-3.81 -36.1)"/><path class="cls-1" d="M131.35,99.65a10.19,10.19,0,0,0,4.06-1" transform="translate(-3.81 -36.1)"/><path class="cls-1" d="M132.23,106a3.71,3.71,0,0,0,2.41,1.08" transform="translate(-3.81 -36.1)"/><path class="cls-1" d="M137.05,96.89a1.91,1.91,0,0,0,0-2" transform="translate(-3.81 -36.1)"/><path class="cls-1" d="M127.62,111.81s1.54,0.54,1.64,1.64" transform="translate(-3.81 -36.1)"/><path class="cls-1" d="M110.73,109.46s-2.41-5.67-1.32-7.53c-1.43-2-2.19-5.94-4.28-6s-1.86-2-3.84-5.29" transform="translate(-3.81 -36.1)"/><path class="cls-1" d="M115.34,87s-0.77,1.82-2.19,1" transform="translate(-3.81 -36.1)"/><path class="cls-1" d="M122.36,73.6s1.54,2.23,2.3,2.34" transform="translate(-3.81 -36.1)"/><line class="cls-1" x1="103.08" y1="32.82" x2="103.08" y2="34.91"/><path class="cls-1" d="M115.34,68.11a2,2,0,0,0-2.19-.94" transform="translate(-3.81 -36.1)"/><path class="cls-1" d="M110.73,69.36a2.27,2.27,0,0,0-1,1.64" transform="translate(-3.81 -36.1)"/><line class="cls-1" x1="111.53" y1="43.52" x2="112.73" y2="43.52"/><path class="cls-1" d="M103.39,80.11v2" transform="translate(-3.81 -36.1)"/><path class="cls-1" d="M115.34,77.92a2.38,2.38,0,0,1,1.21.71" transform="translate(-3.81 -36.1)"/><path class="cls-4" d="M106,107.09c-0.22-.95-1.59-4.12.33-5-0.44-1-1.65-1.26-2-3" transform="translate(-3.81 -36.1)"/><path class="cls-1" d="M124.17,117.94a2,2,0,0,0,1.59,0" transform="translate(-3.81 -36.1)"/><path class="cls-1" d="M134.09,117.28s-0.11.83-.71,0.74" transform="translate(-3.81 -36.1)"/><path class="cls-2" d="M113.69,105.6s0.54,1.49,1,1.49a2.73,2.73,0,0,1,1.71.61c0.23,0.24,1.55-.39,1.83.58" transform="translate(-3.81 -36.1)"/><path class="cls-1" d="M113.31,114.27s0.7,1.56,1.43,1.56c1.12,0,1.78-.36,1.86-1.07" transform="translate(-3.81 -36.1)"/></svg>