<?xml version="1.0" encoding="utf-8"?>
<!-- Generator: Adobe Illustrator 19.2.1, SVG Export Plug-In . SVG Version: 6.00 Build 0)  -->
<svg version="1.1" id="图层_1" xmlns="http://www.w3.org/2000/svg" xmlns:xlink="http://www.w3.org/1999/xlink" x="0px" y="0px"
	 viewBox="0 0 146.5 138" style="enable-background:new 0 0 146.5 138;" xml:space="preserve">
<style type="text/css">
	.st0{fill:#EFEEED;stroke:#000000;stroke-width:2;stroke-linecap:round;stroke-linejoin:round;}
</style>
<title>garlic</title>
<path class="st0" d="M71.6,22c0,0-37.7,20.2-46.6,46.3c-5.6,15,2.6,36.3,17.5,38C57.5,108,71.6,22,71.6,22z"/>
<path class="st0" d="M73.7,22c0,0-29,23.9-34.9,53.9c-2.9,15.9,1.8,32.1,14.5,37.4s20.4-7.4,20.4-7.4V22z"/>
<path class="st0" d="M74.9,22c0,0,37.7,20.2,46.6,46.3c5.6,15-2.6,36.3-17.5,38C89,108,74.9,22,74.9,22z"/>
<path class="st0" d="M75,22c0,0,29.7,23.9,35.6,53.9c2.9,15.9-2.2,32.1-14.8,37.4S75,106,75,106L75,22L75,22z"/>
<path class="st0" d="M75.2,22c0,0-32.4,59.8-3.8,91.9c4.7,4.4,10.9,0.9,12.4-1.8S107.6,75.6,75.2,22z"/>
</svg>
