<svg id="图层_1" data-name="图层 1" xmlns="http://www.w3.org/2000/svg" viewBox="0 0 221.3 200.92"><defs><style>.cls-1{fill:none;}.cls-1,.cls-2{stroke:#141414;}.cls-1,.cls-2,.cls-3{stroke-miterlimit:10;stroke-width:2px;}.cls-2{fill:#73aa2d;}.cls-3{fill:#b58ebb;stroke:#531b7a;}</style></defs><title>grapes</title><path class="cls-1" d="M82,75.72S61.16,58.95,73.74,50.28,90,58.58,82,63s-26.62,1.52-26.62,1.52" transform="translate(-8 -22.81)"/><path class="cls-2" d="M101.23,68.66S102.16,40,122.59,23.88c0,0,20.89,3.75,22.75,30.62,0,0,6.73-10.21,15.4-14l3.06,9.22S183.58,38.65,205.24,46c0,0,10.51,23.49-5,39.58L211.42,90s-3.72,14.79-15.48,19.13c0,0,27.38-3.71,32.34,17.33,0,0-4.28,22.9-59.28,22.9v16.09l-22.43-.62s-24.22-9.29-26.69-15.48S101.23,68.66,101.23,68.66Z" transform="translate(-8 -22.81)"/><path class="cls-1" d="M189.13,58.38s-27.86,40.85-50.76,43.33" transform="translate(-8 -22.81)"/><path class="cls-1" d="M124.13,40.48s-3.71,24.71,0,36.47" transform="translate(-8 -22.81)"/><path class="cls-1" d="M203.37,132s-31.37,10.46-50.14-5" transform="translate(-8 -22.81)"/><circle class="cls-3" cx="84.58" cy="178.25" r="21.67"/><circle class="cls-3" cx="87.66" cy="67.2" r="21.67"/><circle class="cls-3" cx="126.46" cy="67.2" r="21.67"/><circle class="cls-3" cx="47.23" cy="67.2" r="21.67"/><circle class="cls-3" cx="62.92" cy="148.23" r="21.67"/><circle class="cls-3" cx="103.35" cy="148.23" r="21.67"/><circle class="cls-3" cx="47.23" cy="120.38" r="21.67"/><circle class="cls-3" cx="87.66" cy="120.38" r="21.67"/><circle class="cls-3" cx="126.46" cy="120.38" r="21.67"/><circle class="cls-3" cx="22.67" cy="92.52" r="21.67"/><circle class="cls-3" cx="66" cy="92.52" r="21.67"/><circle class="cls-3" cx="104.8" cy="92.52" r="21.67"/><circle class="cls-3" cx="148.13" cy="92.52" r="21.67"/></svg>