<svg id="图层_1" data-name="图层 1" xmlns="http://www.w3.org/2000/svg" viewBox="0 0 218 218"><defs><style>.cls-1{fill:#fff;}.cls-1,.cls-2{stroke:#000;}.cls-1,.cls-2,.cls-3,.cls-4,.cls-5{stroke-miterlimit:10;}.cls-1,.cls-4,.cls-5{stroke-width:2px;}.cls-2{fill:none;stroke-width:3px;}.cls-3{fill:#2a4918;stroke:#0c0c0c;}.cls-4{fill:#83b887;}.cls-4,.cls-5{stroke:#2a4918;}.cls-5{fill:#9fdca0;}</style></defs><title>green beans</title><circle class="cls-1" cx="109" cy="109" r="108"/><path class="cls-2" d="M41.13,84.49s21-62.51,91-52.25" transform="translate(-10.27 -9.93)"/><path class="cls-2" d="M37,111.22A43.93,43.93,0,0,1,39,93" transform="translate(-10.27 -9.93)"/><path class="cls-3" d="M142.48,70.15a26.66,26.66,0,0,0,3-9.58l1.64,0.81S144.27,69.12,142.48,70.15Z" transform="translate(-10.27 -9.93)"/><path class="cls-4" d="M92.55,101.18s-4.07-3.13-3-6.5L88,93.57h2.16a7.15,7.15,0,0,1,5-5.3c4.18-1.08,14.83,1.94,22.32-3.19s12.07-12.72,16-14.88,7.15-1.37,9,0-11.2,25.21-29.61,30.47S92.55,101.18,92.55,101.18Z" transform="translate(-10.27 -9.93)"/><path class="cls-4" d="M91.49,106.44s4.86-.81,4.86-3.78,2.43-4.32,5.13-4.59,16.73-.81,23.2-9.71,9.71-20.23,15.65-19.69,9.17,3.24,9.71,6.47-1.89,18.08-22.12,31.29-31.83,7.28-31.83,7.28S90.14,110.48,91.49,106.44Z" transform="translate(-10.27 -9.93)"/><circle class="cls-5" cx="130.65" cy="68.59" r="4.59"/><circle class="cls-5" cx="124.03" cy="80.45" r="4.59"/><circle class="cls-5" cx="114.8" cy="89.63" r="4.59"/><circle class="cls-5" cx="103.6" cy="94.89" r="4.59"/><circle class="cls-5" cx="92.81" cy="97.32" r="3.98"/><path class="cls-3" d="M120.67,139.46a26.66,26.66,0,0,0,8.5-5.35l0.73,1.68S122.71,139.84,120.67,139.46Z" transform="translate(-10.27 -9.93)"/><path class="cls-4" d="M62.52,130.88s-1.31-4.75,1.69-6.63l-0.71-1.6,1.65,1.39s3.57-3,7.46-1.09,10.18,10.93,19.21,11.86,17.49-2,21.87-1.09,6.37,3.54,6.94,5.79-24.83,12-42.28,4.11S62.52,130.88,62.52,130.88Z" transform="translate(-10.27 -9.93)"/><path class="cls-4" d="M58.31,134.21s4.23,2.52,6.15.26,4.64-1.73,6.88-.19,13.29,10.19,24,7.58,20.49-9.17,24.67-4.92,4.91,8.4,3.23,11.22-13.12,12.57-37.1,9.59-29-15-29-15S54.66,136.42,58.31,134.21Z" transform="translate(-10.27 -9.93)"/><circle class="cls-5" cx="114.08" cy="144.84" r="4.59" transform="translate(-80.45 128.38) rotate(-49.75)"/><circle class="cls-5" cx="101.36" cy="149.62" r="4.59" transform="translate(-88.6 120.37) rotate(-49.75)"/><circle class="cls-5" cx="88.39" cy="150.65" r="4.59" transform="translate(-93.98 110.83) rotate(-49.75)"/><circle class="cls-5" cx="76.44" cy="147.43" r="4.59" transform="translate(-95.75 100.58) rotate(-49.75)"/><circle class="cls-5" cx="66.64" cy="142.31" r="3.98" transform="translate(-95.31 91.28) rotate(-49.75)"/><path class="cls-3" d="M160.3,102.49A26.66,26.66,0,0,0,157,93l1.8-.33S161.12,100.58,160.3,102.49Z" transform="translate(-10.27 -9.93)"/><path class="cls-4" d="M138.82,157.2s-4.93.21-6.08-3.14l-1.72.34,1.73-1.29s-2.08-4.15.62-7.51,12.94-7.45,15.88-16,2-17.49,3.87-21.56,4.89-5.41,7.21-5.45,6.08,26.89-5.54,42.11S138.82,157.2,138.82,157.2Z" transform="translate(-10.27 -9.93)"/><path class="cls-4" d="M141.11,162.05s3.41-3.55,1.64-5.93-0.63-4.91,1.37-6.74,12.93-10.65,12.79-21.65-4.31-22,.77-25.14S167,99.7,169.34,102s9.29,15.62,1,38.31-21.17,24.87-21.17,24.87S142.45,166.1,141.11,162.05Z" transform="translate(-10.27 -9.93)"/><circle class="cls-5" cx="164.05" cy="110.12" r="4.59" transform="matrix(0.8, -0.6, 0.6, 0.8, -43.57, 109.97)"/><circle class="cls-5" cx="165.84" cy="123.59" r="4.59" transform="translate(-51.26 113.71) rotate(-36.71)"/><circle class="cls-5" cx="163.92" cy="136.46" r="4.59" transform="translate(-59.34 115.12) rotate(-36.71)"/><circle class="cls-5" cx="158.09" cy="147.37" r="4.59" transform="translate(-67.01 113.79) rotate(-36.71)"/><circle class="cls-5" cx="150.89" cy="155.77" r="3.98" transform="translate(-73.46 111.15) rotate(-36.71)"/></svg>