<svg id="图层_1" data-name="图层 1" xmlns="http://www.w3.org/2000/svg" viewBox="0 0 218 218"><defs><style>.cls-1{fill:#fff;}.cls-1,.cls-2,.cls-3{stroke:#000;stroke-miterlimit:10;}.cls-1,.cls-3{stroke-width:2px;}.cls-2{fill:none;stroke-width:3px;}.cls-3{fill:#f4642a;}</style></defs><title>grilled shrimp </title><circle class="cls-1" cx="109" cy="109" r="108"/><path class="cls-2" d="M40.91,84.18s21-62.51,91-52.25" transform="translate(-10.05 -9.62)"/><path class="cls-2" d="M36.75,110.92a43.93,43.93,0,0,1,2.05-18.23" transform="translate(-10.05 -9.62)"/><path class="cls-3" d="M134,79.6a9.42,9.42,0,0,0-.61-2.13c-0.35.69-1.72,4.15-2.83,3.68s0-7.64,0-7.64,1.38,1.61,2.24,2.75c-1.93-3.36-5.79-5.84-10.14-6.84,0.49,4-.37,4.88-1.34,4.83C120,74,119.56,70.8,119.39,69A15.74,15.74,0,0,0,109,72a15.82,15.82,0,0,1,2.55,3.61c0.2,1-.2,2.5-2.5.7-1.13-.89-1.92-1.55-2.44-2-0.19.23-.38,0.46-0.56,0.7-4.59,7.59-3.2,6.79,3,10.59,0,0,4,1.86,5.59-.8s8.26-8,13.31-1.07c4.79,5.06-1.33,17-1.33,17s3.59-1.6,4.39-1C131,99.77,135.59,89.78,134,79.6Z" transform="translate(-10.05 -9.62)"/><path class="cls-3" d="M95.64,79.6A9.42,9.42,0,0,0,95,77.46c-0.35.69-1.72,4.15-2.83,3.68s0-7.64,0-7.64,1.38,1.61,2.24,2.75c-1.93-3.36-5.79-5.84-10.14-6.84,0.49,4-.37,4.88-1.34,4.83C81.68,74,81.21,70.8,81,69a15.74,15.74,0,0,0-10.42,3,15.82,15.82,0,0,1,2.55,3.61c0.2,1-.2,2.5-2.5.7-1.13-.89-1.92-1.55-2.44-2-0.19.23-.38,0.46-0.56,0.7-4.59,7.59-3.2,6.79,3,10.59,0,0,4,1.86,5.59-.8s8.26-8,13.31-1.07c4.79,5.06-1.33,17-1.33,17s3.59-1.6,4.39-1C92.65,99.77,97.24,89.78,95.64,79.6Z" transform="translate(-10.05 -9.62)"/><path class="cls-3" d="M156.34,115.3a9.42,9.42,0,0,0-.61-2.13c-0.35.69-1.72,4.15-2.83,3.68s0-7.64,0-7.64,1.38,1.61,2.24,2.75c-1.93-3.36-5.79-5.84-10.14-6.84,0.49,4-.37,4.88-1.34,4.83-1.28-.25-1.75-3.46-1.91-5.29a15.74,15.74,0,0,0-10.42,3,15.82,15.82,0,0,1,2.55,3.61c0.2,1-.2,2.5-2.5.7-1.13-.89-1.92-1.55-2.44-2-0.19.23-.38,0.46-0.56,0.7-4.59,7.59-3.2,6.79,3,10.59,0,0,4,1.86,5.59-.8s8.26-8,13.31-1.07c4.79,5.06-1.33,17-1.33,17s3.59-1.6,4.39-1C153.34,135.47,157.93,125.49,156.34,115.3Z" transform="translate(-10.05 -9.62)"/><path class="cls-3" d="M178.65,83.17A9.42,9.42,0,0,0,178,81c-0.35.69-1.72,4.15-2.83,3.68s0-7.64,0-7.64,1.38,1.61,2.24,2.75C175.51,76.47,171.65,74,167.3,73c0.49,4-.37,4.88-1.34,4.83-1.28-.25-1.75-3.46-1.91-5.29a15.74,15.74,0,0,0-10.42,3,15.82,15.82,0,0,1,2.55,3.61c0.2,1-.2,2.5-2.5.7-1.13-.89-1.92-1.55-2.44-2-0.19.23-.38,0.46-0.56,0.7-4.59,7.59-3.2,6.79,3,10.59,0,0,4,1.86,5.59-.8s8.26-8,13.31-1.07c4.79,5.06-1.33,17-1.33,17s3.59-1.6,4.39-1C175.65,103.34,180.25,93.35,178.65,83.17Z" transform="translate(-10.05 -9.62)"/><path class="cls-3" d="M141.16,151a9.42,9.42,0,0,0-.61-2.13c-0.35.69-1.72,4.15-2.83,3.68s0-7.64,0-7.64,1.38,1.61,2.24,2.75c-1.93-3.36-5.79-5.84-10.14-6.84,0.49,4-.37,4.88-1.34,4.83-1.28-.25-1.75-3.46-1.91-5.29a15.74,15.74,0,0,0-10.42,3,15.82,15.82,0,0,1,2.55,3.61c0.2,1-.2,2.5-2.5.7-1.13-.89-1.92-1.55-2.44-2-0.19.23-.38,0.46-0.56,0.7-4.59,7.59-3.2,6.79,3,10.59,0,0,4,1.86,5.59-.8s8.26-8,13.31-1.07c4.79,5.06-1.33,17-1.33,17s3.59-1.6,4.39-1C138.17,171.17,142.76,161.19,141.16,151Z" transform="translate(-10.05 -9.62)"/><path class="cls-3" d="M89.39,140.29a9.42,9.42,0,0,0-.61-2.13c-0.35.69-1.72,4.15-2.83,3.68s0-7.64,0-7.64,1.38,1.61,2.24,2.75c-1.93-3.36-5.79-5.84-10.14-6.84,0.49,4-.37,4.88-1.34,4.83-1.28-.25-1.75-3.46-1.91-5.29a15.74,15.74,0,0,0-10.42,3,15.82,15.82,0,0,1,2.55,3.61c0.2,1-.2,2.5-2.5.7-1.13-.89-1.92-1.55-2.44-2-0.19.23-.38,0.46-0.56,0.7-4.59,7.59-3.2,6.79,3,10.59,0,0,4,1.86,5.59-.8s8.26-8,13.31-1.07c4.79,5.06-1.33,17-1.33,17s3.59-1.6,4.39-1C86.4,160.46,91,150.48,89.39,140.29Z" transform="translate(-10.05 -9.62)"/><path class="cls-3" d="M116.41,114.75a9.42,9.42,0,0,0-.61-2.13c-0.35.69-1.72,4.15-2.83,3.68s0-7.64,0-7.64,1.38,1.61,2.24,2.75c-1.93-3.36-5.79-5.84-10.14-6.84,0.49,4-.37,4.88-1.34,4.83-1.28-.25-1.75-3.46-1.91-5.29a15.74,15.74,0,0,0-10.42,3,15.82,15.82,0,0,1,2.55,3.61c0.2,1-.2,2.5-2.5.7-1.13-.89-1.92-1.55-2.44-2-0.19.23-.38,0.46-0.56,0.7-4.59,7.59-3.2,6.79,3,10.59,0,0,4,1.86,5.59-.8s8.26-8,13.31-1.07c4.79,5.06-1.33,17-1.33,17s3.59-1.6,4.39-1C113.42,134.92,118,124.93,116.41,114.75Z" transform="translate(-10.05 -9.62)"/></svg>