<svg id="图层_1" data-name="图层 1" xmlns="http://www.w3.org/2000/svg" viewBox="0 0 218 218"><defs><style>.cls-1,.cls-4{fill:#fff;}.cls-1,.cls-2,.cls-3{stroke:#000;stroke-miterlimit:10;}.cls-1,.cls-3{stroke-width:2px;}.cls-2{fill:none;stroke-width:3px;}.cls-3,.cls-5{fill:#930611;}</style></defs><title>grilled steak</title><circle class="cls-1" cx="109" cy="109" r="108"/><path class="cls-2" d="M40.36,84.06s21-62.51,91-52.25" transform="translate(-9.5 -9.5)"/><path class="cls-2" d="M36.21,110.8a43.93,43.93,0,0,1,2.05-18.23" transform="translate(-9.5 -9.5)"/><path class="cls-3" d="M48.24,120.74s0-23.46,29.78-24.37S106.9,86.45,112.31,81s34.29-14.44,61.36,0S198,129.77,183.6,143.3c-19.54,18.32-82.12,34.29-120,3.61C48.24,135.18,48.24,120.74,48.24,120.74Z" transform="translate(-9.5 -9.5)"/><path class="cls-4" d="M56.06,120.52s0-21,26.59-21.76,25.79-8.86,30.62-13.7,30.62-12.89,54.79,0,21.76,43.51,8.86,55.6C159.48,157,103.6,171.29,69.76,143.89,56.06,133.42,56.06,120.52,56.06,120.52Z" transform="translate(-9.5 -9.5)"/><path class="cls-5" d="M180.16,114A30.57,30.57,0,0,0,166.3,90Z" transform="translate(-9.5 -9.5)"/><path class="cls-5" d="M169.44,140.39c0.77-.6,1.5-1.21,2.16-1.83a27.66,27.66,0,0,0,7.16-12.26l-24.1-41.74a55.69,55.69,0,0,0-18.89-2.49Z" transform="translate(-9.5 -9.5)"/><path class="cls-5" d="M149.28,150.45a79.32,79.32,0,0,0,14-6l-35.51-61.5c-6.84,1.25-11.91,3.54-13.72,5.35-0.14.14-.26,0.29-0.39,0.44Z" transform="translate(-9.5 -9.5)"/><path class="cls-5" d="M126,155.09a102.42,102.42,0,0,0,16-2.56l-33.26-57.6c-2.46,2.23-6.47,4.21-14.46,5.18Z" transform="translate(-9.5 -9.5)"/><path class="cls-5" d="M65.66,110.32a20.22,20.22,0,0,0-3.35,10s0,11.66,12.39,21.13a57.75,57.75,0,0,0,13.65,8.13Z" transform="translate(-9.5 -9.5)"/><path class="cls-5" d="M98.88,153.11a82,82,0,0,0,18.77,2.28L86.07,100.7c-6.75.25-11.53,2-15,4.26Z" transform="translate(-9.5 -9.5)"/></svg>