<svg id="图层_1" data-name="图层 1" xmlns="http://www.w3.org/2000/svg" viewBox="0 0 218 218"><defs><style>.cls-1{fill:#fff;}.cls-1,.cls-2,.cls-3,.cls-4{stroke:#000;stroke-miterlimit:10;}.cls-1,.cls-3,.cls-4{stroke-width:2px;}.cls-2,.cls-4{fill:none;}.cls-2{stroke-width:3px;}.cls-3{fill:#a53a14;}</style></defs><title>grilled mackerel</title><circle class="cls-1" cx="109" cy="109" r="108"/><path class="cls-2" d="M40.91,84.18s21-62.51,91-52.25" transform="translate(-10.05 -9.62)"/><path class="cls-2" d="M36.75,110.92a43.93,43.93,0,0,1,2.05-18.23" transform="translate(-10.05 -9.62)"/><polygon class="cls-3" points="140.02 54.7 136.67 86.94 167.56 86.94 140.02 54.7"/><path class="cls-3" d="M66.8,176.7s1.34-81.26,90.66-92C157.46,84.7,160.15,153.2,66.8,176.7Z" transform="translate(-10.05 -9.62)"/><path class="cls-4" d="M79.65,132.87s25.26,7.08,28.7,27.47" transform="translate(-10.05 -9.62)"/><circle cx="72.77" cy="146.74" r="3.17"/><line class="cls-4" x1="81.95" y1="117.94" x2="124.95" y2="117.94"/><line class="cls-4" x1="91.95" y1="104.94" x2="124.95" y2="104.94"/><line class="cls-4" x1="108.95" y1="93.94" x2="134.95" y2="93.94"/><line class="cls-4" x1="121.89" y1="86.49" x2="116.07" y2="131.71"/><line class="cls-4" x1="103.09" y1="94.55" x2="98.3" y2="131.71"/></svg>