<svg id="图层_1" data-name="图层 1" xmlns="http://www.w3.org/2000/svg" viewBox="0 0 218 218"><defs><style>.cls-1{fill:#fff;}.cls-1,.cls-2,.cls-3,.cls-4{stroke:#000;stroke-miterlimit:10;}.cls-1,.cls-3{stroke-width:2px;}.cls-2{fill:none;stroke-width:3px;}.cls-3{fill:#f4c290;}.cls-4{fill:#f28830;}</style></defs><title>grilled chicken breast</title><circle class="cls-1" cx="109" cy="109" r="108"/><path class="cls-2" d="M40.91,84.18s21-62.51,91-52.25" transform="translate(-10.05 -9.62)"/><path class="cls-2" d="M36.75,110.92a43.93,43.93,0,0,1,2.05-18.23" transform="translate(-10.05 -9.62)"/><path class="cls-3" d="M33.85,134.06s2.58-24.05,49.45-36S166.91,74.22,181,63.3s33.86,22.64,16.22,46.38-79.45,75-129.64,66.76S33.85,134.06,33.85,134.06Z" transform="translate(-10.05 -9.62)"/><path class="cls-4" d="M192.53,88c-2.24-12.87-11.87-22.22-19.58-16.26-0.3.23-.62,0.47-0.95,0.7Z" transform="translate(-10.05 -9.62)"/><path class="cls-4" d="M185.55,113.71c0.51-.63,1-1.25,1.43-1.85a30.29,30.29,0,0,0,4.88-9.92l-30.8-23.35c-4.09,1.92-8.84,3.86-14.15,5.82Z" transform="translate(-10.05 -9.62)"/><path class="cls-4" d="M168.08,131.46c3.6-3.14,6.88-6.23,9.76-9.16l-44-33.38c-4.88,1.58-10.07,3.17-15.55,4.77Z" transform="translate(-10.05 -9.62)"/><path class="cls-4" d="M147.76,147c3.9-2.62,7.64-5.34,11.18-8.08L104.37,97.6q-7.72,2.1-16,4.2l-0.23.06Z" transform="translate(-10.05 -9.62)"/><path class="cls-4" d="M124.41,160.34c4.4-2,8.72-4.32,12.92-6.75L74.78,106.16a73.82,73.82,0,0,0-13.07,6.64Z" transform="translate(-10.05 -9.62)"/></svg>