<svg id="图层_1" data-name="图层 1" xmlns="http://www.w3.org/2000/svg" viewBox="0 0 190.81 185.06"><defs><style>.cls-1{fill:#097f0f;}.cls-1,.cls-2,.cls-3{stroke:#000;stroke-miterlimit:10;}.cls-2{fill:#8fc030;}.cls-3{fill:#a3d672;}</style></defs><title>kale</title><path class="cls-1" d="M93.05,131.48s-6-6.34,2.55-17.73c-0.93-6.8-3.8-14,1.84-18.12,5.51-4.87,7.71-14.73,14.65-16,6.54-3.5,8.42-14.89,17.09-18.89C139,57.12,148.93,45.93,153.73,44s13.68-15.65,22.34-13a23.44,23.44,0,0,0,10.33-.66Z" transform="translate(-30.3 -29.21)"/><path class="cls-2" d="M103.48,86.73A31.9,31.9,0,0,0,105.36,84Z" transform="translate(-30.3 -29.21)"/><path class="cls-2" d="M198.18,59.44c-4.94,2.86-9,4.66-12.07,4.46s-10.66-3.68-16.86-1.95a19.5,19.5,0,0,0-12.47-1.08L143,75.79C136,76,119.56,89.57,115.82,94s-6.15,19.59-10.82,22.26c-4.4,2.46-11.95,15.19-11.95,15.19s-2.54,2.73-5.34,5.66-19.42,24.12-21.89,26.38-3.07,4.8-7,4-2-7.67,1.15-14.6c2.74-6,35.28-54.07,43.51-66.19-6,8.24-23.68,30.94-23.68,30.94s-24.9,35.71-27.24,42,1.26,12.8.32,16S45,194.11,35.12,203.17s0.26,9.8.26,9.8c8.73,3.87,9.41-7.46,11-8.66s19.75-18.12,19.75-18.12,12.41-6.79,26.75-15.44c29.55-16.71,28.41-10.44,35.27-8.5,17.52,3.44,29.73.23,35.14-4.24,7.07-2.79,28.55-16.38,28.55-16.38s3.88-12.06-.72-16.53c-5.66-3.67-18.53-1.95-25.27.18-10.13.92-18.88,10.38-24.68,16s-9.74,6.46-12.21,7.06-8.94,5.86-11.47,6.92S75.68,177.8,75.68,177.8s-7.07,1.13-5.26-3.14c7.21-15.39,42.56-34.36,51.23-38.36s9.14-7.26,11.41-9.79,3,0.67,9.14-3.93c10.61-7.52,11.27-7.19,15.21-8.05,1.93-1.86,43.29-26.16,49.29-29.82s17.28-15.85,13-23.86S203.12,56.58,198.18,59.44ZM90,152.48C79.5,159.54,70,164.6,66.42,174.33l-4.54,8.4L51.4,191l6.21-13.39,27.7-35.31S98.46,128.69,103.45,132C103.45,132,102.37,146.16,90,152.48Z" transform="translate(-30.3 -29.21)"/><path class="cls-3" d="M198.14,59.38c-4.94,2.86-9,4.66-12.07,4.46s-10.66-3.68-16.86-1.95a19.5,19.5,0,0,0-12.47-1.08L142.92,75.73C136,75.92,119.51,89.51,115.77,94s-6.15,19.59-10.82,22.26c-4.4,2.46-15.28,16.85-15.28,16.85S68.25,161.2,65.78,163.46c-1.09,1,33.38-37.18,36.57-31.24,1.77,3.29-17.39,18.41-30.12,32.16a53.48,53.48,0,0,0-10.81,17.74s4.58,3.27,18.92-5.38c29.55-16.71,40.91-16.49,47.77-14.55,17.52,3.44,29.73.23,35.14-4.24,7.07-2.79,28.55-16.38,28.55-16.38s3.88-12.06-.72-16.53c-5.66-3.67-18.53-1.95-25.27.18-10.13.92-18.88,10.38-24.68,16s-9.74,6.46-12.21,7.06-8.94,5.86-11.47,6.92-41.82,22.56-41.82,22.56-7.07,1.13-5.26-3.14c7.21-15.39,42.56-34.36,51.23-38.36s9.14-7.26,11.41-9.79,3,0.67,9.14-3.93c10.61-7.52,11.27-7.19,15.21-8.05,1.93-1.86,43.29-26.16,49.29-29.82s17.28-15.85,13-23.86S203.07,56.52,198.14,59.38Z" transform="translate(-30.3 -29.21)"/></svg>