<svg id="图层_1" data-name="图层 1" xmlns="http://www.w3.org/2000/svg" viewBox="0 0 218 218"><defs><style>.cls-1{fill:#fff;}.cls-1,.cls-2,.cls-3,.cls-4,.cls-5,.cls-6,.cls-7{stroke:#000;stroke-miterlimit:10;}.cls-1,.cls-3,.cls-6{stroke-width:2px;}.cls-2,.cls-7{fill:none;}.cls-2{stroke-width:3px;}.cls-3{fill:#be7662;}.cls-4{fill:#f8c8be;}.cls-5{fill:#dab4a1;}.cls-6{fill:#f0b7ae;}</style></defs><title>lamb chop</title><circle class="cls-1" cx="109" cy="109" r="108"/><path class="cls-2" d="M40.36,84.06s21-62.51,91-52.25" transform="translate(-9.5 -9.5)"/><path class="cls-2" d="M36.21,110.8a43.93,43.93,0,0,1,2.05-18.23" transform="translate(-9.5 -9.5)"/><path class="cls-3" d="M179.34,57.19s8.48,4.49,6.28,13.93S150.39,144.83,79.1,174.59c-24.63,9.28-28.8-27.1-27.21-33.28S56,122.1,85.82,114.74c28.56-6.05,34.8,3,45.15-3.25,4-2.42,25.57-15.46,36.11-40.56C174.12,54,179.34,57.19,179.34,57.19Z" transform="translate(-9.5 -9.5)"/><path class="cls-4" d="M176.84,70.86s5.83-2.64-.9,10.08-40.23,55.87-75.83,76.92c0,0,44.91-37.7,66.76-73C171.36,77.07,173.29,74.46,176.84,70.86Z" transform="translate(-9.5 -9.5)"/><path class="cls-5" d="M129.24,119.2a1.34,1.34,0,0,1,2,1.68c-1.24,2.67-4.08,6.4-10.47,10.83-3.58,2.28-8.49-5.46-7-6.94C114.87,123.57,124.06,122.75,129.24,119.2Z" transform="translate(-9.5 -9.5)"/><path class="cls-6" d="M101.31,121.61s11.45,11,9.39,18c-2.07,6.35-31.29,33.7-39.14,26s-15.13-24.92-11.11-30.63S91.77,113.64,101.31,121.61Z" transform="translate(-9.5 -9.5)"/><path class="cls-7" d="M103.85,136.06s-17.06.61-27.82-4.19" transform="translate(-9.5 -9.5)"/><path class="cls-7" d="M93.46,149.05s-16.31,2.8-25.37-3.23" transform="translate(-9.5 -9.5)"/><path class="cls-7" d="M94.05,132.7a43,43,0,0,1-8.33,19.63" transform="translate(-9.5 -9.5)"/><path class="cls-7" d="M72,152.13s6.87-13.56,8.45-21.2" transform="translate(-9.5 -9.5)"/></svg>