<svg id="图层_1" data-name="图层 1" xmlns="http://www.w3.org/2000/svg" viewBox="0 0 218 218"><defs><style>.cls-1{fill:#fff;stroke-width:2px;}.cls-1,.cls-2{stroke:#000;stroke-miterlimit:10;}.cls-2{fill:none;stroke-width:3px;}.cls-3{fill:#7c4f28;}.cls-4{fill:#282921;}.cls-5{fill:#f2bc76;}.cls-6{fill:#f6c276;}.cls-7{fill:#1e1d1b;}.cls-8{fill:#fdde9b;}</style></defs><title>mushrooms</title><circle class="cls-1" cx="109" cy="109" r="108"/><path class="cls-2" d="M41.13,84.49s21-62.51,91-52.25" transform="translate(-10.27 -9.93)"/><path class="cls-2" d="M37,111.22A43.93,43.93,0,0,1,39,93" transform="translate(-10.27 -9.93)"/><path class="cls-3" d="M78.22,108.61s-17.11-1-20.43,10.69S66.94,140,74.73,141.08s17.82,1.69,25.37-5.44,1.14-12.17,1.14-12.17l1.38-6.42L93,111.36l-6.05,7.71S75.1,124.39,78.22,108.61Z" transform="translate(-10.27 -9.93)"/><path class="cls-4" d="M78.22,108.61s-12-.85-18.64,8.14c-6.53,8.79,5.25,23,15.16,24.33s26.67,0.09,28.62-12.75c0.55-3.3-2.94-3.3-2.94-3.3s-1.72-4.13,3-3.95,5.26,10.09.86,15.78-30.45,16.68-45.13-2.21S67.76,106.22,78.22,108.61Z" transform="translate(-10.27 -9.93)"/><path class="cls-5" d="M71.16,116.39a7.25,7.25,0,0,0-8.71,1.18c0,1,2.57,0,2.57,0s-1.28,6.57-.73,8.8,7.61-1.08,8.35-3.19S73,116.67,71.16,116.39Z" transform="translate(-10.27 -9.93)"/><path class="cls-5" d="M73,124.39s-4.48,5-4.67,7.8,9.91-4.89,9.91-4.89S75.62,123.75,73,124.39Z" transform="translate(-10.27 -9.93)"/><path class="cls-6" d="M79.87,128.33s-5,4.59-5.6,7.16,9-3.58,9-3.58-2.2,3.21-1.56,4.68,4.56-.09,4.56-0.09-2,2.64-1.93,3.78S94,133.47,94,133.47s-4.84-5.6-2.64-7.61S99,116.36,99,116.36l-5.5-3.26Z" transform="translate(-10.27 -9.93)"/><path class="cls-7" d="M78.22,115s-7-.73-5.87,5.87,5.87,6.6,9.54,6.6,9.54-6.29,12.48-12.5l2.94,1.68s-7.89,7.89-7.89,9.91,0,6.79,5.32,7.89,6.79-3.3,7.34-4.4,0-6.05,0-6.05-0.34-6.73,6.07-7.78a0.25,0.25,0,0,0,.1-0.48l-16.89-7.91a0.62,0.62,0,0,0-.88.41c-0.55,2.36-2.49,9.59-6,10.82C80.24,120.53,78.22,118.54,78.22,115Z" transform="translate(-10.27 -9.93)"/><path class="cls-8" d="M96.38,126.41s-3,1.22-2.41,2.87,1.49,1.35,2.41.62S96.38,126.41,96.38,126.41Z" transform="translate(-10.27 -9.93)"/><path class="cls-3" d="M166.16,92s-13.59-.79-16.24,8.5,7.27,16.43,13.47,17.3,14.16,1.34,20.16-4.32,0.9-9.67.9-9.67l1.09-5.1-7.65-4.52-4.81,6.12S163.68,104.57,166.16,92Z" transform="translate(-10.27 -9.93)"/><path class="cls-4" d="M166.16,92s-9.51-.67-14.81,6.47c-5.19,7,4.17,18.31,12,19.33s21.19,0.07,22.74-10.13c0.44-2.62-2.33-2.62-2.33-2.62s-1.36-3.28,2.38-3.13,4.18,8,.68,12.54-24.2,13.25-35.86-1.76S157.85,90.14,166.16,92Z" transform="translate(-10.27 -9.93)"/><path class="cls-5" d="M160.54,97.93s-3.72-2.36-6.92.64c0,1,2,0,2,0s-1,5.52-.58,7.28,6-.86,6.63-2.53S162,98.14,160.54,97.93Z" transform="translate(-10.27 -9.93)"/><path class="cls-5" d="M162,104.57s-3.56,3.94-3.71,6.2,7.88-3.89,7.88-3.89S164.09,104.06,162,104.57Z" transform="translate(-10.27 -9.93)"/><path class="cls-6" d="M167.47,107.7s-4,3.65-4.45,5.69,7.14-2.84,7.14-2.84-1.75,2.55-1.24,3.72,3.63-.07,3.63-0.07-1.6,2.1-1.53,3,7.65-5.41,7.65-5.41-3.84-4.45-2.1-6a87.58,87.58,0,0,0,6.12-7.54l-4.37-2.59Z" transform="translate(-10.27 -9.93)"/><path class="cls-7" d="M166.16,97.14s-5.54-.58-4.66,4.66,4.66,5.25,7.58,5.25,7.58-5,9.91-9.93l2.33,1.33s-6.27,6.27-6.27,7.87,0,5.39,4.23,6.27,5.39-2.62,5.83-3.5,0-4.81,0-4.81-0.27-5.34,4.83-6.18a0.2,0.2,0,0,0,.08-0.38l-13.42-6.29a0.49,0.49,0,0,0-.7.32c-0.43,1.87-2,7.62-4.78,8.59C167.76,101.51,166.16,99.93,166.16,97.14Z" transform="translate(-10.27 -9.93)"/><path class="cls-8" d="M180.59,106.18s-2.35,1-1.91,2.28,1.18,1.08,1.91.49S180.59,106.18,180.59,106.18Z" transform="translate(-10.27 -9.93)"/><path class="cls-3" d="M93,150.05s-13.59-.79-16.24,8.5S84,175,90.2,175.85s14.16,1.34,20.16-4.32,0.9-9.67.9-9.67l1.09-5.1-7.65-4.52-4.81,6.12S90.49,162.59,93,150.05Z" transform="translate(-10.27 -9.93)"/><path class="cls-4" d="M93,150.05s-9.51-.67-14.81,6.47c-5.19,7,4.17,18.31,12,19.33s21.19,0.07,22.74-10.13c0.44-2.62-2.33-2.62-2.33-2.62s-1.36-3.28,2.38-3.13,4.18,8,.68,12.54-24.2,13.25-35.86-1.76S84.66,148.16,93,150.05Z" transform="translate(-10.27 -9.93)"/><path class="cls-5" d="M87.35,155.93s-3.72-2.37-6.92.63c0,1,2,0,2,0s-1,5.52-.58,7.29,6-.86,6.63-2.53S88.81,156.15,87.35,155.93Z" transform="translate(-10.27 -9.93)"/><path class="cls-5" d="M88.8,162.59s-3.56,3.94-3.71,6.2S93,164.9,93,164.9,90.9,162.08,88.8,162.59Z" transform="translate(-10.27 -9.93)"/><path class="cls-6" d="M94.28,165.72s-4,3.65-4.45,5.69S97,168.57,97,168.57s-1.75,2.55-1.24,3.72,3.63-.07,3.63-0.07-1.6,2.1-1.53,3,7.65-5.41,7.65-5.41-3.84-4.45-2.1-6a87.58,87.58,0,0,0,6.12-7.54l-4.37-2.59Z" transform="translate(-10.27 -9.93)"/><path class="cls-7" d="M93,155.16s-5.54-.58-4.66,4.66,4.66,5.25,7.58,5.25,7.58-5,9.91-9.93l2.33,1.33s-6.27,6.27-6.27,7.87,0,5.39,4.23,6.27,5.39-2.62,5.83-3.5,0-4.81,0-4.81-0.27-5.34,4.83-6.18a0.2,0.2,0,0,0,.08-0.38l-13.42-6.29a0.49,0.49,0,0,0-.7.32c-0.43,1.87-2,7.62-4.78,8.59C94.57,159.53,93,157.94,93,155.16Z" transform="translate(-10.27 -9.93)"/><path class="cls-8" d="M107.4,164.19s-2.35,1-1.91,2.28,1.18,1.08,1.91.49S107.4,164.19,107.4,164.19Z" transform="translate(-10.27 -9.93)"/><path class="cls-3" d="M111.72,67.58s-20-1.16-23.91,12.51,10.71,24.19,19.83,25.48,20.85,2,29.69-6.36S138.65,85,138.65,85l1.61-7.51L129,70.79l-7.08,9S108.07,86,111.72,67.58Z" transform="translate(-10.27 -9.93)"/><path class="cls-4" d="M111.72,67.58s-14-1-21.81,9.52c-7.64,10.29,6.14,27,17.73,28.47s31.2,0.11,33.48-14.92c0.64-3.86-3.43-3.86-3.43-3.86s-2-4.83,3.5-4.62,6.16,11.81,1,18.46S106.57,120.14,89.39,98,99.48,64.79,111.72,67.58Z" transform="translate(-10.27 -9.93)"/><path class="cls-5" d="M103.45,76.93S98,72.57,93.26,78.57c0,1,3,0,3,0s-1.5,7.43-.86,10,8.91-1.26,9.77-3.73S105.6,77.26,103.45,76.93Z" transform="translate(-10.27 -9.93)"/><path class="cls-5" d="M105.58,86s-5.24,5.79-5.46,9.12,11.6-5.73,11.6-5.73S108.68,85.28,105.58,86Z" transform="translate(-10.27 -9.93)"/><path class="cls-6" d="M113.65,90.64S107.75,96,107.1,99s10.52-4.19,10.52-4.19-2.58,3.76-1.82,5.47,5.34-.11,5.34-0.11-2.36,3.09-2.25,4.43,11.27-8,11.27-8-5.66-6.55-3.09-8.91,9-11.11,9-11.11l-6.44-3.81Z" transform="translate(-10.27 -9.93)"/><path class="cls-7" d="M111.72,75.09s-8.16-.86-6.87,6.87,6.87,7.73,11.16,7.73,11.16-7.35,14.59-14.62L134,77s-9.23,9.23-9.23,11.59,0,7.94,6.22,9.23S139,94,139.62,92.69s0-7.08,0-7.08-0.39-7.87,7.11-9.1a0.3,0.3,0,0,0,.12-0.56l-19.76-9.26a0.72,0.72,0,0,0-1,.47c-0.64,2.76-2.92,11.22-7,12.65C114.08,81.53,111.72,79.19,111.72,75.09Z" transform="translate(-10.27 -9.93)"/><path class="cls-8" d="M133,88.39s-3.46,1.42-2.82,3.35,1.74,1.58,2.82.72S133,88.39,133,88.39Z" transform="translate(-10.27 -9.93)"/><path class="cls-3" d="M137.6,121.13s-20-1.16-23.91,12.51,10.71,24.19,19.83,25.48,20.85,2,29.69-6.36,1.33-14.24,1.33-14.24l1.61-7.51-11.27-6.65-7.08,9S134,139.59,137.6,121.13Z" transform="translate(-10.27 -9.93)"/><path class="cls-4" d="M137.6,121.13s-14-1-21.81,9.52c-7.64,10.29,6.14,27,17.73,28.47s31.2,0.11,33.48-14.92c0.64-3.86-3.43-3.86-3.43-3.86s-2-4.83,3.5-4.62,6.16,11.81,1,18.46-35.63,19.51-52.8-2.59S125.37,118.34,137.6,121.13Z" transform="translate(-10.27 -9.93)"/><path class="cls-5" d="M129.34,130.21s-5.47-3.64-10.19,1.36c0,1,3,0,3,0s-1.5,7.71-.86,10.31,8.91-1.26,9.77-3.73S131.48,130.53,129.34,130.21Z" transform="translate(-10.27 -9.93)"/><path class="cls-5" d="M131.47,139.59s-5.24,5.79-5.46,9.12,11.6-5.73,11.6-5.73S134.57,138.84,131.47,139.59Z" transform="translate(-10.27 -9.93)"/><path class="cls-6" d="M139.53,144.2s-5.9,5.37-6.55,8.37,10.52-4.19,10.52-4.19-2.58,3.76-1.82,5.47,5.34-.11,5.34-0.11-2.36,3.09-2.25,4.43,11.27-8,11.27-8-5.66-6.55-3.09-8.91,9-11.11,9-11.11l-6.44-3.81Z" transform="translate(-10.27 -9.93)"/><path class="cls-7" d="M137.6,128.64s-8.16-.86-6.87,6.87,6.87,7.73,11.16,7.73,11.16-7.35,14.59-14.62l3.43,2s-9.23,9.23-9.23,11.59,0,7.94,6.22,9.23,7.94-3.86,8.59-5.15,0-7.08,0-7.08-0.39-7.87,7.11-9.1a0.3,0.3,0,0,0,.12-0.56L153,120.23a0.72,0.72,0,0,0-1,.47c-0.64,2.76-2.92,11.22-7,12.65C140,135.08,137.61,132.75,137.6,128.64Z" transform="translate(-10.27 -9.93)"/><path class="cls-8" d="M158.85,141.95s-3.46,1.42-2.82,3.35,1.74,1.58,2.82.72S158.85,141.95,158.85,141.95Z" transform="translate(-10.27 -9.93)"/></svg>