<svg id="图层_1" data-name="图层 1" xmlns="http://www.w3.org/2000/svg" viewBox="0 0 178.23 186.61"><defs><style>.cls-1{fill:#fbb36b;}.cls-1,.cls-2{stroke:#000;stroke-miterlimit:10;stroke-width:2px;}.cls-2{fill:none;}</style></defs><title>onions</title><path class="cls-1" d="M77.14,43.25a2.68,2.68,0,0,1-1.83-1.72c-0.43-1.32-.42-3.32,2.43-4.94,4.7-2.68,15.43,9.73,15.43,9.73S80.76,35.75,83.11,32.73c1.13-1.45,2.95-1.28,4.8-.06C89.91,34,93.67,42,95.33,44c0,0-9.21-12.11-5.18-14s5.53,1,6,2.18,1.34,10.9,1.34,10.9S95.69,29,96.52,28s4.53-3.35,7-2.35c0,0-1.51,9.56,1,14.42,0,0-3.35-9.56,0-10.73s6.88-2.52,7.72-1.34c0,0-6,14.93-2,22s10.18,11.74,22.25,13.53S186.65,74,201.19,110,200.07,186.31,162,199.5c-36.21,12.57-142,31.42-130.93-62a64.52,64.52,0,0,1,20.35-40C64.27,85.71,79.14,77.82,82.21,74,87.06,68.1,100.26,49.78,77.14,43.25Z" transform="translate(-29.32 -24.44)"/><path class="cls-2" d="M94.73,51.68S101,77.86,65.21,102.34s-23,101.3,45.07,107.39" transform="translate(-29.32 -24.44)"/><path class="cls-2" d="M106.25,48.66s-0.42,21.92,41,28.85c48.2,8.05,71.36,84.78-3.79,127.16" transform="translate(-29.32 -24.44)"/><path class="cls-2" d="M102.34,49.5s0.17,31.93,34.44,44.11c40.59,14.42,38.34,84.31,3.79,111.82" transform="translate(-29.32 -24.44)"/><path class="cls-2" d="M98.54,51.68s1.34,34.55-17.11,58.7C60.3,138,64.66,185.27,118.43,209" transform="translate(-29.32 -24.44)"/></svg>