<svg id="图层_1" data-name="图层 1" xmlns="http://www.w3.org/2000/svg" viewBox="0 0 135.87 166.82"><defs><style>.cls-1{fill:#ffbc00;}.cls-1,.cls-2,.cls-3{stroke:#020202;stroke-linejoin:round;stroke-width:2px;}.cls-2{fill:#9fdd3e;}.cls-3{fill:#77c10e;}.cls-4{fill:#020202;}</style></defs><title>orange</title><circle class="cls-1" cx="67.93" cy="98.89" r="66.93"/><path class="cls-2" d="M101.78,84s-47,5.7-47.71-52C54.07,32,103.2,24.22,101.78,84Z" transform="translate(-50.22 -30.71)"/><path class="cls-3" d="M54.07,32s44.86,32,47.71,52" transform="translate(-50.22 -30.71)"/><path class="cls-2" d="M100.72,85.19s2.69,25.36-28.37,25.28C72.35,110.47,68.52,83.95,100.72,85.19Z" transform="translate(-50.22 -30.71)"/><path class="cls-3" d="M72.35,110.47S90,86.57,100.72,85.19" transform="translate(-50.22 -30.71)"/><circle class="cls-4" cx="96.79" cy="67.55" r="2.92"/><circle class="cls-4" cx="86.75" cy="67.55" r="2.92"/><circle class="cls-4" cx="92.59" cy="58.05" r="2.92"/><circle class="cls-4" cx="80.9" cy="57.03" r="2.92"/><circle class="cls-4" cx="76.7" cy="47.77" r="2.92"/><circle class="cls-4" cx="70.86" cy="57.03" r="2.92"/><circle class="cls-4" cx="90.94" cy="77.52" r="2.92"/><circle class="cls-4" cx="106.68" cy="67.55" r="2.92"/><circle class="cls-4" cx="100.84" cy="77.52" r="2.92"/><circle class="cls-4" cx="112.53" cy="77.52" r="2.92"/><circle class="cls-4" cx="106.68" cy="87.48" r="2.92"/><circle class="cls-4" cx="95.52" cy="87.48" r="2.92"/><circle class="cls-4" cx="100.84" cy="96.03" r="2.92"/><circle class="cls-4" cx="112.53" cy="96.03" r="2.92"/><circle class="cls-4" cx="118.38" cy="87.48" r="2.92"/><circle class="cls-4" cx="117.13" cy="106.16" r="2.92"/><circle class="cls-4" cx="111.28" cy="115.18" r="2.92"/><circle class="cls-4" cx="106.68" cy="106.16" r="2.92"/><circle class="cls-4" cx="96.79" cy="106.16" r="2.92"/><circle class="cls-4" cx="76.7" cy="67.55" r="2.92"/></svg>