<svg id="图层_1" data-name="图层 1" xmlns="http://www.w3.org/2000/svg" viewBox="0 0 218 218"><defs><style>.cls-1{fill:#fff;}.cls-1,.cls-2,.cls-5{stroke:#000;stroke-miterlimit:10;}.cls-1,.cls-5{stroke-width:2px;}.cls-2,.cls-5{fill:none;}.cls-2{stroke-width:3px;}.cls-3{fill:#e44b37;}.cls-4{fill:#f3bcbc;}</style></defs><title>pan seared salmon</title><circle class="cls-1" cx="109" cy="109" r="108"/><path class="cls-2" d="M40.91,84.18s21-62.51,91-52.25" transform="translate(-10.05 -9.62)"/><path class="cls-2" d="M36.75,110.92a43.93,43.93,0,0,1,2.05-18.23" transform="translate(-10.05 -9.62)"/><path class="cls-3" d="M58.78,137s-6.45-5.72-5.56-14.52S49.5,75.11,72.34,65.89a96.29,96.29,0,0,1,15.11-1.37S186.31,93.21,202.82,113c2.22,2-20.61,61.57-29.42,66S58.78,137,58.78,137Z" transform="translate(-10.05 -9.62)"/><path class="cls-4" d="M59,136.74s-4.18-32.23-3.28-40.33S55.2,66,89.86,64.54C120.47,73,197.65,104.43,202.15,112.3,199.68,124.9,173,179,173,179S70.56,153.22,59,136.74Z" transform="translate(-10.05 -9.62)"/><path class="cls-3" d="M60.69,137.92s-4.13-31.84-3.24-39.84S57,68,91.23,66.6C121.46,75,197.71,104.52,202.15,112.3c-2.45,12.45-28.76,67.35-28.76,67.35S72.16,154.2,60.69,137.92Z" transform="translate(-10.05 -9.62)"/><path class="cls-4" d="M69,142.31S59.67,97.39,60.78,85.4,73.67,68.14,77.9,68s12.89-2.81,16-1.92S185.48,95.85,202.82,113c-1.11,11.34-20.39,60.46-29.42,66C159,176.54,76.34,154.76,69,142.31Z" transform="translate(-10.05 -9.62)"/><path class="cls-3" d="M71,144.76s-9.56-49.9-9.11-53.51S64.34,77,68.56,74.07s15.56-6.67,32.9-6c18.67,6.37,86.17,30,101.36,44.9-10.89,31.79-29.42,66-29.42,66S81,158.32,71,144.76Z" transform="translate(-10.05 -9.62)"/><path class="cls-4" d="M86.6,154S63.89,90.3,64.12,82.07C74.79,78.52,95,71,111.24,71.18c20.67,7.56,79.8,30.23,91.58,41.79,2.67,4.2-22.61,64.24-29.42,66C161.92,177,86.6,154,86.6,154Z" transform="translate(-10.05 -9.62)"/><path class="cls-3" d="M89.23,155S65,87.61,66.34,85.4s15.72-11.32,47-12.66c16.29,4.88,77.5,27.34,89.5,40.23,2.22,8.79-23.72,64.24-29.42,66S102.68,165.32,89.23,155Z" transform="translate(-10.05 -9.62)"/><path class="cls-4" d="M106.18,163S77,90.08,77,88.07s43.12-11.56,49.79-11.56c7.78,3.25,65.79,24.45,76,36.45-2.45,18.56-22.83,63.79-29.42,66S106.18,163,106.18,163Z" transform="translate(-10.05 -9.62)"/><path class="cls-3" d="M109.14,164S79.9,92.3,80.34,90.3s4.22-.67,10.45-3.33,25.12-10,41.12-8.22C149,85.41,191.26,101.19,202.82,113c-5.33,19.12-20.17,60-29.42,66C158.23,178.94,110.53,165.41,109.14,164Z" transform="translate(-10.05 -9.62)"/><path class="cls-4" d="M132.9,171.19S99,101.41,99,97.63v-4s34.89-11.34,45.56-10c15.2,5.92,46,18.45,58.25,29.34-6.36,21.07-21.28,62.24-29.42,66C163.91,179,132.9,171.19,132.9,171.19Z" transform="translate(-10.05 -9.62)"/><path class="cls-3" d="M138.29,172.59s-33.27-61.84-35-68.73L101.46,97S135.25,85,149,85.41c15.78,6,38.6,15.78,53.79,27.56-2.89,12.45-22.73,61.38-32.21,66.49C155.45,177.4,151.81,176.15,138.29,172.59Z" transform="translate(-10.05 -9.62)"/><path class="cls-4" d="M159.54,177.75S117.69,107,117.91,104.86s34.45-15.23,46.9-13.45c5.32,2.22,38,21.56,38,21.56s-19.95,61.35-29.42,66C170.61,180.82,159.54,177.75,159.54,177.75Z" transform="translate(-10.05 -9.62)"/><path class="cls-3" d="M162.22,178.41s-40-64.5-39.54-68.94,1.44-3.38,4.33-4.61,31.32-14.12,43.11-11.23c0,0,25.35,10.61,32.69,19.34-4.22,13.56-19.72,61.35-29.42,66C171.45,180.74,162.22,178.41,162.22,178.41Z" transform="translate(-10.05 -9.62)"/><path class="cls-4" d="M177,175.88s-40-62.9-38.9-64.68,39.57-12.45,45.57-11.11l18.45,12.23Z" transform="translate(-10.05 -9.62)"/><path class="cls-3" d="M178.59,172.32s-34.68-53.79-34-60,39-11.11,41.07-10.67,15.61,9.11,17.17,11.34S178.59,172.32,178.59,172.32Z" transform="translate(-10.05 -9.62)"/><path class="cls-4" d="M183.92,164.21s-28.46-43.45-29.79-47.9a1.93,1.93,0,0,1,1.56-2.67s34.09-9.95,38.3-7.1a80.89,80.89,0,0,1,8.83,7.1l-4.45,18.27Z" transform="translate(-10.05 -9.62)"/><path class="cls-3" d="M185.45,161.48s-29.31-43.4-26.87-46.51,34.29-7.73,38.73-6.62a46.12,46.12,0,0,1,5.5,4.62L196,137.92Z" transform="translate(-10.05 -9.62)"/><path class="cls-4" d="M202.82,113s-25.56,3.33-32,6c-2.45,0,19.41,31.87,19.41,31.87S204.32,121.76,202.82,113Z" transform="translate(-10.05 -9.62)"/><path class="cls-3" d="M190.54,147.81s-17.89-25.33-17.89-26.89,28.38-5.77,29.71-5.54S190.54,147.81,190.54,147.81Z" transform="translate(-10.05 -9.62)"/><path class="cls-5" d="M61.88,74.18s4.86-6.32,10.46-8.29,17.52-1.35,17.52-1.35,99.48,29.94,113,48.43c-13.3,53.3-29.42,66-29.42,66s0.15,5.14-59.4-13.16c-56.67-19.79-59.18-35.64-60.85-38S52.95,86.23,61.88,74.18Z" transform="translate(-10.05 -9.62)"/></svg>