<svg id="图层_1" data-name="图层 1" xmlns="http://www.w3.org/2000/svg" viewBox="0 0 124.47 185.37"><defs><style>.cls-1,.cls-2{fill:#afc354;stroke:#020202;}.cls-1,.cls-3{stroke-linejoin:round;}.cls-1,.cls-2,.cls-3{stroke-width:2px;}.cls-2{stroke-miterlimit:10;}.cls-3{fill:none;stroke:#050505;}</style></defs><title>pineapple</title><path class="cls-1" d="M118.21,26.52s-20.08,26-7.48,48h17.33S141.44,44.64,118.21,26.52Z" transform="translate(-55.78 -25.52)"/><rect class="cls-2" x="9.98" y="49.48" width="101.15" height="134.89" rx="26" ry="26"/><path class="cls-1" d="M140.91,74.57S156.41,45,179.25,50.1c0,0-46.91-7.53-55.58,24.47h17.24Z" transform="translate(-55.78 -25.52)"/><path class="cls-1" d="M56.78,50.72s35.84,4.85,39.77,23.85h18.9S103.25,39.86,56.78,50.72Z" transform="translate(-55.78 -25.52)"/><path class="cls-1" d="M124.69,59.87S95.37,29.66,84.34,29.27c0,0,28.35,35.49,26.38,45.73Z" transform="translate(-55.78 -25.52)"/><path class="cls-1" d="M110.73,75S130,37.19,153.65,32.47c0,0-24.42,23.53-21.46,42.53H110.73Z" transform="translate(-55.78 -25.52)"/><line class="cls-3" x1="24.64" y1="53.02" x2="111.13" y2="147.62"/><line class="cls-3" x1="9.98" y1="73.73" x2="103.86" y2="176.35"/><line class="cls-3" x1="54.95" y1="49.48" x2="111.13" y2="110.34"/><line class="cls-3" x1="111.13" y1="73.89" x2="16.87" y2="175.96"/><polyline class="cls-3" points="111.13 110.34 44.71 184.37 10.32 148.4 97.33 53.02"/><polyline class="cls-3" points="111.13 147.62 79.1 184.37 10.32 112.44 67.9 49.48"/></svg>