<svg id="图层_1" data-name="图层 1" xmlns="http://www.w3.org/2000/svg" viewBox="0 0 234.01 168.54"><defs><style>.cls-1,.cls-2{fill:#f95361;stroke:#000;stroke-miterlimit:10;}.cls-2{stroke-width:2px;}</style></defs><title>pomegranate</title><ellipse class="cls-1" cx="185.73" cy="117.19" rx="4.37" ry="6.26"/><ellipse class="cls-1" cx="151.96" cy="127.36" rx="4.37" ry="6.26"/><ellipse class="cls-2" cx="74.5" cy="96.31" rx="73.5" ry="71.24"/><path class="cls-2" d="M56,71.38l-2.59-8.19c-0.9-2.86-3.75-10.2-2.2-16.5L53.75,37l13.57,19.9s1.36-11.76,10-16.73c0,0,11.31,6.78,11.76,16.73,0,0,5.88-13.12,10.86-19.9,0,0,4.52,8.14,0,22.61a42.88,42.88,0,0,0,0,11.76" transform="translate(-1.83 -34.62)"/><ellipse class="cls-1" cx="121.05" cy="131.43" rx="4.37" ry="6.26"/><ellipse class="cls-1" cx="111.86" cy="125.18" rx="4.37" ry="6.26"/><ellipse class="cls-1" cx="118.49" cy="97.51" rx="4.37" ry="6.26"/><ellipse class="cls-1" cx="214.68" cy="88.99" rx="4.37" ry="6.26"/><ellipse class="cls-1" cx="206.69" cy="85.9" rx="4.37" ry="6.26"/><ellipse class="cls-1" cx="86.38" cy="106.41" rx="4.37" ry="6.26"/><ellipse class="cls-1" cx="82" cy="98.42" rx="4.37" ry="6.26"/><path class="cls-2" d="M222.41,119.57a73.12,73.12,0,0,1-146,0H64a85.49,85.49,0,0,0,170.75,0H222.41Z" transform="translate(-1.83 -34.62)"/><ellipse class="cls-1" cx="80.8" cy="87.19" rx="4.37" ry="6.26"/><ellipse class="cls-1" cx="87.73" cy="92.16" rx="4.37" ry="6.26"/><ellipse class="cls-1" cx="88.79" cy="116.28" rx="4.37" ry="6.26"/><ellipse class="cls-1" cx="93.76" cy="120.65" rx="4.37" ry="6.26"/><ellipse class="cls-1" cx="97.53" cy="112.66" rx="4.37" ry="6.26"/><ellipse class="cls-1" cx="105.98" cy="116.28" rx="4.37" ry="6.26"/><ellipse class="cls-1" cx="117.43" cy="105.96" rx="4.37" ry="6.26"/><ellipse class="cls-1" cx="139.75" cy="115.38" rx="4.37" ry="6.26"/><ellipse class="cls-1" cx="140.8" cy="103.17" rx="4.37" ry="6.26"/><ellipse class="cls-1" cx="147.59" cy="110.93" rx="4.37" ry="6.26"/><ellipse class="cls-1" cx="198.7" cy="105.96" rx="4.37" ry="6.26"/><ellipse class="cls-1" cx="209.25" cy="106.41" rx="4.37" ry="6.26"/><ellipse class="cls-1" cx="206.08" cy="115.38" rx="4.37" ry="6.26"/><ellipse class="cls-1" cx="202.31" cy="120.65" rx="4.37" ry="6.26"/><ellipse class="cls-1" cx="196.28" cy="127.36" rx="4.37" ry="6.26"/><ellipse class="cls-1" cx="187.99" cy="133.62" rx="4.37" ry="6.26"/><ellipse class="cls-1" cx="182.41" cy="125.71" rx="4.37" ry="6.26"/><ellipse class="cls-1" cx="176.99" cy="116.28" rx="4.37" ry="6.26"/><ellipse class="cls-1" cx="167.64" cy="119.45" rx="4.37" ry="6.26"/><ellipse class="cls-1" cx="155.28" cy="116.28" rx="4.37" ry="6.26"/><ellipse class="cls-1" cx="149.09" cy="120.43" rx="4.37" ry="6.26"/><ellipse class="cls-1" cx="132.96" cy="118.92" rx="4.37" ry="6.26"/><ellipse class="cls-1" cx="99.49" cy="127.36" rx="4.37" ry="6.26"/><ellipse class="cls-1" cx="107.48" cy="133.24" rx="4.37" ry="6.26"/><ellipse class="cls-1" cx="114.72" cy="138.22" rx="4.37" ry="6.26"/><ellipse class="cls-1" cx="123.16" cy="140.63" rx="4.37" ry="6.26"/><ellipse class="cls-1" cx="129.19" cy="131.43" rx="4.37" ry="6.26"/><ellipse class="cls-1" cx="138.24" cy="133.62" rx="4.37" ry="6.26"/><ellipse class="cls-1" cx="147.59" cy="135.96" rx="4.37" ry="6.26"/><ellipse class="cls-1" cx="156.63" cy="134.37" rx="4.37" ry="6.26"/><ellipse class="cls-1" cx="131.91" cy="144.85" rx="4.37" ry="6.26"/><ellipse class="cls-1" cx="140.8" cy="145.76" rx="4.37" ry="6.26"/><ellipse class="cls-1" cx="147.59" cy="146.74" rx="4.37" ry="6.26"/><ellipse class="cls-1" cx="163.12" cy="144.48" rx="4.37" ry="6.26"/><ellipse class="cls-1" cx="165.38" cy="130.38" rx="4.37" ry="6.26"/><ellipse class="cls-1" cx="174.42" cy="128.8" rx="4.37" ry="6.26"/><ellipse class="cls-1" cx="171.71" cy="141.31" rx="4.37" ry="6.26"/><ellipse class="cls-1" cx="180.45" cy="138.6" rx="4.37" ry="6.26"/><ellipse class="cls-1" cx="109.74" cy="101.51" rx="4.37" ry="6.26"/><ellipse class="cls-1" cx="127.53" cy="98.42" rx="4.37" ry="6.26"/><ellipse class="cls-1" cx="138.69" cy="97.51" rx="4.37" ry="6.26"/><ellipse class="cls-1" cx="146.23" cy="97.51" rx="4.37" ry="6.26"/><ellipse class="cls-1" cx="160.85" cy="97.51" rx="4.37" ry="6.26"/><ellipse class="cls-1" cx="168.69" cy="96.31" rx="4.37" ry="6.26"/><ellipse class="cls-1" cx="176.99" cy="98.42" rx="4.37" ry="6.26"/><ellipse class="cls-1" cx="185.35" cy="98.42" rx="4.37" ry="6.26"/><ellipse class="cls-1" cx="214.68" cy="99.7" rx="4.37" ry="6.26"/><ellipse class="cls-1" cx="95.87" cy="88.99" rx="4.37" ry="6.26"/><ellipse class="cls-1" cx="103.11" cy="90.05" rx="4.37" ry="6.26"/><ellipse class="cls-1" cx="109.74" cy="88.39" rx="4.37" ry="6.26"/><ellipse class="cls-1" cx="116.98" cy="85.9" rx="4.37" ry="6.26"/><ellipse class="cls-1" cx="125.42" cy="85.9" rx="4.37" ry="6.26"/><ellipse class="cls-1" cx="135.07" cy="85.9" rx="4.37" ry="6.26"/><ellipse class="cls-1" cx="144.72" cy="85.9" rx="4.37" ry="6.26"/><ellipse class="cls-1" cx="160.4" cy="87.19" rx="4.37" ry="6.26"/><ellipse class="cls-1" cx="153.16" cy="86.58" rx="4.37" ry="6.26"/><ellipse class="cls-1" cx="170.05" cy="86.58" rx="4.37" ry="6.26"/><ellipse class="cls-1" cx="200.66" cy="88.39" rx="4.37" ry="6.26"/><ellipse class="cls-1" cx="95.12" cy="99.7" rx="4.37" ry="6.26"/><ellipse class="cls-1" cx="193.57" cy="87.64" rx="4.37" ry="6.26"/><ellipse class="cls-1" cx="153.02" cy="92.4" rx="4.37" ry="6.26"/><ellipse class="cls-1" cx="185.73" cy="88.39" rx="4.37" ry="6.26"/><ellipse class="cls-1" cx="178.79" cy="87.19" rx="4.37" ry="6.26"/><ellipse class="cls-1" cx="205.03" cy="97.51" rx="4.37" ry="6.26"/><ellipse class="cls-1" cx="193.27" cy="98.42" rx="4.37" ry="6.26"/><ellipse class="cls-1" cx="163.87" cy="109.69" rx="4.37" ry="6.26"/><ellipse class="cls-1" cx="172.46" cy="106.86" rx="4.37" ry="6.26"/><ellipse class="cls-1" cx="184.07" cy="107.76" rx="4.37" ry="6.26"/><ellipse class="cls-1" cx="191.91" cy="107.88" rx="4.37" ry="6.26"/><ellipse class="cls-1" cx="156.03" cy="104.67" rx="4.37" ry="6.26"/><ellipse class="cls-1" cx="133.87" cy="104.67" rx="4.37" ry="6.26"/><ellipse class="cls-1" cx="125.57" cy="109.12" rx="4.37" ry="6.26"/><ellipse class="cls-1" cx="114.12" cy="115.38" rx="4.37" ry="6.26"/><ellipse class="cls-1" cx="104.62" cy="103.77" rx="4.37" ry="6.26"/><ellipse class="cls-1" cx="121.35" cy="117.87" rx="4.37" ry="6.26"/><ellipse class="cls-1" cx="140.8" cy="125.71" rx="4.37" ry="6.26"/><ellipse class="cls-1" cx="159.95" cy="124.12" rx="4.37" ry="6.26"/><ellipse class="cls-1" cx="192.36" cy="118.92" rx="4.37" ry="6.26"/><ellipse class="cls-1" cx="154.97" cy="146.13" rx="4.37" ry="6.26"/></svg>