<svg id="图层_1" data-name="图层 1" xmlns="http://www.w3.org/2000/svg" viewBox="0 0 218 218"><defs><style>.cls-1{fill:#fff;}.cls-1,.cls-2,.cls-3,.cls-4,.cls-5,.cls-6{stroke:#000;stroke-miterlimit:10;}.cls-1,.cls-3,.cls-4,.cls-5,.cls-6{stroke-width:2px;}.cls-2{fill:none;stroke-width:3px;}.cls-3{fill:#a05555;}.cls-4{fill:#dd3737;}.cls-5{fill:#f7dfdf;}.cls-6{fill:#f9bdbd;}</style></defs><title>pork belly</title><circle class="cls-1" cx="109" cy="109" r="108"/><path class="cls-2" d="M40.36,84.06s21-62.51,91-52.25" transform="translate(-9.5 -9.5)"/><path class="cls-2" d="M36.21,110.8a43.93,43.93,0,0,1,2.05-18.23" transform="translate(-9.5 -9.5)"/><polygon class="cls-3" points="128.33 193.68 148 176.02 141.36 173.6 125.82 181.19 128.33 193.68"/><path class="cls-4" d="M158.18,43l-4.46,13s-4,10.26,4.46,35.7,3.57,63.82,3.57,81.67-13.83,14.28-13.83,14.28-5.38,4.88-7.6-10.28,0.12-89.69.12-89.69S130.06,46.52,158.18,43Z" transform="translate(-9.5 -9.5)"/><path class="cls-1" d="M147.91,187.56s-4-25.88,0-41.06,8-27.89,0-46.75-6.69-46.52,5.8-56.79c0,0-20.13-1.92-13.28,44.63s-6.35,78.1-5,88.36a66.46,66.46,0,0,0,4.91,17.85Z" transform="translate(-9.5 -9.5)"/><path class="cls-5" d="M147.91,187.56s-9.82,6.25-7.14-18.3,11.6-46,7.14-58.91-8.93-50.43-5.8-54.89S153.71,43,153.71,43s-15.8-.88-17.85,20.08,5.49,46.92,2,66.5-12.23,28.56-10.44,47.31S135,196,135,196Z" transform="translate(-9.5 -9.5)"/><path class="cls-6" d="M153.71,43s-14.28-.45-18.3,10.26,0.89,53.55-3.12,75.42-13.39,47.75-9.37,60.25,14.91,14.28,14.91,14.28l2.5-9.37-8.93-8.93s-1.87-27.67,6.43-46.41-3-49.39,0-68.73C140,55.65,137.2,50.11,153.71,43Z" transform="translate(-9.5 -9.5)"/><polygon class="cls-3" points="83.7 196.36 103.38 178.7 96.73 176.28 81.19 183.86 83.7 196.36"/><path class="cls-4" d="M113.55,45.63l-4.46,13s-4,10.26,4.46,35.7,3.57,63.82,3.57,81.67-13.83,14.28-13.83,14.28-5.38,4.88-7.6-10.28,0.12-89.69.12-89.69S85.43,49.19,113.55,45.63Z" transform="translate(-9.5 -9.5)"/><path class="cls-1" d="M103.28,190.24s-4-25.88,0-41.06,8-27.89,0-46.75-6.69-46.52,5.8-56.79c0,0-20.13-1.92-13.28,44.63s-6.35,78.1-5,88.36a66.46,66.46,0,0,0,4.91,17.85Z" transform="translate(-9.5 -9.5)"/><path class="cls-5" d="M103.28,190.24s-9.82,6.25-7.14-18.3,11.6-46,7.14-58.91-8.93-50.43-5.8-54.89,11.6-12.5,11.6-12.5-15.8-.88-17.85,20.08,5.49,46.92,2,66.5S81,160.79,82.76,179.53s7.59,19.19,7.59,19.19Z" transform="translate(-9.5 -9.5)"/><path class="cls-6" d="M109.09,45.65s-14.28-.45-18.3,10.26,0.89,53.55-3.12,75.42-13.39,47.75-9.37,60.25S93.2,205.86,93.2,205.86l2.5-9.37-8.93-8.93s-1.87-27.67,6.43-46.41-3-49.39,0-68.73C95.39,58.32,92.57,52.79,109.09,45.65Z" transform="translate(-9.5 -9.5)"/></svg>