<svg id="图层_1" data-name="图层 1" xmlns="http://www.w3.org/2000/svg" viewBox="0 0 218 218"><defs><style>.cls-1{fill:#fff;}.cls-1,.cls-2,.cls-3,.cls-4{stroke:#000;stroke-miterlimit:10;}.cls-1,.cls-3,.cls-4{stroke-width:2px;}.cls-2,.cls-4{fill:none;}.cls-2{stroke-width:3px;}.cls-3{fill:#d32a2a;}</style></defs><title>pork tenderloin</title><circle class="cls-1" cx="109" cy="109" r="108"/><path class="cls-2" d="M40.36,84.06s21-62.51,91-52.25" transform="translate(-9.5 -9.5)"/><path class="cls-2" d="M36.21,110.8a43.93,43.93,0,0,1,2.05-18.23" transform="translate(-9.5 -9.5)"/><path class="cls-3" d="M66.5,134.73s1-37.1,23.08-46.13,58.76-3.73,64,7.16,4.24,23.92,13.75,32.95,1.52,26.07,0,33.09-25.16,34.09-39.41,29.08S66.48,176.85,66.5,134.73Z" transform="translate(-9.5 -9.5)"/><path class="cls-4" d="M105.68,140s5.13,1.37,7.8-2.21,8.25-5.14,10.92-4.25" transform="translate(-9.5 -9.5)"/><path class="cls-4" d="M126.85,139.3s7.13,0.89,10-3.79,6.91-3.79,6.91-3.79" transform="translate(-9.5 -9.5)"/><path class="cls-1" d="M58,128.16S58.44,92.47,75.15,84A11.48,11.48,0,0,1,80.5,74.9c5.35-3.34,20.06-16.71,50.81-8.69S172.76,97.63,174.76,103s1.56,39.15-3.58,44.49a25.07,25.07,0,0,0-1-14.77c-1.21-3-4.26-5.58-6.62-8.4-2.19-2.61-2.38-4.94-4-8.8-1.57-3.66-5.53-6.29-6.22-10.63-0.92-5.79-5.37-12.53-9.56-15.26-15.38-10-57.72-6.43-67.52,10.62-12.48,21.69-9,35.51-8.08,47.54s20,31.16,46.57,39c13.14,4.14,24.58-9.56,25.92-16.92,0.89-3.34,3.34-.89,2.45,1.78s-3.57,5.35-6,8.69-8.86,9.58-17.91,9.58-29.11-8.25-37.35-16.49S62.68,146.21,59.78,142,58,128.16,58,128.16Z" transform="translate(-9.5 -9.5)"/><path class="cls-4" d="M100.78,80.47S89.64,77.77,75.15,84" transform="translate(-9.5 -9.5)"/><circle cx="152.43" cy="147.47" r="0.82" transform="translate(-69.06 131.36) rotate(-42.27)"/><circle cx="163.61" cy="141.95" r="0.82" transform="translate(-62.44 137.45) rotate(-42.27)"/><circle cx="136.32" cy="106.37" r="0.82" transform="matrix(0.1, -1, 1, 0.1, 7.38, 221.9)"/><circle cx="159.26" cy="149.45" r="0.82" transform="translate(-14.83 283.5) rotate(-84.27)"/><circle cx="133.78" cy="106.95" r="0.82" transform="matrix(0.1, -1, 1, 0.1, 4.52, 219.89)"/><circle cx="153.35" cy="143.48" r="0.82" transform="translate(-14.21 272.25) rotate(-84.27)"/><circle cx="148.66" cy="142.18" r="0.82" transform="matrix(0.1, -1, 1, 0.1, -17.15, 266.41)"/><circle cx="168.22" cy="149.12" r="0.82" transform="translate(-51.15 220.19) rotate(-62.56)"/><circle cx="168.86" cy="144.31" r="0.82" transform="translate(-46.53 218.16) rotate(-62.56)"/><circle cx="161.24" cy="132.71" r="0.82" transform="translate(6.23 272.99) rotate(-85.29)"/><circle cx="159.51" cy="139.97" r="0.82" transform="translate(-2.6 277.94) rotate(-85.29)"/><circle cx="127.33" cy="112.31" r="0.82" transform="translate(-4.57 220.48) rotate(-85.29)"/><circle cx="145.19" cy="103.76" r="0.82" transform="matrix(0.57, -0.82, 0.82, 0.57, -32.3, 154.46)"/><circle cx="142.75" cy="97.3" r="0.82" transform="translate(-28.04 149.68) rotate(-55.27)"/><circle cx="120.94" cy="110.13" r="0.82" transform="translate(-50.22 75.69) rotate(-33.55)"/><circle cx="138.69" cy="105.29" r="0.82" transform="translate(-44.58 84.7) rotate(-33.55)"/><circle cx="162.27" cy="138.53" r="0.82" transform="translate(-59.03 103.27) rotate(-33.55)"/><circle cx="144.63" cy="126.9" r="0.82" transform="translate(-55.54 91.58) rotate(-33.55)"/><circle cx="152.14" cy="136.02" r="0.82" transform="translate(-59.33 97.25) rotate(-33.55)"/><circle cx="147.62" cy="135.88" r="0.82" transform="translate(-60 94.73) rotate(-33.55)"/><circle cx="138.45" cy="137.78" r="0.82" transform="translate(-62.58 89.98) rotate(-33.55)"/><circle cx="142.57" cy="125.29" r="0.82" transform="translate(-54.99 90.18) rotate(-33.55)"/><circle cx="139.33" cy="129.42" r="0.82" transform="translate(-57.82 89.07) rotate(-33.55)"/><circle cx="130.81" cy="121.41" r="0.82" transform="translate(-54.81 83.03) rotate(-33.55)"/><circle cx="137.36" cy="124.97" r="0.82" transform="translate(-55.68 87.24) rotate(-33.55)"/><circle cx="149.71" cy="125.26" r="0.82" transform="translate(9.09 260.37) rotate(-87.72)"/><circle cx="137.59" cy="122.74" r="0.82" transform="translate(-0.02 245.84) rotate(-87.72)"/><circle cx="140.1" cy="122.01" r="0.82" transform="translate(3.11 247.64) rotate(-87.72)"/><circle cx="161.84" cy="149.38" r="0.82" transform="matrix(0.04, -1, 1, 0.04, -3.36, 295.64)"/><circle cx="151.08" cy="150.27" r="0.82" transform="translate(-26.19 9.39) rotate(-6.78)"/><circle cx="140.62" cy="151.51" r="0.82" transform="translate(-26.41 8.16) rotate(-6.78)"/><circle cx="136.53" cy="149.5" r="0.82" transform="translate(-26.2 7.67) rotate(-6.78)"/><circle cx="131.98" cy="149.4" r="0.82" transform="translate(-26.22 7.13) rotate(-6.78)"/><path d="M142.82,139a0.68,0.68,0,0,0-.05,1,0.8,0.8,0,0,0,1-.27,0.68,0.68,0,0,0,.05-1A0.8,0.8,0,0,0,142.82,139Z" transform="translate(-9.5 -9.5)"/><path d="M142.42,108.78a1.06,1.06,0,0,0,.85-0.79,0.49,0.49,0,0,0-.55-0.64,1.06,1.06,0,0,0-.85.79A0.49,0.49,0,0,0,142.42,108.78Z" transform="translate(-9.5 -9.5)"/><circle cx="125.67" cy="97.9" r="0.82" transform="translate(6.22 203.66) rotate(-84.27)"/><circle cx="123.12" cy="98.47" r="0.82" transform="translate(3.36 201.65) rotate(-84.27)"/><circle cx="134.53" cy="95.28" r="0.82" transform="translate(-29.92 142.06) rotate(-55.27)"/><circle cx="132.09" cy="88.82" r="0.82" transform="translate(-25.66 137.27) rotate(-55.27)"/><circle cx="120.94" cy="110.13" r="0.82" transform="matrix(0.83, -0.55, 0.55, 0.83, -50.22, 75.69)"/><path d="M131.77,100.3a1.06,1.06,0,0,0,.85-0.79,0.49,0.49,0,0,0-.55-0.64,1.06,1.06,0,0,0-.85.79A0.49,0.49,0,0,0,131.77,100.3Z" transform="translate(-9.5 -9.5)"/><path d="M144.89,133.42a1.06,1.06,0,0,0,.85-0.79,0.49,0.49,0,0,0-.55-0.64,1.06,1.06,0,0,0-.85.79A0.49,0.49,0,0,0,144.89,133.42Z" transform="translate(-9.5 -9.5)"/><path d="M150.48,116.94a1.06,1.06,0,0,0,.85-0.79,0.49,0.49,0,0,0-.55-0.64,1.06,1.06,0,0,0-.85.79A0.49,0.49,0,0,0,150.48,116.94Z" transform="translate(-9.5 -9.5)"/><circle cx="119.87" cy="147.21" r="0.82" transform="translate(-75.52 176.25) rotate(-62.56)"/></svg>