<svg id="图层_1" data-name="图层 1" xmlns="http://www.w3.org/2000/svg" viewBox="0 0 218 218"><defs><style>.cls-1{fill:#fff;}.cls-1,.cls-2,.cls-3,.cls-4,.cls-5,.cls-6{stroke:#000;stroke-miterlimit:10;}.cls-1,.cls-3,.cls-4,.cls-5,.cls-6{stroke-width:2px;}.cls-2{fill:none;stroke-width:3px;}.cls-3{fill:#fff0e9;}.cls-4{fill:#bf7979;}.cls-5{fill:#930611;}.cls-6{fill:#9e5312;}</style></defs><title>rack of lamb</title><circle class="cls-1" cx="109" cy="109" r="108"/><path class="cls-2" d="M40.36,84.06s21-62.51,91-52.25" transform="translate(-9.5 -9.5)"/><path class="cls-2" d="M36.21,110.8a43.93,43.93,0,0,1,2.05-18.23" transform="translate(-9.5 -9.5)"/><path class="cls-3" d="M129.72,69.19L104.49,41.53s-2.13-6.65,1.86-8,6.92,2.66,9.31,5.05,24.19,26.15,24.19,26.15Z" transform="translate(-9.5 -9.5)"/><path class="cls-3" d="M146.74,60.68L121.51,33s-2.13-6.65,1.86-8,6.92,2.66,9.31,5.05,26.06,25.32,26.06,25.32Z" transform="translate(-9.5 -9.5)"/><path class="cls-4" d="M122.31,73.14s1.33-6.08,4-8.48,7.71,1.56,10.64,4.24,39.89,53.48,35.11,66.77c-6.12,2.39-42,3.19-44.15,0s-4-12.5,5.05-23.4S125.62,77.17,122.31,73.14Z" transform="translate(-9.5 -9.5)"/><path class="cls-5" d="M134.81,86.47s-7.18-11.88-5.67-13.92c1.92-2.6,8.6.89,23,27.48s15.43,31.92,8.24,33-23.4,0-23.4,0-7.18-2.66-3.46-9.84S141.73,100.3,134.81,86.47Z" transform="translate(-9.5 -9.5)"/><path class="cls-6" d="M137.74,61.21s6.38,0,7.18-2.39,4.79-9.57,11.17-6.12,42,55.32,42.29,64.1c0,6.38-26.33,18.88-26.33,18.88s-4.33-37.48-42.32-71.54C129.72,64.14,130.56,63.6,137.74,61.21Z" transform="translate(-9.5 -9.5)"/><path class="cls-3" d="M101.16,96L75.93,68.3s-2.13-6.65,1.86-8S84.71,63,87.1,65.38s24.19,26.15,24.19,26.15Z" transform="translate(-9.5 -9.5)"/><path class="cls-3" d="M118.18,87.45L93,59.79s-2.13-6.65,1.86-8,6.92,2.66,9.31,5.05,26.06,25.32,26.06,25.32Z" transform="translate(-9.5 -9.5)"/><path class="cls-4" d="M93.75,99.92s1.33-6.08,4-8.48,7.71,1.56,10.64,4.24,39.89,53.48,35.11,66.77c-6.12,2.39-42,3.19-44.15,0s-4-12.5,5.05-23.4S97.06,104,93.75,99.92Z" transform="translate(-9.5 -9.5)"/><path class="cls-5" d="M106.25,113.25s-7.18-11.88-5.67-13.92c1.92-2.6,8.6.89,23,27.48s15.43,31.92,8.24,33-23.4,0-23.4,0-7.18-2.66-3.46-9.84S113.16,127.08,106.25,113.25Z" transform="translate(-9.5 -9.5)"/><path class="cls-6" d="M109.17,88s6.38,0,7.18-2.39,4.79-9.57,11.17-6.12,42,55.32,42.29,64.1c0,6.38-26.33,18.88-26.33,18.88S139.16,125,101.16,90.92C101.16,90.92,102,90.38,109.17,88Z" transform="translate(-9.5 -9.5)"/><path class="cls-3" d="M78,125.42L52.72,97.76s-2.13-6.65,1.86-8,6.92,2.66,9.31,5.05S88.08,121,88.08,121Z" transform="translate(-9.5 -9.5)"/><path class="cls-3" d="M95,116.91L69.74,89.25s-2.13-6.65,1.86-8,6.92,2.66,9.31,5.05S107,111.65,107,111.65Z" transform="translate(-9.5 -9.5)"/><path class="cls-4" d="M70.54,129.37s1.33-6.08,4-8.48,7.71,1.56,10.64,4.24,39.89,53.48,35.11,66.77c-6.12,2.39-42,3.19-44.15,0s-4-12.5,5.05-23.4S73.85,133.4,70.54,129.37Z" transform="translate(-9.5 -9.5)"/><path class="cls-5" d="M83,142.71s-7.18-11.88-5.67-13.92c1.92-2.6,8.6.89,23,27.48s15.43,31.92,8.24,33-23.4,0-23.4,0-7.18-2.66-3.46-9.84S90,156.54,83,142.71Z" transform="translate(-9.5 -9.5)"/><path class="cls-6" d="M86,117.44s6.38,0,7.18-2.39,4.79-9.57,11.17-6.12,42,55.32,42.29,64.1c0,6.38-26.33,18.88-26.33,18.88S116,154.43,78,120.37C78,120.37,78.79,119.83,86,117.44Z" transform="translate(-9.5 -9.5)"/></svg>