<?xml version="1.0" encoding="utf-8"?>
<!-- Generator: Adobe Illustrator 19.2.1, SVG Export Plug-In . SVG Version: 6.00 Build 0)  -->
<svg version="1.1" id="图层_1" xmlns="http://www.w3.org/2000/svg" xmlns:xlink="http://www.w3.org/1999/xlink" x="0px" y="0px"
	 viewBox="0 0 149.4 81.1" style="enable-background:new 0 0 149.4 81.1;" xml:space="preserve">
<style type="text/css">
	.st0{fill:#AD5615;stroke:#141414;stroke-width:2;stroke-miterlimit:10;}
	.st1{fill:none;stroke:#141414;stroke-width:2;stroke-miterlimit:10;}
</style>
<title>raisins</title>
<path class="st0" d="M119.9,33.1c-7.5,8.6-15.7,14.8-25,15.4s-18-7.4-21.8-4.3c-3.8,3.1-9.5-9.9-5.7-13c3.8-3.1,14,2,22.2-3.8
	s23-16,28.9-12.6S126.8,25.3,119.9,33.1z"/>
<path class="st1" d="M124.1,24.8c0,0-16,6.1-20,11.8c-2.4,3.3-6.2,5.4-10.3,5.6"/>
<path class="st1" d="M101.8,24.1c0,0,2.7-1.8,8.7-2c6-0.2,11.7-4.2,11.5-4.4"/>
<path class="st1" d="M67.7,40.5c0,0,5-7.5,11.6-5.1c6.6,2.4,7.5,1.4,7.5,1.4"/>
<path class="st0" d="M25.9,37.6c2.7-8.8,6.8-15.7,13.9-17.8s17,3.6,18.8,0.2s11.2,7.2,9.4,10.6c-1.8,3.4-11.8,0.5-16.1,7
	s-12.1,18-18,16S23.5,45.7,25.9,37.6z"/>
<path class="st1" d="M25.8,45.6c0,0,10.3-8,11.3-13.7c0.5-3.2,2.8-5.8,6-6.7"/>
<path class="st1" d="M43.7,42.6c0,0-1.5,2-6.2,3.2c-4.6,1.2-7.7,5.6-7.4,5.8"/>
<path class="st1" d="M64.4,22.4c0,0-1.2,7.5-7.2,6.4s-6.4-0.1-6.4-0.1"/>
<path class="st0" d="M46.3,44.2c10.3-4.8,20.3-7.2,29.1-4s13.5,14,18.3,12.7s4.7,12.9,0,14.2s-12-7.4-21.9-5.4s-27.5,5.4-31.5,0
	S36.9,48.6,46.3,44.2z"/>
<path class="st1" d="M39.2,50.1c0,0,17.1,0.8,23-2.8c3.5-2.1,7.8-2.5,11.7-1"/>
<path class="st1" d="M59.3,59.7c0,0-3.2,0.5-8.8-1.7c-5.6-2.2-12.4-0.9-12.3-0.6"/>
<path class="st1" d="M97.2,58.2c0,0-7.6,4.8-12.7,0c-5.1-4.8-6.3-4.3-6.3-4.3"/>
</svg>
