<svg id="图层_1" data-name="图层 1" xmlns="http://www.w3.org/2000/svg" viewBox="0 0 219.73 220"><defs><style>.cls-1{fill:#f7bad3;}.cls-1,.cls-2,.cls-3{stroke:#000;stroke-miterlimit:10;}.cls-1,.cls-3{stroke-width:2px;}.cls-2{fill:none;stroke-width:3px;}.cls-3{fill:#fff;}</style></defs><title>rice noodles</title><path class="cls-1" d="M219.14,133H2.33C5,167.25,32.56,194.67,70.8,206a16.45,16.45,0,0,0-.41,3.46c0,5.31,4.35,10.5,9.66,10.5h61.39c5.31,0,9.66-5.29,9.66-10.6a11.46,11.46,0,0,0-.41-2.88C188.92,195.14,216.52,167.25,219.14,133Z" transform="translate(-0.5 -1)"/><line class="cls-1" x1="69.5" y1="205" x2="118.5" y2="205"/><path class="cls-1" d="M146.82,193.28s44.14-16.55,55.87-46.21" transform="translate(-0.5 -1)"/><line class="cls-2" x1="167.5" y1="16.5" x2="182.5" y2="16.5"/><line class="cls-2" x1="167.5" y1="29.5" x2="182.5" y2="29.5"/><path class="cls-3" d="M219.14,134a52.08,52.08,0,0,0-104,0h104Z" transform="translate(-0.5 -1)"/><path class="cls-3" d="M208.16,134c-1.71-24-19.39-37.81-41-37.81S127.87,110,126.16,134h82Z" transform="translate(-0.5 -1)"/><path class="cls-3" d="M196.06,134c-1.67-16-14-25.76-28.9-25.76S139.92,118,138.25,134h57.81Z" transform="translate(-0.5 -1)"/><path class="cls-3" d="M142.21,134A70.42,70.42,0,0,0,1.55,134H142.21Z" transform="translate(-0.5 -1)"/><path class="cls-3" d="M128.84,134a57.08,57.08,0,0,0-113.93,0H128.84Z" transform="translate(-0.5 -1)"/><path class="cls-3" d="M116.81,134c-1.87-25-21.25-41.44-44.93-41.44S28.83,109,27,134h89.86Z" transform="translate(-0.5 -1)"/><path class="cls-3" d="M103.56,134c-1.83-17-15.3-28.23-31.68-28.23S42,117,40.21,134h63.35Z" transform="translate(-0.5 -1)"/><path class="cls-3" d="M184.53,134a17.68,17.68,0,0,0-34.74,0h34.74Z" transform="translate(-0.5 -1)"/><path class="cls-3" d="M90.91,134c-1.72-10-9.58-15.73-19-15.73S54.57,124,52.85,134H90.91Z" transform="translate(-0.5 -1)"/><rect class="cls-3" x="151.59" y="10.42" width="9.02" height="122.58"/><rect class="cls-3" x="160.62" y="10.42" width="9.02" height="122.58"/><path class="cls-2" d="M183,2.5H139.06s-6,0-11,11H26.76s-11.53,8,0,17H128a29.61,29.61,0,0,0,11,12H183" transform="translate(-0.5 -1)"/></svg>