<svg id="图层_1" data-name="图层 1" xmlns="http://www.w3.org/2000/svg" viewBox="0 0 218 218"><defs><style>.cls-1{fill:#fff;}.cls-1,.cls-2,.cls-3,.cls-4,.cls-6{stroke:#000;stroke-miterlimit:10;}.cls-1,.cls-3,.cls-4,.cls-6{stroke-width:2px;}.cls-2,.cls-7{fill:none;}.cls-2{stroke-width:3px;}.cls-3{fill:#8e4524;}.cls-4{fill:#ce6258;}.cls-5{fill:#ba3a3b;}.cls-6{fill:#ae3421;}</style></defs><title>roast beef</title><circle class="cls-1" cx="109" cy="109" r="108"/><path class="cls-2" d="M40.91,84.18s21-62.51,91-52.25" transform="translate(-10.05 -9.62)"/><path class="cls-2" d="M36.75,110.92a43.93,43.93,0,0,1,2.05-18.23" transform="translate(-10.05 -9.62)"/><path class="cls-3" d="M48.78,124.39s4.82-11,0-15S49.58,92,54.4,87.16,62.7,73.5,66.72,72.43s10.45,0,13.39-1.34,4.29-5.89,13.66-4c2.95-4.29,2.41-5.09,12.05-3.75s58.68,1.52,67,21.69,8,30.53,8,30.53L78,140.72Z" transform="translate(-10.05 -9.62)"/><path class="cls-4" d="M78,140.72S67.15,94.39,99.34,85s73.43,0,73.43,0,10.71,10.45,8,30.53Z" transform="translate(-10.05 -9.62)"/><path class="cls-5" d="M86.15,135.9S77.08,97,104.08,89.17s61.6,0,61.6,0,9,8.76,6.74,25.61Z" transform="translate(-10.05 -9.62)"/><path class="cls-4" d="M169.11,94.2S122.62,112.4,114.24,119s-15.78,13.69-18.12,29.92c0,0,10-.46,13.57,3.11s7.26,9.08,15.65,9.63,14.39-4,16.73-8.25S168.58,116.89,169.11,94.2Z" transform="translate(-10.05 -9.62)"/><path class="cls-5" d="M160.73,101.54s-35.6,15.35-41.93,20.69-11.89,11-13.28,23.7c0,0,7.75-.62,10.62,2.06s5.88,6.86,12.4,7.06a13.74,13.74,0,0,0,12.77-6.85C143,144.84,160.92,119.16,160.73,101.54Z" transform="translate(-10.05 -9.62)"/><path class="cls-6" d="M95.63,157a18.47,18.47,0,0,1,14.54,6.08c6.11,6.9,12.47,7.94,27.52,4.59s4.38-14.31,4.38-14.31-7.47,13.07-26.71,4.29c-5.28-2.41-2.89-4.4-5.67-5.67a32.94,32.94,0,0,0-13.57-3.11C95.27,151.74,95.63,157,95.63,157Z" transform="translate(-10.05 -9.62)"/><path class="cls-4" d="M171.71,96.27s-41.24,28.12-47.94,36.42-12.32,16.87-11,33.21c0,0,9.64-2.68,13.93,0s9.11,7.23,17.41,5.89,13.13-7.12,14.46-11.78S176.26,118.49,171.71,96.27Z" transform="translate(-10.05 -9.62)"/><path class="cls-5" d="M168.41,104.73s-32,21.84-37.23,28.29-9.57,13.1-8.53,25.79c0,0,7.49-2.08,10.82,0s7.07,5.62,13.52,4.58a13.74,13.74,0,0,0,11.23-9.15C159.25,150.61,171.94,122,168.41,104.73Z" transform="translate(-10.05 -9.62)"/><path class="cls-6" d="M114.12,173.93a18.47,18.47,0,0,1,15.53,2.68c7.5,5.36,13.93,5,27.85-1.67S158.58,160,158.58,160s-4.36,14.4-25.08,10.15c-5.68-1.17-3.8-3.64-6.79-4.26a32.94,32.94,0,0,0-13.93,0C112.59,168.84,114.12,173.93,114.12,173.93Z" transform="translate(-10.05 -9.62)"/><path class="cls-4" d="M136.62,151.7s-0.4-7.92,9.24-19.7,33.88-28.44,33.34-38.44H184s2.68,15.41,7,21.3,18.75,34.76,0,63.14c-7,4.29-6.43-11.11-8.57-13.25s-13.93-10.81-26.78-9.74S135.25,158.66,136.62,151.7Z" transform="translate(-10.05 -9.62)"/><path class="cls-5" d="M145.75,145.81S144.94,142,152.29,133s28-20.94,27.57-29l1.76-2s4,13.65,7.22,18.14,13.67,23.24,4.63,42.93c-5.31,3.27-9.53-3.34-11.16-5s-10.62-8.26-20.42-7.44S144.7,151.11,145.75,145.81Z" transform="translate(-10.05 -9.62)"/><path class="cls-7" d="M136.46,146.88s-4.66,8.3-3.86,12.05,13.93,2.41,19,2.95,22,4.82,23,15,16.34,0.74,16.34.74-4,7.83-8.57-13.06c-6.7-12.05-29-9-35.93-8.65S134.69,158.94,136.46,146.88Z" transform="translate(-10.05 -9.62)"/><path class="cls-6" d="M136.35,151.44s-5.62,8,0,8.57,28.92-.33,35.62,10.15,8.3,12.88,8.3,12.88,8.57,0.27,12.32-6.7c0,0-2.5-16.87-29.37-20.89Z" transform="translate(-10.05 -9.62)"/></svg>