<svg id="图层_1" data-name="图层 1" xmlns="http://www.w3.org/2000/svg" viewBox="0 0 218 218"><defs><style>.cls-1,.cls-4{fill:#fff;}.cls-1,.cls-2,.cls-3{stroke:#000;stroke-miterlimit:10;}.cls-1,.cls-3{stroke-width:2px;}.cls-2{fill:none;stroke-width:3px;}.cls-3{fill:#d3712f;}</style></defs><title>roast chicken leg quarter</title><circle class="cls-1" cx="109" cy="109" r="108"/><path class="cls-2" d="M40.91,84.18s21-62.51,91-52.25" transform="translate(-10.05 -9.62)"/><path class="cls-2" d="M36.75,110.92a43.93,43.93,0,0,1,2.05-18.23" transform="translate(-10.05 -9.62)"/><path class="cls-3" d="M125.19,87.39s-55.12-8.48-66.25,40.28C52,159.47,91.27,177,113.53,161.59c15.63-10.8,29.15-38.69,31.27-59.89C144.8,101.7,132.61,101.17,125.19,87.39Z" transform="translate(-10.05 -9.62)"/><path class="cls-4" d="M73.25,144.1s11.13-41.87,31.27-50.88C104.52,93.22,53.64,108.06,73.25,144.1Z" transform="translate(-10.05 -9.62)"/><path class="cls-1" d="M125.54,89.68l20.32-21.38S141.09,47.64,158,55.06c4.77,4.24,1.06,11.13,1.06,11.13s13.25-5.83,14.31,2.65S167.59,83.68,158,78.91l-16.78,24.91S122.89,106.11,125.54,89.68Z" transform="translate(-10.05 -9.62)"/></svg>