<svg id="图层_1" data-name="图层 1" xmlns="http://www.w3.org/2000/svg" viewBox="0 0 218 218"><defs><style>.cls-1{fill:#fff;}.cls-1,.cls-2,.cls-3{stroke:#000;stroke-miterlimit:10;}.cls-1,.cls-3{stroke-width:2px;}.cls-2{fill:none;stroke-width:3px;}.cls-3{fill:#ef7545;}.cls-4{fill:#f4ccbd;}</style></defs><title>roast salmon</title><circle class="cls-1" cx="109" cy="109" r="108"/><path class="cls-2" d="M40.91,84.18s21-62.51,91-52.25" transform="translate(-10.05 -9.62)"/><path class="cls-2" d="M36.75,110.92a43.93,43.93,0,0,1,2.05-18.23" transform="translate(-10.05 -9.62)"/><path class="cls-3" d="M128.2,183.26s-0.69,13.84,10.72,14.53,36.32-42.55,34.94-82.33-42.2-60.19-59.16-57.77S51.4,72.21,65.24,143.13c13.49,49.12,36.32,55.7,38.05,55s6.23,1,2.08-22.14,0.69-51.55,13.84-54.31S134.43,163.89,128.2,183.26Z" transform="translate(-10.05 -9.62)"/><polygon class="cls-4" points="87.02 177.44 85.29 166.03 75.25 163.95 87.02 177.44"/><path class="cls-4" d="M81,166.48l13.66,4.67s-1.21-10.9-.86-12.45c0,0-16.43-5.36-19.37-7.61C74.41,151.09,73.89,152.3,81,166.48Z" transform="translate(-10.05 -9.62)"/><path class="cls-4" d="M93.26,153.34a108.81,108.81,0,0,1-22.14-9.17s-3.63-11.93-3.46-13.84c0,0,18.16,9.69,25.77,10.55C93.43,140.88,92,150,93.26,153.34Z" transform="translate(-10.05 -9.62)"/><path class="cls-4" d="M94.82,135.69s1.9-11.24,4.67-12.45c0,0-12.11-24,13.66-28.89L113,90s-14.7-4.84-44.28,13.84c0,0-2.59,10.9-1.73,20.06C67,123.93,83.4,134.83,94.82,135.69Z" transform="translate(-10.05 -9.62)"/><path class="cls-4" d="M102.77,118.22s6.57-6.05,8.65-6.05c0,0-1.56-4.67,1.73-6.75L113,99S97.24,103.35,102.77,118.22Z" transform="translate(-10.05 -9.62)"/><path class="cls-4" d="M71.29,96.6S93.26,82.42,113,85l0.17-7.78s-20.76-.52-37.36,9.86Z" transform="translate(-10.05 -9.62)"/><path class="cls-4" d="M83.23,77.75s20.06-6.57,29.75-5.54c0,0-.86-6.4-2.25-8.13A48.17,48.17,0,0,0,83.23,77.75Z" transform="translate(-10.05 -9.62)"/><polygon class="cls-4" points="125.41 177.44 127.14 166.03 137.18 163.95 125.41 177.44"/><path class="cls-4" d="M151.55,166.48l-13.66,4.67s1.21-10.9.86-12.45c0,0,16.43-5.36,19.37-7.61C158.12,151.09,158.64,152.3,151.55,166.48Z" transform="translate(-10.05 -9.62)"/><path class="cls-4" d="M139.27,153.34a108.81,108.81,0,0,0,22.14-9.17s3.63-11.93,3.46-13.84c0,0-18.16,9.69-25.77,10.55C139.09,140.88,140.48,150,139.27,153.34Z" transform="translate(-10.05 -9.62)"/><path class="cls-4" d="M137.71,135.69s-1.9-11.24-4.67-12.45c0,0,12.11-24-13.66-28.89L119.55,90s14.7-4.84,44.28,13.84c0,0,2.59,10.9,1.73,20.06C165.56,123.93,149.12,134.83,137.71,135.69Z" transform="translate(-10.05 -9.62)"/><path class="cls-4" d="M129.75,118.22s-6.57-6.05-8.65-6.05c0,0,1.56-4.67-1.73-6.75l0.17-6.4S135.29,103.35,129.75,118.22Z" transform="translate(-10.05 -9.62)"/><path class="cls-4" d="M161.23,96.6s-22-14.18-41.69-11.59l-0.17-7.78s20.76-.52,37.36,9.86Z" transform="translate(-10.05 -9.62)"/><path class="cls-4" d="M149.3,77.75s-20.06-6.57-29.75-5.54c0,0,.86-6.4,2.25-8.13A48.17,48.17,0,0,1,149.3,77.75Z" transform="translate(-10.05 -9.62)"/></svg>