<svg id="图层_1" data-name="图层 1" xmlns="http://www.w3.org/2000/svg" viewBox="0 0 150.3 210.03"><defs><style>.cls-1{fill:#f0a85e;}.cls-1,.cls-2{stroke:#000;stroke-miterlimit:10;stroke-width:2px;}.cls-2{fill:#c93f02;}</style></defs><title>roast duck</title><path class="cls-1" d="M94.28,110.13c-21.55,0-39.07-.25-40.84-1l-0.79-.32c-5.41-2.16-10.27-5.74-5.12-23.23C53,67,65.07,12.68,65.19,12.13l3.24,0.72c-0.12.55-12.24,55-17.72,73.65-4.72,16.06-.34,17.81,3.17,19.22l0.87,0.35c4.89,1.39,108.27.49,125.9-.13,4.33-.16,7.24-1.32,8.65-3.46,2-3.09.39-7.51,0.37-7.55L168.6,15.13l3.21-.85,21,79.62c0,0.06,2.25,5.85-.75,10.4-2,3.09-5.83,4.75-11.31,4.95C174.65,109.47,129.19,110.13,94.28,110.13Z" transform="translate(-44.34 -10.94)"/><path class="cls-2" d="M126,215.41s-7.74,11.61-18.25-2.21-16-40.91-35.39-34.83c-8.29,5.53-12.72,18.8-10.51,25.43s-8.29,14.93-11.06,7.74-5-7.74,10.51-44.79c5-9.4-2.21-21.56,8.29-32.62,11.06-11.61,24.33-29.86,12.16-40.36-4.42-3.87-5,10-3.87,16S74,131.92,65.7,124.73c-4.42-4.42,4.42-14.38,3.87-19.9S48,81.05,64.6,63.36s28.2-25.43,50.87-27.65S173.52,49,176.28,75c2.21,16.59-6.08,18.25-6.63,23.77s-1.66,16,2.21,19.35-3.87,13.27-10,4.42-2.21-16-1.11-19.9-6.08-13.82-8.29-8.29-5.53,22.12,12.16,38.15c7.19,7.19,10,19.35,11.06,26s3.87,22.12,10,31,3.87,19.35-3.32,22.67-8.29-7.19-6.63-12.72c1.66-7.19-8.29-26.54-21.56-23.22S131.5,210.43,126,215.41Z" transform="translate(-44.34 -10.94)"/></svg>