<svg id="图层_1" data-name="图层 1" xmlns="http://www.w3.org/2000/svg" viewBox="0 0 138.25 200.57"><defs><style>.cls-1{fill:#8dc643;}.cls-1,.cls-3,.cls-4,.cls-5{stroke:#000;stroke-miterlimit:10;stroke-width:2px;}.cls-2,.cls-4{fill:#fefbd8;}.cls-3{fill:#98d248;}.cls-5{fill:none;}</style></defs><title>romaine lettuce</title><path class="cls-1" d="M105.8,49.67S98.83,34.42,116,32c0,0,6.43-19.21,18.59-10.13,0,0,11.8-6.64,11.8,5.24,0,0,11.53-5.94,9.08,9.08,0,0,14.32-3.3,3.84,12.85,0,0,3.06-.86.92,3.54s-35,50-35,50Z" transform="translate(-65.36 -18.41)"/><path class="cls-2" d="M115,61s8.07,3.66,10.69-6.82c2.27-8.91,5.61-2.62,5.08,0,0,2.62-.16,10.13,4.9,5.94l5.07-4.19s9.61-2.76,12.05-.33,0,20.94,0,20.94L122,91.36l-7-22.88V61Z" transform="translate(-65.36 -18.41)"/><path class="cls-3" d="M82.29,210l-0.92,2.49a21.8,21.8,0,0,0,18.73,5.11l1.7-3.18Z" transform="translate(-65.36 -18.41)"/><path class="cls-1" d="M89.4,212.58s26.2,10.13,39.47-17.12,19.21-92.22,45.41-115.28c17.47-15.72,21-12.58,26.9-15s-7.69-12.58-21.31-5.24c0,0-4.89-13.62-22.71-6.29-11.16,5.59-8.38,11.53-8.38,11.53S134.81,58.53,131,83c0,0-2.79-.7-5.94,3.14,0,0,4.89-21.31-9.43-21.31,0,0,6.29-7.83-1-13.35s-10.83,0-10.83,0S102,39.31,87.31,45.25c-11.53,4.89-9.43,13.62-9.43,13.62s18.86,7,16.77,37.38-31.09,57.64-27.95,87C69.49,209.43,89.4,212.58,89.4,212.58Z" transform="translate(-65.36 -18.41)"/><path class="cls-4" d="M96.39,127.34s4.19,4.19-4.19,16.07-3.49,19.21,0,19.91S103,154.59,103,154.59s-3.84,11.53,2.45,12.92S117,157.38,117,157.38s5.59,3.49,9.08-6.29,8.46-20.26,8.46-20.26,1.33,6.29,5.17,4.54c0,0,2.45,3.14,4.19,0s6.82-12.24,6.82-12.24S136.39,218,104.4,214.42c-28.79-3.21-34.56-7.43-37.7-31.19S83.61,131.33,87,123.14s5.94-16.4,5.94-16.4a28,28,0,0,1,0,11.52C91.5,123.85,96.39,127.34,96.39,127.34Z" transform="translate(-65.36 -18.41)"/><path class="cls-5" d="M81.37,176.73S77.83,197.29,84.51,210" transform="translate(-65.36 -18.41)"/><path class="cls-5" d="M93.68,194.67s-2.75,13-2.1,17.65" transform="translate(-65.36 -18.41)"/><path class="cls-5" d="M114.77,190.74s-5.83,17.65-16.93,22.78" transform="translate(-65.36 -18.41)"/><path class="cls-1" d="M125,86.12s8.38,14-5.24,24.45c0,0,9.43,10.48-2.1,23.75" transform="translate(-65.36 -18.41)"/></svg>