<svg id="图层_1" data-name="图层 1" xmlns="http://www.w3.org/2000/svg" viewBox="0 0 156.49 207.59"><defs><style>.cls-1{fill:#90bc3f;}.cls-1,.cls-2,.cls-3,.cls-4{stroke:#668237;stroke-miterlimit:10;stroke-width:3px;}.cls-2{fill:none;}.cls-3{fill:#c1dd85;}.cls-4{fill:#9cc14c;}</style></defs><title>spinach</title><path class="cls-1" d="M174.14,68.57c-1.52-28.19-15.49-50.22-31.2-49.21S115.73,44,117.26,72.23c0.9,16.69,6.16,31.21,13.57,40.08h0a34.51,34.51,0,0,0,2.61,2.8c4.62,5,13.78,15.34,13.81,18,0,0,3.53-10.86,9.81-14.73l0,0C168.14,111.05,175.37,91.29,174.14,68.57Z" transform="translate(-36.15 -17.83)"/><path class="cls-1" d="M146.57,97.49s-1.12,47.67.18,57.93,3.44,36.67-4,54.74c-2.75,9.61,1.54,11.43,3.52,4S155.64,167.44,146.57,97.49Z" transform="translate(-36.15 -17.83)"/><path class="cls-2" d="M146.57,97.49s-6-57-3.24-65.51" transform="translate(-36.15 -17.83)"/><path class="cls-2" d="M150.59,27.5s-2.81,11.83-8,14.32" transform="translate(-36.15 -17.83)"/><path class="cls-2" d="M155.53,42.8s-5.69,19.94-11.88,25.34" transform="translate(-36.15 -17.83)"/><path class="cls-2" d="M157.89,65.36S152.21,85.29,146,90.69" transform="translate(-36.15 -17.83)"/><path class="cls-2" d="M143.54,56.38s-9-7.3-9.15-13.46" transform="translate(-36.15 -17.83)"/><path class="cls-2" d="M144,75.6S129,62,126.63,53.65" transform="translate(-36.15 -17.83)"/><path class="cls-2" d="M146.65,98.81S127.71,81.25,124,71.42" transform="translate(-36.15 -17.83)"/><path class="cls-1" d="M191,103c1.6-23.19-8.53-42.79-22.64-43.76s-26.85,17-28.45,40.23c-0.95,13.73,2.22,26.2,7.88,34.29h0a29.58,29.58,0,0,0,2,2.59c3.59,4.64,10.67,14.11,10.41,16.32,0,0,4.28-8.46,10.29-10.9l0,0C181.15,137,189.67,121.72,191,103Z" transform="translate(-36.15 -17.83)"/><path class="cls-1" d="M163.35,123.49s-6,38.8-5.93,47.32-0.78,30.34-9.28,44.25c-3.47,7.54.17,9.51,2.71,3.67S164.09,181.65,163.35,123.49Z" transform="translate(-36.15 -17.83)"/><path class="cls-2" d="M163.35,123.49s0.68-47.19,4-53.87" transform="translate(-36.15 -17.83)"/><path class="cls-2" d="M174.28,66.8s-3.75,9.34-8.61,10.78" transform="translate(-36.15 -17.83)"/><path class="cls-2" d="M177.08,79.85s-7.16,15.63-13.25,19.33" transform="translate(-36.15 -17.83)"/><path class="cls-2" d="M176.82,98.55s-7.16,15.63-13.25,19.33" transform="translate(-36.15 -17.83)"/><path class="cls-2" d="M165,89.57s-7.24-7-6.74-12" transform="translate(-36.15 -17.83)"/><path class="cls-2" d="M163.38,105.32s-12-12.79-13.2-19.92" transform="translate(-36.15 -17.83)"/><path class="cls-2" d="M163.28,124.58s-15-16.51-17.34-25" transform="translate(-36.15 -17.83)"/><path class="cls-1" d="M48.16,137.75C34.78,118.4,34.08,96.37,46.59,88.53s33.5,1.5,46.87,20.85c7.92,11.45,11.39,23.85,10.32,33.68h0a28.26,28.26,0,0,1-.55,3.25c-0.93,5.81-2.6,17.54-1.23,19.32,0,0-8.29-5.23-15.08-4.37h0C74.65,162.41,58.93,153.33,48.16,137.75Z" transform="translate(-36.15 -17.83)"/><path class="cls-3" d="M84.11,141.83s25.44,30.72,29.74,38.16,16.28,26,31.25,33.83c7.06,4.83,4.72,8.34-.62,4.53S113.27,192.71,84.11,141.83Z" transform="translate(-36.15 -17.83)"/><path class="cls-2" d="M84.11,141.83S59.28,101.18,52.8,97" transform="translate(-36.15 -17.83)"/><path class="cls-2" d="M45,98s8.25,6.26,13.47,5.1" transform="translate(-36.15 -17.83)"/><path class="cls-2" d="M49.07,110.74s14.62,10,22.13,10.23" transform="translate(-36.15 -17.83)"/><path class="cls-2" d="M58.9,126.84s14.62,10,22.13,10.23" transform="translate(-36.15 -17.83)"/><path class="cls-2" d="M65.22,113.18s3.09-9.66,0-13.79" transform="translate(-36.15 -17.83)"/><path class="cls-2" d="M74.77,126.07s4.5-17,2-23.83" transform="translate(-36.15 -17.83)"/><path class="cls-2" d="M84.73,142.74s5.4-21.78,3.18-30.26" transform="translate(-36.15 -17.83)"/><path class="cls-1" d="M55.31,122.95c-11.53-22.67-10.09-47,3.2-54.23s33.41,5.21,44.94,27.88c6.82,13.42,9.11,27.41,7.07,38.09h0a33.62,33.62,0,0,1-.86,3.52c-1.5,6.29-4.31,19-3.11,21.1,0,0-7.8-6.63-14.69-6.41h0C79.46,152.86,64.6,141.22,55.31,122.95Z" transform="translate(-36.15 -17.83)"/><path class="cls-3" d="M90.94,131.25s22.52,36.45,26.1,45.08,13.8,30.25,28,40.48c6.61,6.05,3.92,9.67-1.06,4.91S115.21,190.24,90.94,131.25Z" transform="translate(-36.15 -17.83)"/><path class="cls-2" d="M90.94,131.25S70,84,63.91,78.7" transform="translate(-36.15 -17.83)"/><path class="cls-2" d="M55.94,79s7.66,7.75,13,7" transform="translate(-36.15 -17.83)"/><path class="cls-2" d="M58.84,93.37S72.52,105.94,80,107" transform="translate(-36.15 -17.83)"/><path class="cls-2" d="M67.13,112.11s13.68,12.57,21.18,13.58" transform="translate(-36.15 -17.83)"/><path class="cls-2" d="M74.79,97.77s4-10.28,1.38-15.15" transform="translate(-36.15 -17.83)"/><path class="cls-2" d="M83.1,112.95s6.16-18.25,4.27-26" transform="translate(-36.15 -17.83)"/><path class="cls-2" d="M91.47,132.32S99,109,97.59,99.41" transform="translate(-36.15 -17.83)"/><path class="cls-1" d="M92.11,109.29c-3.73-22.95,4.57-43.39,18.53-45.66s28.3,14.5,32,37.44c2.21,13.58.2,26.29-4.7,34.87h0a29.58,29.58,0,0,1-1.79,2.77c-3.15,5-9.33,15-8.87,17.2,0,0-5-8-11.25-9.91h0C105,142.25,95.11,127.78,92.11,109.29Z" transform="translate(-36.15 -17.83)"/><path class="cls-1" d="M121.49,127.11s9.55,38.09,10.25,46.58,3.57,30.14,13.3,43.21c4.14,7.19.7,9.49-2.37,3.91S126.09,185.1,121.49,127.11Z" transform="translate(-36.15 -17.83)"/><path class="cls-2" d="M121.49,127.11s-5-46.93-8.92-53.28" transform="translate(-36.15 -17.83)"/><path class="cls-2" d="M105.39,71.67s4.59,9,9.56,9.95" transform="translate(-36.15 -17.83)"/><path class="cls-2" d="M103.8,84.93s8.57,14.91,15,18" transform="translate(-36.15 -17.83)"/><path class="cls-2" d="M105.78,103.52s8.57,14.91,15,18" transform="translate(-36.15 -17.83)"/><path class="cls-2" d="M116.76,93.49s6.57-7.63,5.61-12.61" transform="translate(-36.15 -17.83)"/><path class="cls-2" d="M119.78,109s10.77-13.84,11.32-21" transform="translate(-36.15 -17.83)"/><path class="cls-2" d="M121.65,128.19s13.46-17.82,15-26.45" transform="translate(-36.15 -17.83)"/><path class="cls-4" d="M174.68,85.27C173.19,59.89,159.46,40.05,144,41s-26.75,22.22-25.25,47.61c0.89,15,6.06,28.11,13.34,36.09h0a32.34,32.34,0,0,0,2.57,2.53c4.55,4.54,13.54,13.82,13.57,16.24,0,0,3.47-9.78,9.64-13.26l0,0C168.78,123.52,175.89,105.72,174.68,85.27Z" transform="translate(-36.15 -17.83)"/><path class="cls-1" d="M147.58,111.31s-1.1,42.93.17,52.16,3.38,33-3.89,49.29c-2.71,8.66,1.51,10.29,3.46,3.6S156.5,174.3,147.58,111.31Z" transform="translate(-36.15 -17.83)"/><path class="cls-2" d="M147.58,111.31s-5.85-51.28-3.19-59" transform="translate(-36.15 -17.83)"/><path class="cls-2" d="M151.53,48.29s-2.76,10.66-7.83,12.9" transform="translate(-36.15 -17.83)"/><path class="cls-2" d="M156.39,62.06s-5.59,18-11.67,22.82" transform="translate(-36.15 -17.83)"/><path class="cls-2" d="M158.71,82.37s-5.59,18-11.67,22.82" transform="translate(-36.15 -17.83)"/><path class="cls-2" d="M144.6,74.29s-8.83-6.58-9-12.12" transform="translate(-36.15 -17.83)"/><path class="cls-2" d="M145.08,91.6S130.29,79.4,128,71.84" transform="translate(-36.15 -17.83)"/><path class="cls-2" d="M147.66,112.5S129,96.69,125.37,87.84" transform="translate(-36.15 -17.83)"/><path class="cls-1" d="M122.13,61.3C109.64,34,86,17.95,69.39,25.55s-20,35.93-7.5,63.27C69.28,105,80.58,117.22,92,122.91h0a38.24,38.24,0,0,0,3.91,1.69c6.95,3.06,20.83,9.45,21.9,12.11,0,0-.36-12.26,5-18.74v0C132,106,132.19,83.33,122.13,61.3Z" transform="translate(-36.15 -17.83)"/><path class="cls-3" d="M103.37,101.58s17.12,47.8,22.47,57.43,17.84,35,16.77,56c0.71,10.7,6.06,10.7,5.35,2.5S140.11,167.21,103.37,101.58Z" transform="translate(-36.15 -17.83)"/><path class="cls-2" d="M103.37,101.58S75,47.54,74.65,37.9" transform="translate(-36.15 -17.83)"/><path class="cls-2" d="M80.81,30.41S82.32,43.34,77.68,48" transform="translate(-36.15 -17.83)"/><path class="cls-2" d="M92,43.52s1.51,22.18-3.13,30.14" transform="translate(-36.15 -17.83)"/><path class="cls-2" d="M103.28,64.93s1.51,22.18-3.13,30.14" transform="translate(-36.15 -17.83)"/><path class="cls-2" d="M84.28,62s-12.54-3.48-15.09-9.52" transform="translate(-36.15 -17.83)"/><path class="cls-2" d="M92.2,80.92S70.67,73.79,64.9,66.43" transform="translate(-36.15 -17.83)"/><path class="cls-2" d="M104,102.86S76.69,93.38,68.86,85.19" transform="translate(-36.15 -17.83)"/></svg>