<svg id="图层_1" data-name="图层 1" xmlns="http://www.w3.org/2000/svg" viewBox="0 0 218 218"><defs><style>.cls-1{fill:#fff;stroke-width:2px;}.cls-1,.cls-2{stroke:#000;}.cls-1,.cls-2,.cls-3,.cls-4,.cls-5{stroke-miterlimit:10;}.cls-2,.cls-5{fill:none;}.cls-2{stroke-width:3px;}.cls-3{fill:#73b168;}.cls-3,.cls-4,.cls-5{stroke:#334917;}.cls-4{fill:#a6e9a6;}</style></defs><title>steamed brocolli</title><circle class="cls-1" cx="109" cy="109" r="108"/><path class="cls-2" d="M41.13,84.49s21-62.51,91-52.25" transform="translate(-10.27 -9.93)"/><path class="cls-2" d="M37,111.22A43.93,43.93,0,0,1,39,93" transform="translate(-10.27 -9.93)"/><path class="cls-3" d="M80.38,66.76s2.45-4.69,8.4-1.35c0,0,5.41-3.63,9.09,1.63,0,0,3.45-4.43,7.51-.14,2.27,2.74-1.33,5.81-1.33,5.81l0.9,5.39L79.18,75.35Z" transform="translate(-10.27 -9.93)"/><path class="cls-4" d="M73.69,110l14.79,3.38s2.73-13.26,6.07-13.87c0,0-2.63-2.51-1.73-4.44,0,0-3.27,1-4.27-2,0,0-2.24,4.47-5.68,4.14S77.42,93.05,78,91.35c0,0-2.69,2.42-4.29,2.06A32.78,32.78,0,0,1,73.69,110Z" transform="translate(-10.27 -9.93)"/><path class="cls-3" d="M79.41,91s-4,3.55-6.46,2.22a4.27,4.27,0,0,1-2.36-3.68s-7.75-3.5-5.72-9.68,6.06-4.5,6.06-4.5-1.06-8,6.28-8.79,7.37,5.81,7.37,5.81,4.5-4.31,7.82,1.18-2.28,10-2.28,10,0.09,5-3,7.29S79.41,91,79.41,91Z" transform="translate(-10.27 -9.93)"/><path class="cls-5" d="M89.82,94.18s-4,6-6.13,18.13" transform="translate(-10.27 -9.93)"/><path class="cls-5" d="M80.55,96.7S79.91,102.16,78,111" transform="translate(-10.27 -9.93)"/><path class="cls-3" d="M77.32,89.49s-1,5.23,3.67,7.31,6.84-3.88,6.84-3.88a7.34,7.34,0,0,0,4.47,1.82s1.39,9.93,13.16,6.52c5.38-1.52,4.55-12.54,1.61-13.06,0,0,8.46-3.71,6.55-11.32S101.25,70.24,100.15,73c0,0-9.17-5.3-12.53,3.39,0,0-8.16-3-11,4S77.32,89.49,77.32,89.49Z" transform="translate(-10.27 -9.93)"/><path class="cls-5" d="M87.18,81.06s-1.81,7.83,5.7,9.09" transform="translate(-10.27 -9.93)"/><path class="cls-5" d="M100.44,81.81S107.19,89,110.6,79.4" transform="translate(-10.27 -9.93)"/><path class="cls-5" d="M95.5,92.73s1.61,11.66,10.59,2.42" transform="translate(-10.27 -9.93)"/><path class="cls-3" d="M98.74,114s-5.11,1.38-6.68-5.26c0,0-6.33-1.52-5-7.79,0,0-5.6.46-5.18-5.43,0.48-3.53,5.18-3,5.18-3l3.36-4.32L105.87,109Z" transform="translate(-10.27 -9.93)"/><path class="cls-4" d="M135.11,89.59l-7.53-13.17s-11.61,7-14.32,4.93c0,0-.06,3.63-2.09,4.28,0,0,2.93,1.75,1.42,4.5,0,0,4.8-1.37,6.89,1.37s0.62,6.84-1,7.6c0,0,3.6.34,4.42,1.76A32.78,32.78,0,0,1,135.11,89.59Z" transform="translate(-10.27 -9.93)"/><path class="cls-3" d="M117.23,98.26s5.33,0.55,6,3.25a4.27,4.27,0,0,1-1.1,4.23s2.67,8.07-3.25,10.77-7.42-1.42-7.42-1.42-5.18,6.22-10.72,1.33-0.72-9.35-.72-9.35-6.22-.39-4.43-6.55,8.87-5.07,8.87-5.07,3.59-3.42,7.43-2.7S117.23,98.26,117.23,98.26Z" transform="translate(-10.27 -9.93)"/><path class="cls-5" d="M112.52,88.45s7.08-1.13,17.49-7.77" transform="translate(-10.27 -9.93)"/><path class="cls-5" d="M120.66,93.56s4.45-3.23,12.23-7.85" transform="translate(-10.27 -9.93)"/><path class="cls-3" d="M117.54,100.83s4.56-2.78,2.9-7.65-7.49-2.4-7.49-2.4a7.34,7.34,0,0,0-1.68-4.52s6.37-7.75-4.12-14.1c-4.76-2.93-12.31,5.15-10.7,7.66,0,0-8.46-3.71-12.76,2.85S87.17,96.25,90,95.17c0,0,2.31,10.33,11,6.92,0,0,3.28,8.06,10.38,5.38S117.54,100.83,117.54,100.83Z" transform="translate(-10.27 -9.93)"/><path class="cls-5" d="M104.66,99.28s7-4,2.83-10.34" transform="translate(-10.27 -9.93)"/><path class="cls-5" d="M96.23,89s0.72-9.83-8.65-5.85" transform="translate(-10.27 -9.93)"/><path class="cls-5" d="M107.61,85.26s7.49-9.08-5.39-9.43" transform="translate(-10.27 -9.93)"/><path class="cls-3" d="M172.6,89.22s4.54-2.72,7.87,3.24c0,0,6.51-.27,6.9,6.14,0,0,5.26-2,6.47,3.81,0.51,3.52-4.17,4.26-4.17,4.26l-2,5.07L167.08,95.92Z" transform="translate(-10.27 -9.93)"/><path class="cls-4" d="M144.29,122.62l10.85,10.61s9.25-9.88,12.42-8.66c0,0-.93-3.51.84-4.69,0,0-3.3-.88-2.59-3.94,0,0-4.24,2.64-7,.56s-2.47-6.41-1.11-7.58c0,0-3.56.66-4.73-.48A32.78,32.78,0,0,1,144.29,122.62Z" transform="translate(-10.27 -9.93)"/><path class="cls-3" d="M159.11,109.39s-5.28.93-6.67-1.48a4.27,4.27,0,0,1-.09-4.37s-4.78-7,.18-11.25,7.52-.67,7.52-0.67,3.29-7.4,9.95-4.21,3.25,8.8,3.25,8.8,6.09-1.33,6.05,5.09-7.14,7.3-7.14,7.3-2.52,4.27-6.4,4.63S159.11,109.39,159.11,109.39Z" transform="translate(-10.27 -9.93)"/><path class="cls-5" d="M166.32,117.54s-6.5,3-14.7,12.26" transform="translate(-10.27 -9.93)"/><path class="cls-5" d="M157.1,114.85s-3.4,4.32-9.62,10.9" transform="translate(-10.27 -9.93)"/><path class="cls-3" d="M158.11,107s-3.62,3.92-.69,8.15,7.86,0.26,7.86.26a7.34,7.34,0,0,0,2.86,3.89s-4,9.2,7.81,12.43c5.38,1.52,10.43-8.32,8.2-10.29,0,0,9.15,1.25,11.5-6.23s-7.07-12.12-9.47-10.3c0,0-5-9.31-12.45-3.65,0,0-5.36-6.85-11.45-2.33S158.11,107,158.11,107Z" transform="translate(-10.27 -9.93)"/><path class="cls-5" d="M170.92,105s-5.63,5.73.11,10.72" transform="translate(-10.27 -9.93)"/><path class="cls-5" d="M181.84,112.53s2,9.66,9.92,3.26" transform="translate(-10.27 -9.93)"/><path class="cls-5" d="M171.92,119.27s-4.72,10.78,7.76,7.59" transform="translate(-10.27 -9.93)"/><path class="cls-3" d="M178,154.63s2.9,4.43-2.93,8c0,0,.52,6.49-5.87,7.13,0,0,2.17,5.18-3.55,6.62-3.5.64-4.42-4-4.42-4l-5.15-1.85,15-21.13Z" transform="translate(-10.27 -9.93)"/><path class="cls-4" d="M143.51,127.63l-10.19,11.25s10.23,8.87,9.13,12.08c0,0,3.48-1.07,4.72.66,0,0,.76-3.33,3.84-2.74,0,0-2.8-4.14-.83-7s6.31-2.72,7.53-1.41c0,0-.8-3.53.3-4.74A32.78,32.78,0,0,1,143.51,127.63Z" transform="translate(-10.27 -9.93)"/><path class="cls-3" d="M157.31,141.93s-1.13-5.24,1.22-6.72a4.27,4.27,0,0,1,4.36-.26s6.84-5,11.24-.25,1,7.49,1,7.49,7.52,3,4.59,9.78-8.67,3.59-8.67,3.59,1.56,6-4.85,6.24-7.57-6.85-7.57-6.85-4.37-2.35-4.87-6.22S157.31,141.93,157.31,141.93Z" transform="translate(-10.27 -9.93)"/><path class="cls-5" d="M149.44,149.46s-3.28-6.38-12.82-14.21" transform="translate(-10.27 -9.93)"/><path class="cls-5" d="M151.77,140.13s-4.45-3.23-11.26-9.19" transform="translate(-10.27 -9.93)"/><path class="cls-3" d="M159.65,140.84s-4.05-3.47-8.17-.38,0,7.86,0,7.86a7.34,7.34,0,0,0-3.77,3s-9.34-3.64-12.12,8.29c-1.31,5.44,8.72,10.1,10.6,7.79,0,0-.9,9.19,6.67,11.25s11.84-7.53,9.93-9.86c0,0,9.11-5.4,3.17-12.58,0,0,6.64-5.62,1.89-11.54S159.65,140.84,159.65,140.84Z" transform="translate(-10.27 -9.93)"/><path class="cls-5" d="M162.17,153.57s-5.94-5.4-10.71.53" transform="translate(-10.27 -9.93)"/><path class="cls-5" d="M155,164.77s-9.57,2.37-2.87,10" transform="translate(-10.27 -9.93)"/><path class="cls-5" d="M147.93,155.11s-11-4.3-7.29,8" transform="translate(-10.27 -9.93)"/><path class="cls-3" d="M112.35,146.79s1.85,5-4.61,7.15c0,0-.92,6.45-7.29,5.67,0,0,1,5.53-4.92,5.67-3.56-.14-3.43-4.87-3.43-4.87l-4.61-2.94,19.29-17.31Z" transform="translate(-10.27 -9.93)"/><path class="cls-4" d="M84.66,112.88l-12.41,8.73s8,10.9,6.25,13.79c0,0,3.62-.28,4.46,1.68,0,0,1.47-3.08,4.35-1.83,0,0-1.82-4.65.72-7s6.75-1.26,7.66.28c0,0,0-3.62,1.34-4.56A32.78,32.78,0,0,1,84.66,112.88Z" transform="translate(-10.27 -9.93)"/><path class="cls-3" d="M95,129.86s0-5.36,2.67-6.29a4.27,4.27,0,0,1,4.31.7s7.78-3.42,11,2.22-0.71,7.52-.71,7.52,6.68,4.58,2.33,10.55-9.25,1.6-9.25,1.6,0.2,6.23-6.1,5-5.88-8.35-5.88-8.35-3.74-3.25-3.39-7.14S95,129.86,95,129.86Z" transform="translate(-10.27 -9.93)"/><path class="cls-5" d="M85.64,135.47s-1.8-6.94-9.38-16.68" transform="translate(-10.27 -9.93)"/><path class="cls-5" d="M90,126.89s-3.63-4.12-9-11.44" transform="translate(-10.27 -9.93)"/><path class="cls-3" d="M97.5,129.31s-3.19-4.28-7.89-2.16-1.69,7.68-1.69,7.68a7.34,7.34,0,0,0-4.34,2.1s-8.31-5.61-13.65,5.42c-2.47,5,6.28,11.77,8.63,9.93,0,0-2.9,8.77,4,12.44s13.2-4.75,11.85-7.44c0,0,10.07-3.27,5.86-11.58,0,0,7.72-4,4.38-10.84S97.5,129.31,97.5,129.31Z" transform="translate(-10.27 -9.93)"/><path class="cls-5" d="M97.17,142.28s-4.61-6.58-10.56-1.84" transform="translate(-10.27 -9.93)"/><path class="cls-5" d="M87.75,151.64s-9.86.21-5,9.17" transform="translate(-10.27 -9.93)"/><path class="cls-5" d="M82.93,140.66s-9.74-6.6-8.88,6.25" transform="translate(-10.27 -9.93)"/><path class="cls-3" d="M108.83,191.27s-3.27,4.17-8.5-.21c0,0-6,2.57-8.64-3.27,0,0-4.21,3.72-7.41-1.24-1.73-3.11,2.37-5.47,2.37-5.47l0.1-5.47L111.59,183Z" transform="translate(-10.27 -9.93)"/><path class="cls-4" d="M123.34,150l-13.92-6s-5.11,12.54-8.51,12.52c0,0,2.13,2.95.89,4.68,0,0,3.4-.35,3.83,2.76,0,0,3-4,6.34-3s4.6,5.1,3.75,6.68c0,0,3.09-1.89,4.59-1.24A32.78,32.78,0,0,1,123.34,150Z" transform="translate(-10.27 -9.93)"/><path class="cls-3" d="M114.22,167.61s4.6-2.75,6.76-1a4.27,4.27,0,0,1,1.65,4s7,4.86,3.85,10.57-6.79,3.31-6.79,3.31-0.42,8.09-7.79,7.49-6.18-7.06-6.18-7.06-5.21,3.42-7.47-2.59,4.06-9.37,4.06-9.37,0.82-4.89,4.33-6.61S114.22,167.61,114.22,167.61Z" transform="translate(-10.27 -9.93)"/><path class="cls-5" d="M104.57,162.58s5-5.15,9.35-16.7" transform="translate(-10.27 -9.93)"/><path class="cls-5" d="M114.15,161.8s1.63-5.25,5.09-13.61" transform="translate(-10.27 -9.93)"/><path class="cls-3" d="M116,169.48s2-5-2.27-7.86-7.43,2.56-7.43,2.56a7.34,7.34,0,0,0-4.06-2.61s0.45-10-11.74-8.82c-5.57.5-6.77,11.5-4,12.54,0,0-9,2.1-8.51,9.93S89,184,90.55,181.46c0,0,8,6.89,12.94-1,0,0,7.46,4.49,11.53-1.91S116,169.48,116,169.48Z" transform="translate(-10.27 -9.93)"/><path class="cls-5" d="M104.77,176s3.21-7.36-3.94-10" transform="translate(-10.27 -9.93)"/><path class="cls-5" d="M91.87,172.8s-5.32-8.3-10.43.5" transform="translate(-10.27 -9.93)"/><path class="cls-5" d="M98.73,163s0.56-11.76-10-4.32" transform="translate(-10.27 -9.93)"/><path class="cls-3" d="M147.24,170.46s-0.05,5.29-6.87,5c0,0-3.17,5.68-8.84,2.67,0,0-1.07,5.52-6.63,3.53-3.27-1.41-1.45-5.78-1.45-5.78l-3.25-4.4,24.22-9.23Z" transform="translate(-10.27 -9.93)"/><path class="cls-4" d="M133.57,128.87l-14.72,3.7s3.59,13.06.88,15.12c0,0,3.48,1,3.56,3.17,0,0,2.48-2.35,4.72-.15,0,0,0-5,3.18-6.26s6.76,1.25,7,3c0,0,1.3-3.38,2.89-3.78A32.78,32.78,0,0,1,133.57,128.87Z" transform="translate(-10.27 -9.93)"/><path class="cls-3" d="M137.1,148.42s2-5,4.75-4.91a4.27,4.27,0,0,1,3.77,2.2s8.49-.4,9.49,6-3.36,6.76-3.36,6.76,4.59,6.67-1.61,10.68-9.2-1.83-9.2-1.83-2.05,5.88-7.5,2.5-2.49-9.9-2.49-9.9-2.33-4.38-.6-7.88S137.1,148.42,137.1,148.42Z" transform="translate(-10.27 -9.93)"/><path class="cls-5" d="M126.38,150.3s0.82-7.13-2.76-18.94" transform="translate(-10.27 -9.93)"/><path class="cls-5" d="M133.5,143.85s-1.91-5.15-4.26-13.9" transform="translate(-10.27 -9.93)"/><path class="cls-3" d="M139.65,148.81s-1.44-5.14-6.59-4.85-4.33,6.56-4.33,6.56a7.34,7.34,0,0,0-4.81.4s-5.75-8.22-14.68.16c-4.11,3.79,1.64,13.24,4.49,12.37,0,0-5.85,7.14-.7,13.06s14,0.31,13.73-2.68c0,0,10.57.57,9.62-8.71,0,0,8.65-1,8-8.54S139.65,148.81,139.65,148.81Z" transform="translate(-10.27 -9.93)"/><path class="cls-5" d="M134.69,160.79s-1.94-7.79-9.2-5.51" transform="translate(-10.27 -9.93)"/><path class="cls-5" d="M122.53,166.15s-9.28-3.35-8,6.76" transform="translate(-10.27 -9.93)"/><path class="cls-5" d="M122,154.17s-6.72-9.66-10.53,2.65" transform="translate(-10.27 -9.93)"/><path class="cls-3" d="M79.83,162.69s-0.78,5.24-7.5,4c0,0-3.93,5.19-9.12,1.42,0,0-1.82,5.31-7.05,2.57-3-1.85-.64-5.93-0.64-5.93L52.9,160l25.26-5.79Z" transform="translate(-10.27 -9.93)"/><path class="cls-4" d="M72.05,119.61L57,121.23s1.74,13.43-1.22,15.09c0,0,3.3,1.51,3.08,3.63,0,0,2.78-2,4.69.51,0,0,.66-5,4-5.76s6.52,2.17,6.56,4c0,0,1.75-3.17,3.38-3.34A32.78,32.78,0,0,1,72.05,119.61Z" transform="translate(-10.27 -9.93)"/><path class="cls-3" d="M72.84,139.46s2.64-4.66,5.38-4.21A4.27,4.27,0,0,1,81.66,138s8.46,0.78,8.56,7.29S86,151.48,86,151.48s3.62,7.24-3.08,10.36S74,158.74,74,158.74s-2.85,5.54-7.78,1.43S65.15,150,65.15,150s-1.7-4.66.5-7.89S72.84,139.46,72.84,139.46Z" transform="translate(-10.27 -9.93)"/><path class="cls-5" d="M62,139.84s1.8-6.94-.11-19.14" transform="translate(-10.27 -9.93)"/><path class="cls-5" d="M69.91,134.44s-1.18-5.37-2.29-14.35" transform="translate(-10.27 -9.93)"/><path class="cls-3" d="M75.32,140.2s-0.72-5.29-5.85-5.72-5.2,5.9-5.2,5.9a7.34,7.34,0,0,0-4.82-.27s-4.55-8.94-14.56-1.88c-4.59,3.19-.21,13.34,2.73,12.87,0,0-6.79,6.27-2.5,12.84s13.85,2.25,14-.75c0,0,10.39,2,10.74-7.29,0,0,8.7.22,9.08-7.36S75.32,140.2,75.32,140.2Z" transform="translate(-10.27 -9.93)"/><path class="cls-5" d="M68.74,151.38s-0.84-8-8.35-6.73" transform="translate(-10.27 -9.93)"/><path class="cls-5" d="M56,155s-8.72-4.6-8.83,5.59" transform="translate(-10.27 -9.93)"/><path class="cls-5" d="M57.07,143.06s-5.32-10.5-10.8,1.16" transform="translate(-10.27 -9.93)"/><path class="cls-3" d="M169.29,52.36s3.3-4.14,8.5.29c0,0,6-2.52,8.6,3.35,0,0,4.24-3.68,7.39,1.31,1.7,3.13-2.42,5.45-2.42,5.45l-0.15,5.47-24.76-7.67Z" transform="translate(-10.27 -9.93)"/><path class="cls-4" d="M154.4,93.53l13.86,6.17s5.23-12.49,8.63-12.44c0,0-2.1-3-.84-4.69,0,0-3.4.32-3.81-2.79,0,0-3.06,4-6.37,3s-4.55-5.15-3.69-6.72c0,0-3.11,1.86-4.6,1.19A32.78,32.78,0,0,1,154.4,93.53Z" transform="translate(-10.27 -9.93)"/><path class="cls-3" d="M163.68,76s-4.62,2.71-6.77.94a4.27,4.27,0,0,1-1.61-4.06s-6.93-4.92-3.75-10.6S158.37,59,158.37,59s0.5-8.08,7.86-7.41,6.12,7.12,6.12,7.12,5.24-3.37,7.45,2.66-4.15,9.33-4.15,9.33-0.87,4.88-4.39,6.57S163.68,76,163.68,76Z" transform="translate(-10.27 -9.93)"/><path class="cls-5" d="M173.28,81.09s-5,5.1-9.51,16.61" transform="translate(-10.27 -9.93)"/><path class="cls-5" d="M163.7,81.78S162,87,158.48,95.34" transform="translate(-10.27 -9.93)"/><path class="cls-3" d="M161.91,74.08s-2,4.93,2.19,7.88,7.46-2.49,7.46-2.49a7.34,7.34,0,0,0,4,2.65S175,92.13,187.25,91c5.57-.45,6.88-11.43,4.1-12.51,0,0,9-2,8.6-9.85s-10.85-8.9-12.46-6.36c0,0-8-7-12.94.92,0,0-7.42-4.56-11.55,1.81S161.91,74.08,161.91,74.08Z" transform="translate(-10.27 -9.93)"/><path class="cls-5" d="M173.21,67.71s-3.28,7.33,3.84,10" transform="translate(-10.27 -9.93)"/><path class="cls-5" d="M186.08,71s5.24,8.35,10.44-.41" transform="translate(-10.27 -9.93)"/><path class="cls-5" d="M179.13,80.76s-0.67,11.75,9.92,4.41" transform="translate(-10.27 -9.93)"/><path class="cls-3" d="M108.8,58.64s-1.2-5.16,5.49-6.5c0,0,1.74-6.27,8-4.69,0,0-.27-5.61,5.61-5,3.51,0.6,2.78,5.27,2.78,5.27l4.2,3.5-21.34,14.7Z" transform="translate(-10.27 -9.93)"/><path class="cls-4" d="M131.93,95.82l13.42-7.08s-6.58-11.84-4.44-14.48c0,0-3.63-.19-4.21-2.24,0,0-1.85,2.87-4.55,1.26,0,0,1.21,4.85-1.61,6.84s-6.86.39-7.56-1.26c0,0-.46,3.59-1.91,4.35A32.78,32.78,0,0,1,131.93,95.82Z" transform="translate(-10.27 -9.93)"/><path class="cls-3" d="M123.87,77.66s-0.73,5.31-3.45,5.9a4.27,4.27,0,0,1-4.19-1.25s-8.15,2.4-10.65-3.61,1.67-7.36,1.67-7.36-6-5.39-1-10.76,9.37-.4,9.37-0.4,0.6-6.2,6.7-4.2,4.76,9,4.76,9,3.3,3.7,2.45,7.51S123.87,77.66,123.87,77.66Z" transform="translate(-10.27 -9.93)"/><path class="cls-5" d="M133.84,73.28S134.73,80.4,141,91" transform="translate(-10.27 -9.93)"/><path class="cls-5" d="M128.45,81.24s3.07,4.55,7.43,12.49" transform="translate(-10.27 -9.93)"/><path class="cls-3" d="M121.3,77.88s2.62,4.65,7.55,3.15,2.66-7.4,2.66-7.4a7.34,7.34,0,0,0,4.58-1.53s7.53,6.63,14.23-3.63c3.09-4.66-4.73-12.47-7.29-11,0,0,4-8.33-2.42-12.85s-13.7,3-12.71,5.86c0,0-10.41,2-7.29,10.74,0,0-8.17,3-5.73,10.19S121.3,77.88,121.3,77.88Z" transform="translate(-10.27 -9.93)"/><path class="cls-5" d="M123.28,65.06s3.73,7.11,10.24,3.18" transform="translate(-10.27 -9.93)"/><path class="cls-5" d="M133.82,57s9.8,1.05,6.14-8.45" transform="translate(-10.27 -9.93)"/><path class="cls-5" d="M137.2,68.49s8.82,7.8,9.61-5.06" transform="translate(-10.27 -9.93)"/><path class="cls-3" d="M149.23,68.36s4.28-3.12,8.12,2.52c0,0,6.45-.85,7.42,5.5,0,0,5.06-2.44,6.79,3.21,0.82,3.46-3.77,4.62-3.77,4.62l-1.59,5.23L144.34,75.53Z" transform="translate(-10.27 -9.93)"/><path class="cls-4" d="M124,104.17l11.75,9.6s8.33-10.67,11.6-9.74c0,0-1.24-3.42.42-4.75,0,0-3.36-.59-2.94-3.69,0,0-4,3-6.92,1.19s-3-6.16-1.79-7.45c0,0-3.49,1-4.75-.06A32.78,32.78,0,0,1,124,104.17Z" transform="translate(-10.27 -9.93)"/><path class="cls-3" d="M137.61,89.66s-5.17,1.39-6.78-.87a4.27,4.27,0,0,1-.49-4.34s-5.39-6.57-.83-11.22,7.43-1.34,7.43-1.34,2.61-7.66,9.53-5.09,4,8.47,4,8.47,5.94-1.87,6.48,4.53-6.46,7.91-6.46,7.91-2.12,4.48-6,5.19S137.61,89.66,137.61,89.66Z" transform="translate(-10.27 -9.93)"/><path class="cls-5" d="M145.52,97.13s-6.2,3.6-13.54,13.53" transform="translate(-10.27 -9.93)"/><path class="cls-5" d="M136.09,95.28s-3,4.61-8.6,11.71" transform="translate(-10.27 -9.93)"/><path class="cls-3" d="M136.4,87.38s-3.26,4.23,0,8.18,7.85-.44,7.85-0.44a7.34,7.34,0,0,0,3.19,3.62s-3.16,9.52,8.9,11.68c5.5,1,9.64-9.22,7.24-11,0,0,9.23.43,10.89-7.24s-8.13-11.44-10.35-9.41c0,0-5.86-8.82-12.73-2.52,0,0-6-6.35-11.62-1.3S136.4,87.38,136.4,87.38Z" transform="translate(-10.27 -9.93)"/><path class="cls-5" d="M149,84.2s-5.09,6.21,1.07,10.67" transform="translate(-10.27 -9.93)"/><path class="cls-5" d="M160.53,90.75s2.86,9.44,10.18,2.36" transform="translate(-10.27 -9.93)"/><path class="cls-5" d="M151.25,98.35s-3.74,11.16,8.41,6.87" transform="translate(-10.27 -9.93)"/><path class="cls-3" d="M117.58,108.66s2-4.92,8.22-2.2c0,0,5-4.16,9.21.7,0,0,3-4.76,7.46-.9,2.54,2.49-.73,5.92-0.73,5.92l1.45,5.28-25.92-.13Z" transform="translate(-10.27 -9.93)"/><path class="cls-4" d="M115.33,152.38l15.06,1.86s1.37-13.47,4.63-14.42c0,0-2.87-2.23-2.17-4.24,0,0-3.16,1.3-4.45-1.56,0,0-1.78,4.67-5.23,4.69s-5.85-3.6-5.48-5.35c0,0-2.43,2.68-4.05,2.48A32.78,32.78,0,0,1,115.33,152.38Z" transform="translate(-10.27 -9.93)"/><path class="cls-3" d="M119.09,132.88s-3.63,3.94-6.2,2.87a4.27,4.27,0,0,1-2.73-3.42s-8.06-2.69-6.68-9.05,5.58-5.09,5.58-5.09-1.87-7.88,5.36-9.38,7.92,5,7.92,5,4-4.75,7.9.38S129,124.34,129,124.34s0.59,4.92-2.28,7.57S119.09,132.88,119.09,132.88Z" transform="translate(-10.27 -9.93)"/><path class="cls-5" d="M129.77,135s-3.33,6.35-4.26,18.66" transform="translate(-10.27 -9.93)"/><path class="cls-5" d="M120.8,138.43s-0.08,5.49-1,14.5" transform="translate(-10.27 -9.93)"/><path class="cls-3" d="M116.85,131.59s-0.51,5.31,4.39,6.9,6.41-4.56,6.41-4.56a7.34,7.34,0,0,0,4.63,1.36s2.39,9.74,13.75,5.15c5.2-2.06,3.25-12.94.28-13.16,0,0,8-4.55,5.36-11.93s-13-5.35-13.78-2.45c0,0-9.66-4.34-12.12,4.65,0,0-8.42-2.2-10.52,5.09S116.85,131.59,116.85,131.59Z" transform="translate(-10.27 -9.93)"/><path class="cls-5" d="M125.8,122.2s-1,8,6.59,8.46" transform="translate(-10.27 -9.93)"/><path class="cls-5" d="M139.07,121.59s7.44,6.47,9.87-3.43" transform="translate(-10.27 -9.93)"/><path class="cls-5" d="M135.26,133S138,144.4,146,134.3" transform="translate(-10.27 -9.93)"/><path class="cls-3" d="M46.95,116.85s-4.56-2.69-.92-8.46c0,0-3.34-5.59,2.1-9,0,0-4.25-3.68.25-7.51,2.85-2.13,5.73,1.63,5.73,1.63l5.43-.62L55.46,118.5Z" transform="translate(-10.27 -9.93)"/><path class="cls-4" d="M89.81,125.77L94,111.17s-13.1-3.41-13.54-6.78c0,0-2.64,2.5-4.52,1.5,0,0,.8,3.32-2.22,4.16,0,0,4.34,2.47,3.84,5.88s-4.45,5.23-6.13,4.6c0,0,2.28,2.81,1.83,4.39A32.78,32.78,0,0,1,89.81,125.77Z" transform="translate(-10.27 -9.93)"/><path class="cls-3" d="M71.11,119.07s3.33,4.19,1.89,6.57a4.27,4.27,0,0,1-3.79,2.17s-3.89,7.55-10,5.21-4.18-6.29-4.18-6.29S47,127.38,46.6,120s6.18-7.06,6.18-7.06-4.07-4.71,1.58-7.75S64.19,108,64.19,108s5,0.17,7.13,3.41S71.11,119.07,71.11,119.07Z" transform="translate(-10.27 -9.93)"/><path class="cls-5" d="M74.82,108.84s5.77,4.26,17.79,7.06" transform="translate(-10.27 -9.93)"/><path class="cls-5" d="M76.86,118.23s5.42,0.92,14.17,3.25" transform="translate(-10.27 -9.93)"/><path class="cls-3" d="M69.49,121.08s5.17,1.31,7.49-3.29-3.52-7-3.52-7a7.34,7.34,0,0,0,2.05-4.37s10-.88,7.19-12.8c-1.24-5.45-12.29-5.19-13-2.29,0,0-3.27-8.64-11-7.12s-7.27,12-4.53,13.24c0,0-5.77,8.88,2.74,12.68,0,0-3.46,8,3.42,11.18S69.49,121.08,69.49,121.08Z" transform="translate(-10.27 -9.93)"/><path class="cls-5" d="M61.59,110.8S69.31,113,71,105.58" transform="translate(-10.27 -9.93)"/><path class="cls-5" d="M63,97.6s7.53-6.37-1.88-10.27" transform="translate(-10.27 -9.93)"/><path class="cls-5" d="M73.67,103.1s11.73-1,3-10.45" transform="translate(-10.27 -9.93)"/></svg>