<svg id="图层_1" data-name="图层 1" xmlns="http://www.w3.org/2000/svg" viewBox="0 0 122.84 154.18"><defs><style>.cls-1{fill:#d5eb5c;}.cls-1,.cls-2,.cls-3{stroke:#020202;stroke-miterlimit:10;stroke-width:2px;}.cls-2{fill:#e54c2e;}.cls-3{fill:none;}</style></defs><title>strawberry</title><path class="cls-1" d="M164.16,83.86s11.19-14.69,7-33.57c0,0-36.36-12.59-46.85,30.77Z" transform="translate(-57.36 -38.95)"/><path class="cls-1" d="M79.08,83.86s-11.19-14.69-7-33.57c0,0,36.36-12.59,46.85,30.77Z" transform="translate(-57.36 -38.95)"/><path class="cls-1" d="M99.82,80.57S95.63,53.29,120.1,40c0,0,23.08,4.56,20.28,40.56H99.82Z" transform="translate(-57.36 -38.95)"/><line class="cls-1" x1="62.64" y1="16.61" x2="62.64" y2="41.61"/><line class="cls-1" x1="99.81" y1="21.83" x2="83.03" y2="42.11"/><line class="cls-1" x1="25.68" y1="21.83" x2="42.47" y2="42.11"/><path class="cls-2" d="M58.46,105.23c0.75-9.41,4.29-21.65,17.08-25.37h85.32s20.28,1.4,18.18,27.27-40.56,76.93-40.56,76.93-20.28,18.18-37.06,0c-12.82-13.89-30.94-45.73-38.79-60A33.59,33.59,0,0,1,58.46,105.23Z" transform="translate(-57.36 -38.95)"/><line class="cls-3" x1="22.64" y1="54.61" x2="22.64" y2="65.61"/><line class="cls-3" x1="44.64" y1="54.61" x2="44.64" y2="65.61"/><line class="cls-3" x1="64.64" y1="54.61" x2="64.64" y2="65.61"/><line class="cls-3" x1="86.64" y1="54.61" x2="86.64" y2="65.61"/><line class="cls-3" x1="106.64" y1="54.61" x2="106.64" y2="65.61"/><line class="cls-3" x1="33.64" y1="79.61" x2="33.64" y2="90.61"/><line class="cls-3" x1="53.64" y1="79.61" x2="53.64" y2="90.61"/><line class="cls-3" x1="75.64" y1="79.61" x2="75.64" y2="90.61"/><line class="cls-3" x1="94.64" y1="79.61" x2="94.64" y2="90.61"/><line class="cls-3" x1="41.64" y1="99.61" x2="41.64" y2="110.61"/><line class="cls-3" x1="64.64" y1="99.61" x2="64.64" y2="110.61"/><line class="cls-3" x1="83.64" y1="99.61" x2="83.64" y2="110.61"/><line class="cls-3" x1="75.64" y1="118.61" x2="75.64" y2="129.61"/><line class="cls-3" x1="53.64" y1="118.61" x2="53.64" y2="129.61"/></svg>