<svg id="图层_1" data-name="图层 1" xmlns="http://www.w3.org/2000/svg" viewBox="0 0 218 218"><defs><style>.cls-1{fill:#fff;}.cls-1,.cls-2,.cls-3,.cls-4,.cls-6,.cls-7{stroke:#000;}.cls-1,.cls-2,.cls-3,.cls-4,.cls-5,.cls-6,.cls-7{stroke-miterlimit:10;}.cls-1,.cls-3,.cls-6{stroke-width:2px;}.cls-2,.cls-5,.cls-6,.cls-7{fill:none;}.cls-2{stroke-width:3px;}.cls-3,.cls-4{fill:#f44c2a;}.cls-5{stroke:#f9eae1;}</style></defs><title>tuna sashimi</title><circle class="cls-1" cx="109" cy="109" r="108"/><path class="cls-2" d="M40.91,84.18s21-62.51,91-52.25" transform="translate(-10.05 -9.62)"/><path class="cls-2" d="M36.75,110.92a43.93,43.93,0,0,1,2.05-18.23" transform="translate(-10.05 -9.62)"/><path class="cls-3" d="M119.28,60.58l9.43-3.17s31.85,7.15,41.56,35.24-0.87,44.69-10.52,45.46-17.83,2-21.15,2S191.81,97.35,119.28,60.58Z" transform="translate(-10.05 -9.62)"/><path class="cls-4" d="M116.12,102.36s-19.67-4.6-18.39-14,4.6-23.24,15.32-27.07,32.18,9.19,43.42,31.92c10.22,21.2-5.36,46.74-21.2,47s-9.71-26.05-10.47-28.09S122.32,104.33,116.12,102.36Z" transform="translate(-10.05 -9.62)"/><path class="cls-5" d="M106.41,97.76a13.4,13.4,0,0,1-.63-6.9c0.77-3.32-4.08-13.42-4.08-15.08" transform="translate(-10.05 -9.62)"/><path class="cls-5" d="M110.63,99.93a100.92,100.92,0,0,1,1.28-12c1-5.62-4-10.6-4.81-14.17a32,32,0,0,1-.68-6.73" transform="translate(-10.05 -9.62)"/><path class="cls-5" d="M116.12,102.36s5-11,.89-21.58c-6-12.64-7.54-13.79-6.64-17.24" transform="translate(-10.05 -9.62)"/><path class="cls-5" d="M124.8,109.51s6.38-5.24.77-24.52-7.86-14.56-6.29-23.5" transform="translate(-10.05 -9.62)"/><path class="cls-5" d="M130.29,136.84s-5.47-6.38-1.59-16.47a59.77,59.77,0,0,0,2.35-38.12c-2.85-11.17-3.48-15.39-3.24-17.44" transform="translate(-10.05 -9.62)"/><path class="cls-5" d="M134.76,139.26s-5.87-6.77-.77-17.37,9.58-21.07,6.77-33.46-3.58-15.83-3.19-17.88" transform="translate(-10.05 -9.62)"/><path class="cls-5" d="M147.53,81.36a25.53,25.53,0,0,0-.84,6.82c-0.07,4.47,4.92,13.54-3.38,27.84s0,20.81,0,20.81" transform="translate(-10.05 -9.62)"/><path class="cls-5" d="M150.6,130.58s-5.2-2.59,1.79-15.71c5.67-10.64,2.43-22.47,2.43-22.47" transform="translate(-10.05 -9.62)"/><path class="cls-5" d="M167.73,132.92s-6.54,2.77-15.86-1.19" transform="translate(-10.05 -9.62)"/><path class="cls-5" d="M172.3,122.15s-5.65,6.63-14.26,0" transform="translate(-10.05 -9.62)"/><path class="cls-5" d="M160.13,102.1s4.9-3.7,12.17,0" transform="translate(-10.05 -9.62)"/><path class="cls-5" d="M157.72,92.93s4.88-4.1,12.67.49" transform="translate(-10.05 -9.62)"/><path class="cls-5" d="M163.68,80.52s-8.87-4.34-16.15-2.3" transform="translate(-10.05 -9.62)"/><path class="cls-5" d="M139.63,71.07s6.24-1.92,15.18,0" transform="translate(-10.05 -9.62)"/><path class="cls-5" d="M129.53,63.54a22.23,22.23,0,0,1,13.54,0" transform="translate(-10.05 -9.62)"/><path class="cls-6" d="M116.12,102.36s-19.67-4.6-18.39-14,4.6-23.24,15.32-27.07,32.18,9.19,43.42,31.92c10.22,21.2-5.36,46.74-21.2,47s-9.71-26.05-10.47-28.09S122.32,104.33,116.12,102.36Z" transform="translate(-10.05 -9.62)"/><path class="cls-7" d="M166.22,136.84" transform="translate(-10.05 -9.62)"/><path class="cls-7" d="M128.7,57.41" transform="translate(-10.05 -9.62)"/><path class="cls-6" d="M128.7,57.41S155,63,167.1,85.5s7.12,45.12-3.42,51.42" transform="translate(-10.05 -9.62)"/><path class="cls-3" d="M95.18,88.25l9.43-3.17s31.85,7.15,41.56,35.24-0.87,44.69-10.52,45.46-17.83,2-21.15,2S167.71,125,95.18,88.25Z" transform="translate(-10.05 -9.62)"/><path class="cls-4" d="M92,130s-19.67-4.6-18.39-14S78.23,92.74,89,88.91s32.18,9.19,43.42,31.92c10.22,21.2-5.36,46.74-21.2,47s-9.7-26.05-10.47-28.09S98.23,132,92,130Z" transform="translate(-10.05 -9.62)"/><path class="cls-5" d="M82.31,125.43a13.4,13.4,0,0,1-.63-6.9c0.77-3.32-4.08-13.42-4.08-15.08" transform="translate(-10.05 -9.62)"/><path class="cls-5" d="M86.53,127.6a100.92,100.92,0,0,1,1.28-12c1-5.62-4-10.6-4.81-14.17a32,32,0,0,1-.68-6.73" transform="translate(-10.05 -9.62)"/><path class="cls-5" d="M92,130s5-11,.89-21.58c-6-12.64-7.54-13.79-6.64-17.24" transform="translate(-10.05 -9.62)"/><path class="cls-5" d="M100.7,137.18s6.38-5.24.77-24.52-7.86-14.56-6.29-23.5" transform="translate(-10.05 -9.62)"/><path class="cls-5" d="M106.19,164.51s-5.47-6.38-1.59-16.47A59.77,59.77,0,0,0,107,109.92c-2.85-11.17-3.48-15.39-3.24-17.44" transform="translate(-10.05 -9.62)"/><path class="cls-5" d="M110.66,166.93s-5.87-6.77-.77-17.37,9.58-21.07,6.77-33.46-3.58-15.83-3.19-17.88" transform="translate(-10.05 -9.62)"/><path class="cls-5" d="M123.43,109a25.53,25.53,0,0,0-.84,6.82c-0.07,4.47,4.92,13.54-3.38,27.84s0,20.81,0,20.81" transform="translate(-10.05 -9.62)"/><path class="cls-5" d="M126.5,158.25s-5.2-2.59,1.79-15.71c5.67-10.64,2.43-22.47,2.43-22.47" transform="translate(-10.05 -9.62)"/><path class="cls-5" d="M143.63,160.59s-6.54,2.77-15.86-1.19" transform="translate(-10.05 -9.62)"/><path class="cls-5" d="M148.2,149.82s-5.65,6.63-14.26,0" transform="translate(-10.05 -9.62)"/><path class="cls-5" d="M136,129.77s4.9-3.7,12.17,0" transform="translate(-10.05 -9.62)"/><path class="cls-5" d="M133.62,120.59s4.88-4.1,12.67.49" transform="translate(-10.05 -9.62)"/><path class="cls-5" d="M139.59,108.19s-8.87-4.34-16.15-2.3" transform="translate(-10.05 -9.62)"/><path class="cls-5" d="M115.53,98.74s6.24-1.92,15.18,0" transform="translate(-10.05 -9.62)"/><path class="cls-5" d="M105.43,91.21a22.23,22.23,0,0,1,13.54,0" transform="translate(-10.05 -9.62)"/><path class="cls-6" d="M92,130s-19.67-4.6-18.39-14S78.23,92.74,89,88.91s32.18,9.19,43.42,31.92c10.22,21.2-5.36,46.74-21.2,47s-9.7-26.05-10.47-28.09S98.23,132,92,130Z" transform="translate(-10.05 -9.62)"/><path class="cls-7" d="M142.12,164.51" transform="translate(-10.05 -9.62)"/><path class="cls-7" d="M104.6,85.08" transform="translate(-10.05 -9.62)"/><path class="cls-6" d="M104.6,85.08s26.3,5.62,38.4,28.09,7.12,45.12-3.42,51.42" transform="translate(-10.05 -9.62)"/><path class="cls-3" d="M78.22,105.2L87.65,102s31.85,7.15,41.56,35.24-0.87,44.69-10.52,45.46-17.83,2-21.15,2S150.75,142,78.22,105.2Z" transform="translate(-10.05 -9.62)"/><path class="cls-4" d="M75.06,147s-19.67-4.6-18.39-14S61.27,109.7,72,105.87s32.18,9.19,43.42,31.92c10.22,21.2-5.36,46.74-21.2,47s-9.7-26.05-10.47-28.09S81.27,149,75.06,147Z" transform="translate(-10.05 -9.62)"/><path class="cls-5" d="M65.35,142.39a13.4,13.4,0,0,1-.63-6.9c0.77-3.32-4.08-13.42-4.08-15.08" transform="translate(-10.05 -9.62)"/><path class="cls-5" d="M69.57,144.56a100.92,100.92,0,0,1,1.28-12c1-5.62-4-10.6-4.81-14.17a32,32,0,0,1-.68-6.73" transform="translate(-10.05 -9.62)"/><path class="cls-5" d="M75.06,147s5-11,.89-21.58c-6-12.64-7.54-13.79-6.64-17.24" transform="translate(-10.05 -9.62)"/><path class="cls-5" d="M83.74,154.14s6.38-5.24.77-24.52-7.86-14.56-6.29-23.5" transform="translate(-10.05 -9.62)"/><path class="cls-5" d="M89.23,181.46s-5.47-6.38-1.59-16.47A59.77,59.77,0,0,0,90,126.87c-2.85-11.17-3.48-15.39-3.24-17.44" transform="translate(-10.05 -9.62)"/><path class="cls-5" d="M93.7,183.89s-5.87-6.77-.77-17.37,9.58-21.07,6.77-33.46-3.58-15.83-3.19-17.88" transform="translate(-10.05 -9.62)"/><path class="cls-5" d="M106.47,126a25.53,25.53,0,0,0-.84,6.82c-0.07,4.47,4.92,13.54-3.38,27.84s0,20.81,0,20.81" transform="translate(-10.05 -9.62)"/><path class="cls-5" d="M109.54,175.21s-5.2-2.59,1.79-15.71C117,148.86,113.75,137,113.75,137" transform="translate(-10.05 -9.62)"/><path class="cls-5" d="M126.67,177.54s-6.54,2.77-15.86-1.19" transform="translate(-10.05 -9.62)"/><path class="cls-5" d="M131.25,166.78s-5.65,6.63-14.26,0" transform="translate(-10.05 -9.62)"/><path class="cls-5" d="M119.07,146.73s4.9-3.7,12.17,0" transform="translate(-10.05 -9.62)"/><path class="cls-5" d="M116.66,137.55s4.88-4.1,12.67.49" transform="translate(-10.05 -9.62)"/><path class="cls-5" d="M122.63,125.15s-8.87-4.34-16.15-2.3" transform="translate(-10.05 -9.62)"/><path class="cls-5" d="M98.57,115.7s6.24-1.92,15.18,0" transform="translate(-10.05 -9.62)"/><path class="cls-5" d="M88.47,108.17a22.23,22.23,0,0,1,13.54,0" transform="translate(-10.05 -9.62)"/><path class="cls-6" d="M75.06,147s-19.67-4.6-18.39-14S61.27,109.7,72,105.87s32.18,9.19,43.42,31.92c10.22,21.2-5.36,46.74-21.2,47s-9.7-26.05-10.47-28.09S81.27,149,75.06,147Z" transform="translate(-10.05 -9.62)"/><path class="cls-7" d="M125.16,181.46" transform="translate(-10.05 -9.62)"/><path class="cls-7" d="M87.65,102" transform="translate(-10.05 -9.62)"/><path class="cls-6" d="M87.65,102s26.3,5.62,38.4,28.09,7.12,45.12-3.42,51.42" transform="translate(-10.05 -9.62)"/></svg>