<svg id="图层_1" data-name="图层 1" xmlns="http://www.w3.org/2000/svg" viewBox="0 0 224.58 121.09"><defs><style>.cls-1{fill:#bbc475;}.cls-1,.cls-2{stroke:#000;stroke-miterlimit:10;stroke-width:2px;}.cls-2{fill:#f95361;}</style></defs><title>watermelon</title><path class="cls-1" d="M7,78.57H229.57s2.93,119.09-111.28,119.09S7,78.57,7,78.57Z" transform="translate(-6 -77.57)"/><path class="cls-2" d="M26.31,78.57h184s2.42,98.44-92,98.44S26.31,78.57,26.31,78.57Z" transform="translate(-6 -77.57)"/><line class="cls-1" x1="52" y1="20" x2="52" y2="36"/><line class="cls-1" x1="84" y1="20" x2="84" y2="36"/><line class="cls-1" x1="110" y1="20" x2="110" y2="36"/><line class="cls-1" x1="142" y1="20" x2="142" y2="36"/><line class="cls-1" x1="173" y1="20" x2="173" y2="36"/><line class="cls-1" x1="68" y1="56" x2="68" y2="71"/><line class="cls-1" x1="94" y1="56" x2="94" y2="71"/><line class="cls-1" x1="126" y1="56" x2="126" y2="71"/><line class="cls-1" x1="158" y1="56" x2="158" y2="71"/></svg>