<?xml version="1.0" encoding="utf-8"?>
<!-- Generator: Adobe Illustrator 19.2.1, SVG Export Plug-In . SVG Version: 6.00 Build 0)  -->
<svg version="1.1" id="图层_1" xmlns="http://www.w3.org/2000/svg" xmlns:xlink="http://www.w3.org/1999/xlink" x="0px" y="0px"
	 viewBox="0 0 119.3 160.3" style="enable-background:new 0 0 119.3 160.3;" xml:space="preserve">
<style type="text/css">
	.st0{fill:#E8C367;}
	.st1{fill:none;stroke:#66441F;stroke-width:0.5;stroke-miterlimit:10;}
	.st2{fill:#8F6F00;}
</style>
<title>wheat crackers</title>
<path class="st0" d="M74.6,55.1c1.2,1.8-2.8,3-2.8,5.2s3,2.2,3,4.4s-3,2.2-3,4.4c0,2.2,3,2.2,3,4.4s-3,2.2-3,4.4c0,2.2,3,2.2,3,4.4
	s-3,2.2-3,4.4c0,2.2,3,2.2,3,4.4c0,2.2-3,2.2-3,4.4c0,2.2,3,2.2,3,4.4c0,2.2-3,2.2-3,4.4s3,2.2,3,4.3c0,2.2-3,2.2-3,4.4
	c0,2.2,3,2.2,3,4.4c0,2.2-3,2.2-3,4.4c0,2.2,3,2.2,3,4.4c0,2.2-3,2.2-3,4.4s4,3.4,2.8,5.2c-0.8,1.2-2.7-2.4-4.2-2.4
	c-1.5,0-1.5,3-3,3s-1.5-3-3-3c-1.5,0-1.5,3-3,3s-1.5-3-3-3c-1.5,0-1.5,3-3,3s-1.5-3-3-3s-1.5,3-3,3s-1.5-3-3-3s-1.5,3-3,3
	s-1.5-3-3-3c-1.5,0-1.5,3-3,3s-1.5-3-3-3s-1.5,3-3,3c-1.5,0-1.5-3-3-3c-1.5,0-1.5,3-3,3c-1.5,0-1.5-3-3-3s-3.4,3.6-4.2,2.4
	c-1.2-1.8,2.8-3,2.8-5.2s-3-2.2-3-4.4c0-2.2,3-2.2,3-4.4s-3-2.2-3-4.4c0-2.2,3-2.2,3-4.4c0-2.2-3-2.2-3-4.4c0-2.2,3-2.2,3-4.4
	c0-2.2-3-2.2-3-4.4s3-2.2,3-4.4s-3-2.2-3-4.4s3-2.2,3-4.4c0-2.2-3-2.2-3-4.4c0-2.2,3-2.2,3-4.4c0-2.2-3-2.2-3-4.4c0-2.2,3-2.2,3-4.4
	s-3.1-2.2-3.1-4.3s3-2.2,3-4.4s-4-3.4-2.8-5.2c0.8-1.2,2.7,2.4,4.2,2.4c1.5,0,1.5-3,3-3c1.5,0,1.5,3,3,3s1.5-3,3-3c1.5,0,1.5,3,3,3
	s1.5-3,3-3s1.5,3,3,3s1.5-3,3-3s1.5,3,3,3s1.5-3,3-3s1.5,3,3,3s1.5-3,3-3c1.5,0,1.5,3,3,3s1.5-3,3-3s1.5,3,3,3c1.5,0,1.5-3,3-3
	s2,3.4,3.5,2.9C73,56.7,73.7,53.9,74.6,55.1z"/>
<path class="st1" d="M74.6,55.1c1.2,1.8-2.8,3-2.8,5.2s3,2.2,3,4.4s-3,2.2-3,4.4c0,2.2,3,2.2,3,4.4s-3,2.2-3,4.4c0,2.2,3,2.2,3,4.4
	s-3,2.2-3,4.4c0,2.2,3,2.2,3,4.4c0,2.2-3,2.2-3,4.4c0,2.2,3,2.2,3,4.4c0,2.2-3,2.2-3,4.4s3,2.2,3,4.3c0,2.2-3,2.2-3,4.4
	c0,2.2,3,2.2,3,4.4c0,2.2-3,2.2-3,4.4c0,2.2,3,2.2,3,4.4c0,2.2-3,2.2-3,4.4s4,3.4,2.8,5.2c-0.8,1.2-2.7-2.4-4.2-2.4
	c-1.5,0-1.5,3-3,3s-1.5-3-3-3c-1.5,0-1.5,3-3,3s-1.5-3-3-3c-1.5,0-1.5,3-3,3s-1.5-3-3-3s-1.5,3-3,3s-1.5-3-3-3s-1.5,3-3,3
	s-1.5-3-3-3c-1.5,0-1.5,3-3,3s-1.5-3-3-3s-1.5,3-3,3c-1.5,0-1.5-3-3-3c-1.5,0-1.5,3-3,3c-1.5,0-1.5-3-3-3s-3.4,3.6-4.2,2.4
	c-1.2-1.8,2.8-3,2.8-5.2s-3-2.2-3-4.4c0-2.2,3-2.2,3-4.4s-3-2.2-3-4.4c0-2.2,3-2.2,3-4.4c0-2.2-3-2.2-3-4.4c0-2.2,3-2.2,3-4.4
	c0-2.2-3-2.2-3-4.4s3-2.2,3-4.4s-3-2.2-3-4.4s3-2.2,3-4.4c0-2.2-3-2.2-3-4.4c0-2.2,3-2.2,3-4.4c0-2.2-3-2.2-3-4.4c0-2.2,3-2.2,3-4.4
	s-3.1-2.2-3.1-4.3s3-2.2,3-4.4s-4-3.4-2.8-5.2c0.8-1.2,2.7,2.4,4.2,2.4c1.5,0,1.5-3,3-3c1.5,0,1.5,3,3,3s1.5-3,3-3c1.5,0,1.5,3,3,3
	s1.5-3,3-3s1.5,3,3,3s1.5-3,3-3s1.5,3,3,3s1.5-3,3-3s1.5,3,3,3s1.5-3,3-3c1.5,0,1.5,3,3,3s1.5-3,3-3s1.5,3,3,3c1.5,0,1.5-3,3-3
	s2,3.4,3.5,2.9C73,56.7,73.7,53.9,74.6,55.1z"/>
<ellipse transform="matrix(6.958233e-02 -0.9976 0.9976 6.958233e-02 -40.2291 103.8702)" class="st2" cx="35.6" cy="73.5" rx="2.8" ry="2.8"/>
<ellipse transform="matrix(6.958233e-02 -0.9976 0.9976 6.958233e-02 -19.9613 125.5945)" class="st2" cx="57.3" cy="73.5" rx="2.8" ry="2.8"/>
<ellipse transform="matrix(6.958233e-02 -0.9976 0.9976 6.958233e-02 -61.2831 123.5027)" class="st2" cx="35.6" cy="94.6" rx="2.8" ry="2.8"/>
<ellipse transform="matrix(6.958233e-02 -0.9976 0.9976 6.958233e-02 -41.0223 145.2335)" class="st2" cx="57.3" cy="94.6" rx="2.8" ry="2.8"/>
<ellipse transform="matrix(6.958233e-02 -0.9976 0.9976 6.958233e-02 -83.6823 144.3839)" class="st2" cx="35.6" cy="117.1" rx="2.8" ry="2.8"/>
<ellipse transform="matrix(6.958233e-02 -0.9976 0.9976 6.958233e-02 -63.4081 166.1152)" class="st2" cx="57.3" cy="117.1" rx="2.8" ry="2.8"/>
<path class="st0" d="M101,24.9c1.2,1.8-2.8,3-2.8,5.2s3,2.2,3,4.4s-3,2.2-3,4.4c0,2.2,3,2.2,3,4.4c0,2.2-3,2.2-3,4.4s3,2.2,3,4.4
	c0,2.2-3,2.2-3,4.4c0,2.2,3,2.2,3,4.4c0,2.2-3,2.2-3,4.4c0,2.2,3,2.2,3,4.4s-3,2.2-3,4.4c0,2.2,3,2.2,3,4.4c0,2.2-3,2.2-3,4.4
	c0,2.2,3,2.2,3,4.4c0,2.2-3,2.2-3,4.4s3,2.2,3,4.4s-3,2.2-3,4.4s4,3.4,2.8,5.2c-0.8,1.2-2.7-2.4-4.2-2.4c-1.5,0-1.5,3-3,3
	s-1.5-3-3-3s-1.5,3-3,3s-1.5-3-3-3s-1.5,3-3,3s-1.5-3-3-3s-1.5,3-3,3s-1.5-3-3-3s-1.5,3-3,3s-1.5-3-3-3c-1.5,0-1.5,3-3,3
	c-1.5,0-1.5-3-3-3s-1.5,3-3,3c-1.5,0-1.5-3-3-3c-1.5,0-1.5,3-3,3s-1.5-3-3-3c-1.5,0-3.4,3.6-4.2,2.4c-1.2-1.8,2.8-3,2.8-5.2
	s-3-2.2-3-4.4s3-2.2,3-4.4c0-2.2-3-2.2-3-4.4c0-2.2,3-2.2,3-4.4c0-2.2-3-2.2-3-4.4c0-2.2,3-2.2,3-4.4s-3-2.2-3-4.4
	c0-2.2,3-2.2,3-4.4s-3.1-2.2-3.1-4.4c0-2.2,3-2.2,3-4.4c0-2.2-3-2.2-3-4.4c0-2.2,3-2.2,3-4.4c0-2.2-3-2.2-3-4.4s3-2.2,3-4.4
	c0-2.2-3-2.2-3-4.4c0-2.2,3-2.2,3-4.4s-4-3.4-2.8-5.2c0.8-1.2,2.7,2.4,4.2,2.4s1.5-3,3-3s1.5,3,3,3s1.5-3,3-3c1.5,0,1.5,3,3,3
	s1.5-3,3-3s1.5,3,3,3c1.5,0,1.5-3,3-3s1.5,3,3,3s1.5-3,3-3s1.5,3,3,3s1.5-3,3-3c1.5,0,1.5,3,3,3s1.5-3,3-3c1.5,0,1.5,3,3,3
	s1.5-3,3-3s2,3.4,3.5,2.9C99.4,26.5,100.1,23.7,101,24.9z"/>
<path class="st1" d="M101,24.9c1.2,1.8-2.8,3-2.8,5.2s3,2.2,3,4.4s-3,2.2-3,4.4c0,2.2,3,2.2,3,4.4c0,2.2-3,2.2-3,4.4s3,2.2,3,4.4
	c0,2.2-3,2.2-3,4.4c0,2.2,3,2.2,3,4.4c0,2.2-3,2.2-3,4.4c0,2.2,3,2.2,3,4.4s-3,2.2-3,4.4c0,2.2,3,2.2,3,4.4c0,2.2-3,2.2-3,4.4
	c0,2.2,3,2.2,3,4.4c0,2.2-3,2.2-3,4.4s3,2.2,3,4.4s-3,2.2-3,4.4s4,3.4,2.8,5.2c-0.8,1.2-2.7-2.4-4.2-2.4c-1.5,0-1.5,3-3,3
	s-1.5-3-3-3s-1.5,3-3,3s-1.5-3-3-3s-1.5,3-3,3s-1.5-3-3-3s-1.5,3-3,3s-1.5-3-3-3s-1.5,3-3,3s-1.5-3-3-3c-1.5,0-1.5,3-3,3
	c-1.5,0-1.5-3-3-3s-1.5,3-3,3c-1.5,0-1.5-3-3-3c-1.5,0-1.5,3-3,3s-1.5-3-3-3c-1.5,0-3.4,3.6-4.2,2.4c-1.2-1.8,2.8-3,2.8-5.2
	s-3-2.2-3-4.4s3-2.2,3-4.4c0-2.2-3-2.2-3-4.4c0-2.2,3-2.2,3-4.4c0-2.2-3-2.2-3-4.4c0-2.2,3-2.2,3-4.4s-3-2.2-3-4.4
	c0-2.2,3-2.2,3-4.4s-3.1-2.2-3.1-4.4c0-2.2,3-2.2,3-4.4c0-2.2-3-2.2-3-4.4c0-2.2,3-2.2,3-4.4c0-2.2-3-2.2-3-4.4s3-2.2,3-4.4
	c0-2.2-3-2.2-3-4.4c0-2.2,3-2.2,3-4.4s-4-3.4-2.8-5.2c0.8-1.2,2.7,2.4,4.2,2.4s1.5-3,3-3s1.5,3,3,3s1.5-3,3-3c1.5,0,1.5,3,3,3
	s1.5-3,3-3s1.5,3,3,3c1.5,0,1.5-3,3-3s1.5,3,3,3s1.5-3,3-3s1.5,3,3,3s1.5-3,3-3c1.5,0,1.5,3,3,3s1.5-3,3-3c1.5,0,1.5,3,3,3
	s1.5-3,3-3s2,3.4,3.5,2.9C99.4,26.5,100.1,23.7,101,24.9z"/>
<ellipse transform="matrix(6.958233e-02 -0.9976 0.9976 6.958233e-02 14.5015 102.0717)" class="st2" cx="62" cy="43.3" rx="2.8" ry="2.8"/>
<ellipse transform="matrix(6.958233e-02 -0.9976 0.9976 6.958233e-02 34.7693 123.796)" class="st2" cx="83.8" cy="43.3" rx="2.8" ry="2.8"/>
<ellipse transform="matrix(6.958233e-02 -0.9976 0.9976 6.958233e-02 -6.5525 121.7042)" class="st2" cx="62" cy="64.4" rx="2.8" ry="2.8"/>
<ellipse transform="matrix(6.958233e-02 -0.9976 0.9976 6.958233e-02 13.7153 143.4286)" class="st2" cx="83.7" cy="64.4" rx="2.8" ry="2.8"/>
<ellipse transform="matrix(6.958233e-02 -0.9976 0.9976 6.958233e-02 -28.9447 142.5789)" class="st2" cx="62" cy="86.8" rx="2.8" ry="2.8"/>
<ellipse transform="matrix(6.958233e-02 -0.9976 0.9976 6.958233e-02 -8.6775 164.3167)" class="st2" cx="83.7" cy="86.8" rx="2.8" ry="2.8"/>
</svg>
