<svg id="图层_1" data-name="图层 1" xmlns="http://www.w3.org/2000/svg" viewBox="0 0 218.97 197.15"><defs><style>.cls-1{fill:#fff;}.cls-1,.cls-2{stroke:#000;stroke-miterlimit:10;stroke-width:2px;}.cls-2{fill:#72dbdb;}</style></defs><title>white rice</title><rect x="99.34" y="62.86" width="109.03" height="2.91" rx="1.46" ry="1.46" transform="translate(3.61 133.93) rotate(-54.96)"/><rect x="123.39" y="58.21" width="109.03" height="2.91" rx="1.46" ry="1.46" transform="translate(0.66 123.85) rotate(-45)"/><path class="cls-1" d="M16,127.57H225s1.33-5.2-5.33-8.53c0,0-2.67-15.35-19.33-12.68,0,0-1.33-12-16-9.34,0,0-6-9.34-14.67-3.34,0,0-12-12-28-2,0,0-3-8-13.33-4,0,0-13.67-13.34-31.33-1.65,0,0-20-7-24,5,0,0-20-7.33-27.33,9.33,0,0-22.33-7.13-26,10C19.67,110.37,8.33,116.57,16,127.57Z" transform="translate(-9.25 -19.42)"/><rect x="47.99" y="93.92" width="4.6" height="4.6" rx="2.3" ry="2.3"/><rect x="52.59" y="83.57" width="3.88" height="3.88" rx="1.94" ry="1.94"/><rect x="56.48" y="91.91" width="4.31" height="4.31" rx="2.16" ry="2.16"/><rect x="42.53" y="87.45" width="4.46" height="4.46" rx="2.23" ry="2.23"/><rect x="32.18" y="83.57" width="5.03" height="5.03" rx="2.52" ry="2.52"/><rect x="24.99" y="93.92" width="4.89" height="4.89" rx="2.44" ry="2.44"/><rect x="94" y="71.5" width="4.46" height="4.46" rx="2.23" ry="2.23"/><rect x="100.61" y="85.51" width="4.17" height="4.17" rx="2.08" ry="2.08"/><rect x="104.78" y="93.92" width="5.18" height="5.18" rx="2.59" ry="2.59"/><rect x="107.36" y="82.13" width="5.32" height="5.32" rx="2.66" ry="2.66"/><rect x="114.41" y="91.91" width="4.31" height="4.31" rx="2.16" ry="2.16"/><rect x="116.57" y="99.1" width="4.82" height="4.82" rx="2.41" ry="2.41"/><rect x="116.57" y="83.57" width="5.03" height="5.03" rx="2.52" ry="2.52"/><rect x="122.75" y="93.92" width="4.6" height="4.6" rx="2.3" ry="2.3"/><rect x="127.35" y="88.6" width="5.32" height="5.32" rx="2.66" ry="2.66"/><rect x="122.75" y="82.13" width="4.6" height="4.6" rx="2.3" ry="2.3"/><rect x="116.57" y="75.95" width="4.82" height="4.82" rx="2.41" ry="2.41"/><rect x="132.67" y="75.95" width="4.82" height="4.82" rx="2.41" ry="2.41"/><rect x="132.67" y="84.43" width="5.25" height="5.25" rx="2.62" ry="2.62"/><rect x="135.29" y="96.22" width="4.51" height="4.51" rx="2.26" ry="2.26"/><rect x="147.18" y="82.13" width="4.92" height="4.92" rx="2.46" ry="2.46"/><rect x="174.21" y="94.07" width="4.46" height="4.46" rx="2.23" ry="2.23"/><path class="cls-2" d="M227.14,128.57H10.33c2.63,34,30.23,61.38,68.46,72.76a17.81,17.81,0,0,0-.41,3.6c0,5.31,4.35,10.64,9.66,10.64h61.39c5.31,0,9.66-5.57,9.66-10.88a10.38,10.38,0,0,0-.41-2.74C196.92,190.56,224.52,162.57,227.14,128.57Z" transform="translate(-9.25 -19.42)"/><line class="cls-2" x1="68.75" y1="182.15" x2="117.75" y2="182.15"/><path class="cls-2" d="M154.82,188.28s44.14-16.55,55.87-46.21" transform="translate(-9.25 -19.42)"/></svg>