<svg id="图层_1" data-name="图层 1" xmlns="http://www.w3.org/2000/svg" viewBox="0 0 224.44 115.29"><defs><style>.cls-1{fill:#d1a078;}.cls-1,.cls-2{stroke:#000;stroke-miterlimit:10;stroke-width:2px;}.cls-2{fill:#f7e4ba;}</style></defs><title>whole weat bread</title><path class="cls-1" d="M9.74,117.53s-12.9,31.31,22.13,38.13c31.31,2.79,56.73,6.2,71.61,4.65s16.4-21.2,16.4-21.2Z" transform="translate(-6.42 -62.47)"/><path class="cls-2" d="M11.1,111.33L27.22,76.61S32.8,57.39,60.7,65.45s55.18,15.5,63.24,13,4.65,58-9,66.65S31,150.6,18.54,138C10.88,130.24,7.69,124,11.1,111.33Z" transform="translate(-6.42 -62.47)"/><path class="cls-1" d="M68.76,106.68S61,156.59,151.52,176.12c21.08,3.41,20.77-7.75,24.18-9.61s46.81-22.92,48.36-24.79,9.83-8.48,3.36-17.27L150,70.72S66.87,91.19,68.76,106.68Z" transform="translate(-6.42 -62.47)"/><path class="cls-2" d="M73.1,114.74s-5.58-16.12,5-22.32c16.12-5.58,52.7-16.74,63.24-22.94s20.46,3.72,20.46,3.72,49.6,32.86,53.94,33.48,21.7,13.64,6.82,22.32-37.82,19.22-45.88,26-26,7.44-39.06,3.1S84.88,139.54,73.1,114.74Z" transform="translate(-6.42 -62.47)"/></svg>