<svg id="图层_1" data-name="图层 1" xmlns="http://www.w3.org/2000/svg" viewBox="0 0 42.6 39.28"><defs><style>.cls-1{fill:#d1a078;}.cls-1,.cls-2{stroke:#000;stroke-miterlimit:10;}.cls-2{fill:#f7bad3;}</style></defs><title>wild rice</title><rect x="17.98" y="10.93" width="20.89" height="0.56" rx="0.21" ry="0.21" transform="translate(2.53 25.46) rotate(-54.96)"/><rect x="22.59" y="10.04" width="20.89" height="0.56" rx="0.21" ry="0.21" transform="translate(1.98 23.8) rotate(-45)"/><path class="cls-1" d="M2,23.37h40a1.52,1.52,0,0,0-1-1.65,3.06,3.06,0,0,0-3.7-2.44S37.07,17,34.26,17.48a2,2,0,0,0-2.81-.64,4.31,4.31,0,0,0-5.36-.39s-0.57-1.53-2.55-.76a4.77,4.77,0,0,0-6-.32s-3.83-1.35-4.6,1c0,0-3.83-1.41-5.24,1.79,0,0-4.28-1.35-5,1.94C2.71,20.05.54,22.37,2,23.37Z" transform="translate(-0.39 -2.58)"/><rect x="9.52" y="18.02" width="0.88" height="0.88" rx="0.33" ry="0.33"/><rect x="10.4" y="16.04" width="0.74" height="0.74" rx="0.28" ry="0.28"/><rect x="11.15" y="17.64" width="0.83" height="0.83" rx="0.31" ry="0.31"/><rect x="8.47" y="16.78" width="0.85" height="0.85" rx="0.32" ry="0.32"/><rect x="6.49" y="16.04" width="0.96" height="0.96" rx="0.36" ry="0.36"/><rect x="5.11" y="18.02" width="0.94" height="0.94" rx="0.35" ry="0.35"/><rect x="18.33" y="13.73" width="0.85" height="0.85" rx="0.32" ry="0.32"/><rect x="19.6" y="16.41" width="0.8" height="0.8" rx="0.3" ry="0.3"/><rect x="20.4" y="18.02" width="0.99" height="0.99" rx="0.37" ry="0.37"/><rect x="20.9" y="15.76" width="1.02" height="1.02" rx="0.38" ry="0.38"/><rect x="22.25" y="17.64" width="0.83" height="0.83" rx="0.31" ry="0.31"/><rect x="22.66" y="19.01" width="0.92" height="0.92" rx="0.34" ry="0.34"/><rect x="22.66" y="16.04" width="0.96" height="0.96" rx="0.36" ry="0.36"/><rect x="23.84" y="18.02" width="0.88" height="0.88" rx="0.33" ry="0.33"/><rect x="24.72" y="17" width="1.02" height="1.02" rx="0.38" ry="0.38"/><rect x="23.84" y="15.76" width="0.88" height="0.88" rx="0.33" ry="0.33"/><rect x="22.66" y="14.58" width="0.92" height="0.92" rx="0.34" ry="0.34"/><rect x="25.74" y="14.58" width="0.92" height="0.92" rx="0.34" ry="0.34"/><rect x="25.74" y="16.2" width="1.01" height="1.01" rx="0.37" ry="0.37"/><rect x="26.25" y="18.46" width="0.86" height="0.86" rx="0.32" ry="0.32"/><rect x="28.52" y="15.76" width="0.94" height="0.94" rx="0.35" ry="0.35"/><rect x="33.7" y="18.05" width="0.85" height="0.85" rx="0.32" ry="0.32"/><path class="cls-2" d="M42.46,23.37H0.93c0.5,8,5.79,11.84,13.12,14A12.45,12.45,0,0,0,14,38.7c0,1,.83,2.67,1.85,2.67H27.57c1,0,1.85-1.66,1.85-2.67a5.76,5.76,0,0,0-.08-0.9C36.67,35.62,42,31.37,42.46,23.37Z" transform="translate(-0.39 -2.58)"/><line class="cls-2" x1="14.61" y1="36.78" x2="24.61" y2="36.78"/><path class="cls-2" d="M28.61,35s8.46-3.17,10.7-8.85" transform="translate(-0.39 -2.58)"/></svg>