<?xml version="1.0" encoding="utf-8"?>
<!-- Generator: Adobe Illustrator 19.2.1, SVG Export Plug-In . SVG Version: 6.00 Build 0)  -->
<svg version="1.1" id="图层_1" xmlns="http://www.w3.org/2000/svg" xmlns:xlink="http://www.w3.org/1999/xlink" x="0px" y="0px"
	 viewBox="0 0 133.1 157.2" style="enable-background:new 0 0 133.1 157.2;" xml:space="preserve">
<style type="text/css">
	.st0{fill:#EFE8BB;stroke:#020202;stroke-miterlimit:10;}
	.st1{fill:#EEBDEF;stroke:#020202;stroke-miterlimit:10;}
	.st2{fill:#EFE8BB;stroke:#000000;stroke-miterlimit:10;}
	.st3{fill:#F9F9F9;stroke:#000000;stroke-miterlimit:10;}
</style>
<title>yogurt</title>
<path class="st0" d="M31.9,39.9v86.7c0,6.2,14.9,11.2,33.3,11.2s33.3-5,33.3-11.2V39.9H31.9z"/>
<path class="st1" d="M65.2,87.6c-18.4,0-33.3-5-33.3-11.2v31c0,6.2,14.9,11.2,33.3,11.2s33.3-5,33.3-11.2v-31
	C98.5,82.6,83.6,87.6,65.2,87.6z"/>
<path class="st2" d="M20.7,41.1l21-16.1c0,0,11-8.2,28-4.7c21.2,3.3,36.7,5.4,36.7,5.4s14.9-0.2,8.6,10.3
	c-8.4,7.5-19.4,16.1-19.4,16.1s-12.9,10-31.7,7.2s-41.1-6.8-41.1-6.8S10.3,49.1,20.7,41.1z"/>
<ellipse class="st3" cx="66.1" cy="39.7" rx="33.3" ry="11.2"/>
</svg>
